<svg width="116" height="60" viewBox="0 0 116 60" fill="none" xmlns="http://www.w3.org/2000/svg">
<g clip-path="url(#clip0_504_459)">
<path d="M37.9692 1.28768C37.9692 1.28768 38.0564 1.1864 38.0564 1.17193C38.129 1.01278 38.0854 0.969375 37.9256 1.08512C37.8675 1.08512 37.8965 0.969375 37.7803 1.05619C37.7803 0.954907 37.635 1.01278 37.6059 0.954907C37.3153 1.17193 37.4315 1.25874 37.5042 1.21534C37.6786 1.14299 37.6786 1.25874 37.7657 1.27321C37.8239 1.27321 37.7948 1.41789 37.9692 1.28768ZM36.9811 1.17193C37.1264 1.07065 37.1409 1.01278 37.1409 0.969375C37.1409 0.897034 36.9811 1.05619 37.0537 0.92597C37.0537 0.911502 37.0101 0.954907 36.9666 0.998312C36.923 1.09959 37.0828 0.998312 36.9811 1.17193ZM36.5597 0.969375C36.5597 0.969375 36.5597 1.11406 36.705 0.969375C36.7922 0.868097 36.7631 0.839161 36.7776 0.781288C36.6033 0.868097 36.6759 0.622136 36.4725 0.839161C36.4434 0.954907 36.3853 1.11406 36.5597 0.983844M36.3853 0.723414C36.3708 0.607668 36.24 0.636605 36.1383 0.651073C36.0656 0.694478 35.9785 0.795756 35.9203 0.824692C36.0802 0.795756 36.0075 1.05619 36.3853 0.723414ZM35.5425 1.01278C35.6442 0.940439 35.6297 1.01278 35.746 0.911502C35.8041 0.810224 35.775 0.781288 35.7169 0.795756C35.6588 0.839161 35.5135 0.954907 35.5425 0.998312M34.9177 3.35664C34.9177 3.35664 34.7869 3.48686 34.7433 3.5592C34.6271 3.74729 34.7869 3.63154 34.8305 3.64601C34.9032 3.61707 34.9177 3.68941 35.063 3.5592C35.1211 3.48686 35.1793 3.41452 35.1938 3.37111C35.0921 3.37111 34.9322 3.45792 34.9322 3.35664M14.1095 7.95756L14.2403 7.61032C14.1531 7.76947 14.095 7.95756 14.1095 7.95756ZM1.80183 32.163C1.56933 32.163 1.32231 32.163 1.23512 32.163C1.177 32.163 1.14794 32.163 1.08982 32.163C1.03169 32.0907 0.959038 32.1919 0.886384 32.163C0.871853 32.163 0.552173 32.1775 0.363272 32.163C0.232494 32.1919 0.0871853 32.1341 0.0726544 32.1341C-0.0435926 32.1341 0.0145309 31.8013 0.0145309 31.7C0.0145309 31.6421 0.261556 31.4396 0.247025 31.4251C0.174371 31.3817 0.101716 31.2226 0.0581235 31.1358C0.0435926 31.1213 0.0871853 30.8464 0.101716 30.8175C0.130778 30.7306 0.101716 30.6583 0.290618 30.3979C0.305148 30.3255 0.508581 30.2821 0.537642 30.2098C0.552173 30.1664 0.523112 30.094 0.552173 30.0796C0.610297 29.9494 0.653889 29.9494 0.653889 29.9349C0.697482 29.9349 0.653889 29.8336 0.712013 29.877C0.813729 29.7757 0.842791 29.8047 0.857322 29.8191C0.929976 29.7613 0.959038 29.8191 0.973569 29.8481C0.9881 29.8481 1.38043 29.7902 1.39496 29.8191C1.43856 29.8191 1.65652 29.8481 1.70011 29.877C1.75824 29.8047 1.7873 29.7902 1.80183 29.7902C4.5627 28.8932 3.18226 31.4251 5.42002 31.1936C5.75423 33.1758 7.94839 33.9715 9.69209 34.883C9.92459 34.8975 10.1716 34.912 10.4186 34.912C17.7567 34.3188 26.0975 29.3562 31.8081 24.4948C33.668 21.1382 31.8953 23.6701 31.7064 21.0658C32.4765 17.579 27.7685 17.6658 24.7897 17.2607C21.3749 16.5517 15.7369 16.6675 13.4411 15.3364C13.2376 15.2206 13.3393 15.047 13.1795 14.9168C12.9615 14.7142 12.729 14.5985 12.6419 14.3236C12.5547 14.0776 12.5983 13.8027 12.6419 13.4989C12.9325 11.5457 13.3975 9.70822 14.0223 8.05884C13.906 8.29033 13.8915 8.43501 13.7753 8.55076C13.7753 8.55076 13.6445 8.6665 13.7171 8.37714C13.7898 8.16011 13.9351 7.755 14.0368 7.55245C14.2984 7.03159 14.5018 6.5252 14.7779 6.01881C14.9232 5.77285 15.0685 5.51242 15.2138 5.25199C15.4899 4.77453 15.7515 4.35495 16.0566 3.93537L16.1874 3.73282L16.2746 3.6026C16.2746 3.6026 16.3182 3.5592 16.3472 3.48686L16.4344 3.37111L16.5361 3.22643L16.8268 2.82132C16.8268 2.82132 16.7686 2.90813 16.7541 2.93706C16.7977 2.89366 16.8413 2.83578 16.8849 2.77791L16.696 3.09621L16.6379 3.19749C16.5361 3.31324 16.5071 3.40005 16.449 3.48686C16.4199 3.54473 16.3908 3.58814 16.3618 3.64601C16.2891 3.74729 16.2455 3.80516 16.2455 3.84856L16.3182 3.74729L16.449 3.54473L16.3618 3.68941C16.9285 2.95153 17.5388 2.28599 18.2072 1.73619C18.2072 1.63492 18.2072 1.47577 18.2944 1.40342C18.4978 1.20087 19.1953 0.680009 19.5295 0.680009C19.5876 0.651073 20.1979 0.491922 20.5321 0.535327C21.1134 0.477454 21.9562 0.477454 22.0288 0.462985C22.2758 0.405112 22.4066 0.318302 22.7408 0.173619C22.8571 0.202556 23.0314 0.101278 23.1622 0.115746C23.5836 0.144683 25.5162 0.115746 26.0393 0.0578731L26.3881 0L26.577 0.0289366L26.4898 0.115746L27.2454 0.0434049H27.5941H27.7976H28.3933C28.7857 0.144683 29.4832 0.0434049 29.9772 0.0868097C30.0934 0.0434049 30.0499 0.115746 30.137 0.0868097C30.4277 0.0434049 30.573 0.0868097 30.7764 0.115746C31.2559 0.0578732 31.6337 0.0868097 32.0406 0.0723414C32.0406 0.144683 32.2295 0.0434049 32.2731 0.0723414C32.491 0.0723414 32.709 0.0868097 32.927 0.101278C33.3048 0.101278 35.0921 0.144683 35.31 0.130215C35.3391 0.173619 35.4408 0.173619 35.5571 0.144683C36.2109 0.101278 36.2836 0.260429 36.3127 0.274897C36.2981 0.332771 36.3272 0.347239 36.5306 0.274897C36.5887 0.274897 36.6759 0.231493 36.6614 0.274897C36.4725 0.477453 36.9084 0.188088 36.7631 0.361707C36.705 0.41958 36.705 0.405112 36.6469 0.448517C36.8358 0.405112 36.8358 0.332771 36.923 0.318302C36.9811 0.318302 37.0537 0.303834 36.9666 0.376175C36.8794 0.462985 36.923 0.448517 36.9375 0.462985C37.0683 0.405112 37.1119 0.303834 37.2136 0.361707C37.3008 0.448517 37.1409 0.564263 37.2136 0.520858C37.3008 0.448517 37.3298 0.405112 37.4025 0.390644C37.4461 0.462985 37.5769 0.405112 37.6059 0.434049C37.6059 0.477454 37.6931 0.434049 37.6204 0.535327C37.7367 0.50639 38.0418 0.347239 37.8675 0.535327C37.9401 0.50639 37.7367 0.708946 37.8675 0.636605C37.9692 0.564263 38.0709 0.50639 38.1436 0.477454C38.1436 0.50639 38.2453 0.477454 38.1436 0.578731C38.1145 0.622136 38.0128 0.694478 38.0418 0.694478C38.129 0.665541 38.3034 0.50639 38.3906 0.491922C38.5214 0.434049 38.3179 0.622136 38.3906 0.5932C38.4487 0.5932 38.6085 0.491922 38.5504 0.5932C38.6521 0.5932 38.7393 0.5932 38.7103 0.694478C38.7974 0.708946 38.8556 0.752351 38.8701 0.824692C38.7974 0.92597 38.9718 0.839161 39.0154 0.853629C39.0154 0.897034 39.1898 0.824692 39.0299 0.983844C39.059 1.01278 38.7538 1.2298 38.8701 1.20087C39.0154 1.1864 38.8992 1.49023 38.8992 1.49023C38.7829 1.49023 38.8701 1.36002 38.6667 1.43236C38.6085 1.56257 38.6085 1.63492 38.7393 1.62045C38.7829 1.62045 38.6521 1.75066 38.7684 1.69279C38.8701 1.62045 38.9428 1.5047 39.059 1.4613C39.0735 1.49023 39.2043 1.43236 39.1026 1.54811C39.0299 1.62045 38.8556 1.70726 38.8556 1.76513C38.7684 1.89535 38.8846 1.86641 38.8556 1.95322C38.841 1.98216 38.7974 2.01109 38.7684 2.04003C38.6667 2.08343 38.7393 1.99662 38.6957 1.98216C38.6667 1.98216 38.594 1.98216 38.6667 1.89535C38.6667 1.86641 38.6085 1.89535 38.5504 1.93875C38.5068 1.96769 38.4487 2.01109 38.4342 2.04003C38.4342 2.08343 38.4051 2.17024 38.3179 2.27152L38.2307 2.22812C38.129 2.24258 38.2017 2.12684 38.0709 2.17024C38.0564 2.12684 38.1 2.04003 37.9401 2.12684C37.8965 2.15577 37.8675 2.18471 37.8384 2.21365C37.7803 2.32939 38.1436 2.14131 37.8675 2.40174C37.8093 2.44514 37.7512 2.48855 37.7367 2.51748C38.1145 2.28599 37.9111 2.56089 38.0273 2.53195C37.9111 2.72004 38.2453 2.57536 38.0418 2.82132L37.882 2.76344C37.7803 2.80685 37.8675 2.70557 37.7657 2.74897C37.6931 2.79238 37.5914 2.86472 37.5333 2.92259C37.4315 3.02387 37.5478 2.99494 37.4461 3.09621C37.3444 3.18302 37.2136 3.11068 37.2136 3.15409C37.1555 3.25536 37.1264 3.26983 37.0973 3.29877C36.952 3.25536 37.0101 3.18302 36.9811 3.18302C36.8503 3.13962 36.7922 3.11068 36.6323 3.11068C36.5742 2.966 36.487 3.0094 36.3563 3.0094C36.2109 2.98047 36.3563 2.86472 36.24 2.86472C36.2109 2.86472 36.0075 3.02387 36.022 2.98047C35.8767 2.99494 35.8186 2.93706 35.6733 2.95153C35.5135 3.09621 35.6007 3.08175 35.6442 3.08175C35.7896 3.03834 35.746 3.12515 35.7896 3.13962C35.8477 3.13962 35.8622 3.16856 35.9058 3.16856C35.8622 3.25536 36.0802 3.13962 36.0947 3.18302C36.2255 3.21196 36.2836 3.29877 36.3853 3.34217C36.487 3.38558 36.2691 3.5592 36.1964 3.5592C36.1383 3.58814 36.0947 3.63154 36.0656 3.66048C35.9494 3.80516 36.2109 3.67495 36.0075 3.86303C35.8622 3.86303 35.7605 3.8341 35.746 3.74729C35.6878 3.74729 35.5861 3.77622 35.6297 3.68941C35.6152 3.68941 35.5425 3.73282 35.4989 3.76175C35.4408 3.8341 35.3972 3.89197 35.2955 3.97878C35.1647 4.05112 35.1357 4.00772 35.1357 3.97878C34.9904 3.99325 34.8886 4.00772 34.8015 3.97878C34.569 4.02218 34.3219 4.09453 34.1476 4.08006C34.0749 4.12346 34.1476 4.00772 34.0023 4.12346C33.9877 4.1524 33.9296 4.1958 33.886 4.22474C33.7988 4.28261 33.7552 4.26814 33.7262 4.25368C33.7116 4.25368 33.7988 4.1524 33.7262 4.1958C33.639 4.25368 33.5227 4.34049 33.5082 4.31155C33.5082 4.23921 33.3048 4.38389 33.2612 4.35495C33.1595 4.36942 33.0287 4.41283 33.0577 4.34049C32.956 4.36942 32.709 4.58645 32.7235 4.49964C32.6654 4.49964 32.7962 4.34049 32.6218 4.44176C32.491 4.51411 32.462 4.49964 32.3312 4.55751C32.244 4.57198 32.1132 4.61538 32.2004 4.49964C32.1568 4.49964 31.9534 4.61538 32.0696 4.48517C32.2295 4.32602 31.6773 4.58645 31.532 4.68773C31.4448 4.7456 31.3867 4.73113 31.3576 4.73113C31.3867 4.68773 31.4448 4.61538 31.3722 4.64432C31.314 4.64432 31.1833 4.7456 31.0961 4.789C31.0234 4.789 30.7619 4.93369 30.8345 4.81794C30.7764 4.83241 30.7037 4.86134 30.7764 4.77453C30.8345 4.70219 31.038 4.57198 30.9944 4.55751C30.9508 4.49964 30.7328 4.76007 30.602 4.80347L30.5003 4.83241L30.6166 4.73113C30.4858 4.789 30.355 4.83241 30.355 4.77453C30.2823 4.81794 30.1806 4.87581 30.1806 4.84688C30.0208 4.93369 30.0208 4.84688 29.861 4.94815C29.861 4.91922 29.9917 4.81794 29.9336 4.81794C29.8319 4.81794 29.7011 4.81794 29.5122 4.89028L28.0155 4.84688L27.7394 4.87581H27.3471L26.2137 4.91922L25.5598 4.97709H25.3128L24.7751 4.94815C24.717 4.83241 24.3828 4.90475 24.2375 4.87581C24.0195 4.90475 23.8742 4.90475 23.758 4.86134C23.5546 4.90475 23.4819 4.86134 23.3657 4.84688C23.3657 4.76007 23.4092 4.73113 23.4383 4.71666H23.3511C23.1767 4.84688 23.1767 4.789 23.075 4.83241C23.0024 4.83241 22.8716 4.87581 22.9007 4.80347L22.6972 4.83241C22.5229 4.93369 22.4066 4.96262 22.3485 4.93369H22.0579C21.9852 4.97709 21.898 5.03496 21.8254 5.04943L20.4885 5.17965C18.2653 6.03328 16.9721 9.07162 16.5071 11.4589C16.0566 13.2674 31.0234 12.298 33.2176 16.0453C34.6416 17.1305 33.4646 19.1126 33.9732 20.5305C32.927 21.9484 32.9851 25.4352 29.9336 26.5638C29.178 28.8353 25.6906 29.7034 24.1503 31.266C20.009 32.9298 14.589 35.0277 10.4477 34.9698C10.2588 34.9843 10.0554 34.9988 9.86647 35.0133L9.72116 34.9409C7.83214 34.7818 5.98672 34.1018 4.98409 32.626C4.98409 32.626 3.50194 32.3511 2.32494 32.2643L1.77277 32.2353L1.80183 32.163ZM32.1568 2.87919C32.1568 2.87919 31.6337 2.93706 31.5901 2.93706L32.3167 2.87919H32.4184C32.4184 2.87919 32.4765 2.87919 32.5492 2.86472H32.6364C32.6364 2.86472 32.6799 2.86472 32.7526 2.86472H32.9124C32.9851 2.85025 33.0577 2.86472 33.1595 2.85025C33.5082 2.83578 33.7843 2.85025 34.104 2.85025H34.2638C34.4672 2.85025 34.6707 2.90813 34.845 2.87919C34.9613 2.87919 35.1357 2.90813 35.0485 2.90813C35.2083 2.90813 35.2519 2.93706 35.3682 2.90813C35.3682 2.90813 35.4844 2.87919 35.3682 2.85025C35.281 2.83578 35.0921 2.80685 34.9758 2.79238C34.6852 2.79238 34.4818 2.6911 34.1912 2.70557L33.7116 2.76344C33.421 2.76344 33.174 2.77791 32.8107 2.80685H32.8979C32.8979 2.80685 32.8543 2.80685 32.7526 2.80685H32.6073L32.5056 2.83578H32.4184L32.1423 2.86472L32.1568 2.87919ZM14.4292 34.5792H14.2839C14.2839 34.5792 14.3565 34.5647 14.3856 34.5937H14.4292V34.5792ZM14.124 34.6371C14.124 34.6371 14.0659 34.6371 13.9932 34.6515H13.8479L13.6736 34.695L13.1795 34.7673C13.1795 34.7673 13.0923 34.7673 13.0633 34.7673H13.165C13.165 34.7673 13.2812 34.7673 13.3103 34.7384C13.2376 34.7384 13.1795 34.7384 13.1069 34.7384L13.4701 34.6515H13.5864L13.6881 34.6226C13.7462 34.6226 13.8043 34.5792 13.9206 34.5792C13.9787 34.5647 14.0368 34.5503 14.095 34.5358C14.124 34.5358 14.1531 34.5358 14.1821 34.5358C14.2403 34.5213 14.4001 34.4635 14.3129 34.4779L13.9642 34.5503C14.0804 34.5213 14.1967 34.4924 14.3274 34.4779C14.4146 34.4779 14.5163 34.449 14.6326 34.4345C14.7779 34.4056 14.9232 34.3477 15.0976 34.3188C15.7369 34.203 16.3036 34.0294 16.9139 33.8847C17.0302 33.8558 17.1319 33.8124 17.2336 33.7835C17.626 33.6822 18.0764 33.4651 18.4106 33.4217C18.6286 33.3928 18.9919 33.2192 18.832 33.2626C19.1517 33.1758 19.2679 33.0745 19.4568 33.0745C19.4568 33.0745 19.6312 33.089 19.3697 33.2481C19.1662 33.3494 18.7739 33.5086 18.5559 33.5809C17.9892 33.74 17.4806 33.9426 16.9285 34.0873C16.6524 34.1596 16.3618 34.2175 16.0711 34.2898C15.519 34.4056 15.0395 34.5069 14.5309 34.5792L14.2984 34.6081H14.1531L14.124 34.6371Z" fill="white"/>
<path d="M7.33828 42.609C7.10579 41.5817 6.48096 40.9596 5.39114 40.9596C3.77822 40.9596 2.97902 42.4209 2.97902 43.8822C2.97902 45.3435 3.77822 46.8048 5.39114 46.8048C6.43737 46.8048 7.29469 45.9945 7.39641 44.8515H8.2392C8.0067 46.5009 6.93142 47.4992 5.39114 47.4992C3.28417 47.4992 2.13623 45.8354 2.13623 43.8822C2.13623 41.9289 3.28417 40.2651 5.39114 40.2651C6.85876 40.2651 7.99217 41.0464 8.18107 42.609H7.33828Z" fill="white"/>
<path d="M13.5575 44.6634C13.5575 46.009 12.4387 46.8192 11.1454 46.8192C10.3607 46.8192 9.60511 46.2984 9.60511 45.4592C9.60511 44.1137 11.3779 44.1426 12.8165 43.8822C13.0489 43.8388 13.4122 43.7809 13.5285 43.5783H13.5575V44.6634ZM9.91026 42.5655C9.93932 41.4515 10.7095 40.974 11.7557 40.974C12.7438 40.974 13.5575 41.2489 13.5575 42.3775C13.5575 43.1298 13.1652 43.2311 12.4822 43.3034C10.6659 43.5205 8.77686 43.5783 8.77686 45.5026C8.77686 46.8771 9.82308 47.4992 11.0873 47.4992C12.3515 47.4992 13.0054 46.9928 13.6011 46.1103H13.6302C13.6302 46.8192 13.761 47.3111 14.6183 47.3111C14.8508 47.3111 14.9816 47.2967 15.1705 47.2533V46.5443C15.1705 46.5443 14.9961 46.6022 14.9089 46.6022C14.5747 46.6022 14.4149 46.4141 14.4149 46.0958V42.4643C14.4149 40.6268 13.0925 40.2651 11.8719 40.2651C10.2881 40.2651 9.15465 40.9596 9.082 42.5655H9.9248H9.91026Z" fill="white"/>
<path d="M15.8095 40.4678H16.5796V42.0738H16.6087C17.0301 40.9742 17.9746 40.3231 19.2097 40.381V41.2202C17.684 41.1478 16.6377 42.2619 16.6377 43.6798V47.3258H15.7949V40.4823L15.8095 40.4678Z" fill="white"/>
<path d="M19.7764 40.4678H20.6191V47.3113H19.7764V40.4678ZM19.7764 37.8345H20.6191V39.1801H19.7764V37.8345Z" fill="white"/>
<path d="M21.9561 40.4678H22.7989V41.6542H22.8279C23.1331 40.8296 24.0631 40.2798 25.0366 40.2798C26.9692 40.2798 27.565 41.2925 27.565 42.9275V47.3258H26.7222V43.0577C26.7222 41.8713 26.3299 40.9887 24.9785 40.9887C23.6271 40.9887 22.8425 42.0015 22.8134 43.3326V47.3258H21.9706V40.4823L21.9561 40.4678Z" fill="white"/>
<path d="M31.6335 46.5301C30.0787 46.5301 29.3667 45.1845 29.3667 43.81C29.3667 42.4355 30.0351 40.9598 31.6335 40.9598C33.2319 40.9598 33.8567 42.4645 33.8567 43.81C33.8567 45.1556 33.0866 46.5301 31.6335 46.5301ZM34.6995 40.4678H33.8567V41.6542H33.8277C33.4935 40.9019 32.6361 40.2798 31.6335 40.2798C29.6428 40.2798 28.5239 41.8423 28.5239 43.7377C28.5239 45.633 29.4248 47.2535 31.6335 47.2535C32.6216 47.2535 33.4353 46.6892 33.8277 45.8501H33.8567V46.776C33.8567 48.4543 33.1883 49.3658 31.6335 49.3658C30.689 49.3658 29.8026 49.0041 29.6137 47.9914H28.7709C28.8872 49.4527 30.2531 50.0603 31.6335 50.0603C33.8858 50.0603 34.685 48.8161 34.6995 46.776V40.4823V40.4678Z" fill="white"/>
<path fill-rule="evenodd" clip-rule="evenodd" d="M38.0126 43.8824C38.0126 43.0433 38.3178 42.0305 39.3349 42.0305C40.3521 42.0305 40.6718 43.0433 40.6718 43.8824C40.6718 44.7216 40.3521 45.7199 39.3349 45.7199C38.3178 45.7199 38.0126 44.7216 38.0126 43.8824ZM35.833 43.8824C35.833 45.8791 37.2715 47.3838 39.3349 47.3838C41.3983 47.3838 42.8514 45.8791 42.8514 43.8824C42.8514 41.8858 41.3983 40.3667 39.3349 40.3667C37.2715 40.3667 35.833 41.8858 35.833 43.8824Z" fill="white"/>
<path fill-rule="evenodd" clip-rule="evenodd" d="M43.6219 47.1954H45.8015V43.9111C45.8015 43.072 46.3682 42.3341 47.4435 42.3341C47.7341 42.3341 47.9957 42.3775 48.2718 42.4643V40.4821C48.1119 40.4387 47.923 40.4243 47.7632 40.4243C46.8187 40.4243 46.0776 40.8728 45.7579 41.712H45.7289V40.5545H43.6074V47.1954H43.6219Z" fill="white"/>
<path fill-rule="evenodd" clip-rule="evenodd" d="M52.7035 43.6943C52.7035 44.5334 52.3112 45.2424 51.3812 45.2424C50.4513 45.2424 50.1171 44.461 50.1171 43.6797C50.1171 42.8984 50.4222 42.0159 51.3812 42.0159C52.3403 42.0159 52.689 42.8406 52.689 43.6943M54.7524 40.5546H52.66V41.3792H52.6309C52.2531 40.6992 51.6428 40.3521 50.8436 40.3521C48.9546 40.3521 47.9229 41.8422 47.9229 43.5929C47.9229 45.4593 48.8383 46.8917 50.8436 46.8917C51.5556 46.8917 52.224 46.53 52.6164 45.9224H52.6454V46.5444C52.6454 47.3691 52.5437 48.0926 51.4975 48.0926C51.1633 48.0926 50.8872 48.0491 50.6983 47.9478C50.4949 47.8466 50.3786 47.673 50.3205 47.3692H48.1409C48.4024 49.1488 49.8555 49.4959 51.4103 49.4959C54.5344 49.4959 54.7379 47.4559 54.7379 46.3563V40.5257L54.7524 40.5546Z" fill="white"/>
<path fill-rule="evenodd" clip-rule="evenodd" d="M57.5276 45.2855C57.5276 44.7647 57.9345 44.5477 58.4285 44.4464C58.9081 44.3162 59.4748 44.2872 59.7799 44.0847C59.838 45.4447 59.4893 46.0379 58.4431 46.0379C57.949 46.0379 57.5276 45.8209 57.5276 45.2855ZM57.6584 42.5944C57.7601 42.0302 58.1524 41.7553 58.7482 41.7553C59.1987 41.7553 59.7944 41.9434 59.7944 42.4498C59.7944 42.8549 59.591 42.9851 59.2132 43.0574C57.702 43.3613 55.3335 43.2021 55.3335 45.3579C55.3335 46.7324 56.3361 47.369 57.6003 47.369C58.3995 47.369 59.2277 47.1375 59.7944 46.5443C59.8235 46.7613 59.8526 46.9639 59.9252 47.1664H62.1194C61.8578 46.6456 61.8578 46.0234 61.8578 45.4736V42.5655C61.8578 40.6846 60.3321 40.3374 58.7482 40.3374C57.9926 40.3374 57.2225 40.4676 56.6267 40.8004C56.0309 41.1476 55.6241 41.7119 55.595 42.58H57.6293L57.6584 42.5944Z" fill="white"/>
<path fill-rule="evenodd" clip-rule="evenodd" d="M62.8607 47.1957H65.0404V43.5786C65.0404 42.8552 65.4036 42.1607 66.2174 42.1607C67.4089 42.1607 67.3072 43.0867 67.3072 43.9837V47.1957H69.4868V42.942C69.4868 41.9871 69.3124 40.3667 67.0892 40.3667C66.29 40.3667 65.3891 40.7862 64.9968 41.4662H64.9677V40.5547H62.8462V47.1957H62.8607Z" fill="white"/>
<path fill-rule="evenodd" clip-rule="evenodd" d="M70.5767 47.1813H72.7564V40.5403H70.5767V47.1813ZM72.7564 38.0518H70.5767V39.7156H72.7564V38.0518Z" fill="white"/>
<path fill-rule="evenodd" clip-rule="evenodd" d="M73.4538 44.9963C73.5119 46.8482 75.1394 47.3692 76.7087 47.3692C78.2781 47.3692 79.9055 46.7759 79.9055 44.9963C79.9055 44.4465 79.5568 43.4772 78.2054 43.2023C77.2028 42.9853 75.7352 42.8695 75.7352 42.2473C75.7352 41.7843 76.3164 41.741 76.6797 41.741C76.9558 41.741 77.1883 41.7988 77.3772 41.9146C77.5515 42.0303 77.6532 42.204 77.6532 42.4934H79.673C79.6004 40.7717 78.0746 40.3521 76.607 40.3521C75.2992 40.3521 73.5555 40.7861 73.5555 42.3921C73.5555 44.1862 75.2702 44.2151 76.6506 44.5624C77.0284 44.6492 77.7114 44.7504 77.7114 45.2713C77.7114 45.7922 77.1011 45.9802 76.6797 45.9802C76.3745 45.9802 76.0839 45.9078 75.8659 45.7487C75.648 45.5895 75.5027 45.3435 75.5027 45.0108H73.4248L73.4538 44.9963Z" fill="white"/>
<path fill-rule="evenodd" clip-rule="evenodd" d="M82.3465 45.2855C82.3465 44.7647 82.7534 44.5477 83.2474 44.4464C83.7269 44.3162 84.2936 44.2872 84.5988 44.0847C84.6569 45.4447 84.3082 46.0379 83.262 46.0379C82.7824 46.0379 82.3465 45.8209 82.3465 45.2855ZM82.4773 42.5944C82.579 42.0302 82.9713 41.7553 83.5671 41.7553C84.0176 41.7553 84.6133 41.9434 84.6133 42.4498C84.6133 42.8549 84.4099 42.9851 84.0321 43.0574C82.5209 43.3613 80.1523 43.2021 80.1523 45.3579C80.1523 46.7324 81.155 47.369 82.4337 47.369C83.2329 47.369 84.0611 47.1375 84.6279 46.5443C84.6569 46.7613 84.686 46.9639 84.7586 47.1664H86.9528C86.6912 46.6456 86.6912 46.0234 86.6912 45.4736V42.5655C86.6912 40.6846 85.1655 40.3374 83.5816 40.3374C82.826 40.3374 82.0559 40.4676 81.4601 40.8004C80.8644 41.1476 80.4575 41.7119 80.4139 42.58H82.4628L82.4773 42.5944Z" fill="white"/>
<path fill-rule="evenodd" clip-rule="evenodd" d="M91.7041 40.5546H90.3527V38.5435H88.1731V40.5546H87.0688V41.958H88.1731V44.9096C88.1731 46.7181 88.6526 47.2534 90.5126 47.2534C90.9195 47.2534 91.3118 47.21 91.7041 47.1956V45.604C91.5152 45.604 91.3264 45.633 91.1375 45.633C90.658 45.633 90.3527 45.5172 90.3527 44.9964V41.9725H91.7041V40.5691V40.5546Z" fill="white"/>
<path fill-rule="evenodd" clip-rule="evenodd" d="M92.3003 47.1813H94.4799V40.5403H92.3003V47.1813ZM94.4799 38.0518H92.3003V39.7156H94.4799V38.0518Z" fill="white"/>
<path fill-rule="evenodd" clip-rule="evenodd" d="M97.4296 43.8824C97.4296 43.0433 97.7348 42.0305 98.7519 42.0305C99.7691 42.0305 100.089 43.0433 100.089 43.8824C100.089 44.7216 99.7691 45.7199 98.7519 45.7199C97.7348 45.7199 97.4296 44.7216 97.4296 43.8824ZM95.25 43.8824C95.25 45.8791 96.6885 47.3838 98.7519 47.3838C100.815 47.3838 102.268 45.8791 102.268 43.8824C102.268 41.8858 100.815 40.3667 98.7519 40.3667C96.6885 40.3667 95.25 41.8858 95.25 43.8824Z" fill="white"/>
<path fill-rule="evenodd" clip-rule="evenodd" d="M102.951 47.1957H105.131V43.5786C105.131 42.8552 105.494 42.1607 106.322 42.1607C107.514 42.1607 107.412 43.0867 107.412 43.9837V47.1957H109.592V42.942C109.592 41.9871 109.418 40.3667 107.194 40.3667C106.395 40.3667 105.494 40.7862 105.102 41.4662H105.073V40.5547H102.951V47.1957Z" fill="white"/>
<path d="M2.12158 54.2992L3.56014 51.5068L4.96963 54.2848L4.73714 54.3571L4.17044 53.2286H2.93531L2.35408 54.3571L2.12158 54.2992ZM3.06609 53.0116H4.05419L3.56014 52.0277L3.06609 53.0116Z" fill="white"/>
<path d="M5.59452 54.372L4.72266 52.3609L4.95516 52.2886L5.60905 53.8367L6.35012 52.2886L7.07667 53.8367L7.77415 52.2886L7.99211 52.3465L7.07667 54.372L6.33559 52.7805L5.59452 54.372Z" fill="white"/>
<path d="M9.29971 54.1257C9.22706 54.2125 9.1544 54.2704 9.05269 54.3138C8.9655 54.3572 8.86379 54.3717 8.76207 54.3717C8.55864 54.3717 8.38427 54.2994 8.23896 54.1547C8.09365 54.01 8.021 53.8364 8.021 53.6338C8.021 53.4313 8.09365 53.2576 8.23896 53.113C8.38427 52.9683 8.55864 52.8959 8.76207 52.8959C8.86379 52.8959 8.9655 52.9104 9.05269 52.9538C9.13987 52.9972 9.22706 53.0551 9.29971 53.1274V52.867C9.29971 52.7223 9.27065 52.621 9.198 52.5632C9.12534 52.4908 9.02363 52.4619 8.87832 52.4619C8.79113 52.4619 8.70395 52.4619 8.5877 52.5053C8.48599 52.5342 8.36974 52.5632 8.23896 52.621L8.32614 52.3606C8.42786 52.3317 8.51505 52.3027 8.61676 52.2883C8.71848 52.2738 8.80566 52.2593 8.89285 52.2593C9.11081 52.2593 9.27065 52.3027 9.37237 52.404C9.47408 52.5053 9.51768 52.6644 9.51768 52.8959V54.3138L9.29971 54.3572V54.1113V54.1257ZM8.25349 53.6483C8.25349 53.793 8.31161 53.9087 8.3988 54.01C8.50052 54.1113 8.63129 54.1547 8.7766 54.1547C8.92191 54.1547 9.05269 54.1113 9.15441 54.01C9.25612 53.9087 9.29971 53.793 9.29971 53.6338C9.29971 53.4747 9.25612 53.3589 9.15441 53.2576C9.06722 53.1564 8.93644 53.113 8.79113 53.113C8.64582 53.113 8.50052 53.1564 8.41333 53.2576C8.31161 53.3589 8.26802 53.4747 8.26802 53.6338" fill="white"/>
<path d="M9.92432 54.3574V52.3318L10.1423 52.3029V52.7369C10.2295 52.5778 10.3167 52.462 10.4475 52.3897C10.5637 52.3029 10.709 52.2739 10.8543 52.2739H10.9125L10.8253 52.491C10.5928 52.5054 10.4329 52.6067 10.3167 52.7948C10.2004 52.9829 10.1569 53.2288 10.1569 53.5761V54.3284L9.93885 54.3574H9.92432Z" fill="white"/>
<path d="M12.8308 53.9378C12.7291 54.0825 12.5983 54.1838 12.453 54.2706C12.3077 54.3429 12.1624 54.3863 11.988 54.3863C11.6829 54.3863 11.4358 54.2851 11.2324 54.0825C11.029 53.88 10.9272 53.634 10.9272 53.3302C10.9272 53.0263 11.029 52.7948 11.2324 52.5923C11.4358 52.3897 11.6829 52.2884 11.988 52.2884C12.1624 52.2884 12.3222 52.3318 12.453 52.4042C12.5983 52.4765 12.7145 52.5923 12.8163 52.737V51.5216L13.0342 51.4927V54.3285L12.8163 54.3574V53.9378H12.8308ZM11.1597 53.3302C11.1597 53.5616 11.2469 53.7497 11.4068 53.9089C11.5666 54.068 11.77 54.1548 11.988 54.1548C12.206 54.1548 12.4094 54.0825 12.5692 53.9089C12.7291 53.7497 12.8163 53.5616 12.8163 53.3302C12.8163 53.0987 12.7291 52.9106 12.5692 52.7514C12.4094 52.5923 12.206 52.5055 11.988 52.5055C11.77 52.5055 11.5666 52.5923 11.4068 52.7514C11.2469 52.9106 11.1597 53.0987 11.1597 53.3302Z" fill="white"/>
<path d="M15.2139 54.0971C15.0832 54.1984 14.9524 54.2707 14.8216 54.3141C14.6908 54.3576 14.56 54.3865 14.4147 54.3865C14.1096 54.3865 13.8626 54.2852 13.6591 54.0827C13.4557 53.8801 13.354 53.6341 13.354 53.3303C13.354 53.0265 13.4557 52.7805 13.6591 52.5924C13.8626 52.3899 14.1096 52.2886 14.4147 52.2886C14.6036 52.2886 14.778 52.332 14.9233 52.4043C15.0686 52.4911 15.1849 52.6069 15.2575 52.7516L13.6882 53.6775C13.7608 53.8222 13.8626 53.938 13.9933 54.0103C14.1241 54.0827 14.2694 54.1261 14.4293 54.1261C14.56 54.1261 14.6763 54.0971 14.8071 54.0537C14.9378 53.9958 15.0686 53.909 15.2285 53.7933V54.0827L15.2139 54.0971ZM13.601 53.5039L14.9233 52.7226C14.9233 52.7226 14.7925 52.5924 14.7054 52.5635C14.6182 52.5345 14.5165 52.5056 14.4147 52.5056C14.1822 52.5056 13.9933 52.578 13.8335 52.7371C13.6737 52.8963 13.5865 53.0843 13.5865 53.3158C13.5865 53.3592 13.5865 53.3882 13.5865 53.4171C13.5865 53.4461 13.5865 53.475 13.5865 53.5039" fill="white"/>
<path d="M17.3206 53.9378C17.2189 54.0825 17.0881 54.1838 16.9574 54.2706C16.8121 54.3429 16.6667 54.3863 16.4924 54.3863C16.1872 54.3863 15.9402 54.2851 15.7368 54.0825C15.5333 53.88 15.4316 53.634 15.4316 53.3302C15.4316 53.0263 15.5333 52.7948 15.7368 52.5923C15.9402 52.3897 16.1872 52.2884 16.4924 52.2884C16.6667 52.2884 16.8266 52.3318 16.9574 52.4042C17.1027 52.4765 17.2189 52.5923 17.3206 52.737V51.5216L17.5386 51.4927V54.3285L17.3206 54.3574V53.9378ZM15.6641 53.3302C15.6641 53.5616 15.7368 53.7497 15.9111 53.9089C16.071 54.068 16.2744 54.1548 16.4924 54.1548C16.7103 54.1548 16.9138 54.0825 17.0736 53.9089C17.2335 53.7497 17.3206 53.5616 17.3206 53.3302C17.3206 53.0987 17.2335 52.9106 17.0736 52.7514C16.9138 52.5923 16.7103 52.5055 16.4924 52.5055C16.2744 52.5055 16.071 52.5923 15.9111 52.7514C15.7513 52.9106 15.6641 53.0987 15.6641 53.3302Z" fill="white"/>
<path d="M18.9917 53.3009V51.5358L19.2242 51.5068V52.7367C19.3259 52.592 19.4567 52.4907 19.5875 52.4039C19.7328 52.3315 19.8781 52.2881 20.0525 52.2881C20.3576 52.2881 20.6046 52.3894 20.8081 52.592C21.0115 52.7945 21.1132 53.0405 21.1132 53.3299C21.1132 53.6192 21.0115 53.8796 20.8081 54.0822C20.6046 54.2848 20.3576 54.386 20.0525 54.386C19.7473 54.386 19.4858 54.2848 19.2969 54.0822C19.0934 53.8796 19.0063 53.6192 19.0063 53.3009M19.2387 53.3299C19.2387 53.5613 19.3114 53.7639 19.4858 53.9086C19.6456 54.0677 19.849 54.1401 20.0815 54.1401C20.314 54.1401 20.5029 54.0677 20.6628 53.8941C20.8226 53.735 20.9098 53.5469 20.9098 53.3154C20.9098 53.0839 20.8226 52.8958 20.6628 52.7367C20.5029 52.5775 20.2995 52.4907 20.0815 52.4907C19.8636 52.4907 19.6601 52.5775 19.5003 52.7367C19.3405 52.8958 19.2533 53.0839 19.2533 53.3154" fill="white"/>
<path d="M21.7381 55.0665L21.5056 55.0086L22.0142 53.9958L21.1133 52.3609L21.3313 52.2886L22.145 53.7499L22.8715 52.2886L23.075 52.3465L21.7381 55.0665Z" fill="white"/>
<path d="M24.8043 54.372V51.8256H24.0342L24.1068 51.5796H25.7488V51.8256H25.0513V54.3286L24.8043 54.372Z" fill="white"/>
<path d="M25.9956 54.3574V51.5216L26.2136 51.4927V52.6357C26.3007 52.5055 26.4025 52.4187 26.5042 52.3608C26.6059 52.3029 26.7367 52.274 26.8674 52.274C27.0854 52.274 27.2598 52.3463 27.376 52.4765C27.4923 52.6067 27.5649 52.7948 27.5649 53.0408V54.314L27.347 54.3429V53.1565C27.347 52.925 27.3034 52.7514 27.2162 52.6357C27.129 52.5199 26.9982 52.4621 26.8093 52.4621C26.6495 52.4621 26.5042 52.5199 26.3879 52.6357C26.2717 52.7514 26.2136 52.8961 26.2136 53.0697V54.314L25.9956 54.3429V54.3574Z" fill="white"/>
<path d="M29.7447 54.0971C29.6139 54.1984 29.4832 54.2707 29.3524 54.3141C29.2216 54.3576 29.0908 54.3865 28.9455 54.3865C28.6404 54.3865 28.3788 54.2852 28.1899 54.0827C27.9865 53.8801 27.8848 53.6341 27.8848 53.3303C27.8848 53.0265 27.9865 52.7805 28.1899 52.5924C28.3933 52.3899 28.6404 52.2886 28.9455 52.2886C29.1344 52.2886 29.3088 52.332 29.4541 52.4043C29.5994 52.4911 29.7157 52.6069 29.7883 52.7516L28.219 53.6775C28.2916 53.8222 28.3933 53.938 28.5241 54.0103C28.6549 54.0827 28.8002 54.1261 28.9601 54.1261C29.0908 54.1261 29.2071 54.0971 29.3379 54.0537C29.4686 53.9958 29.5994 53.909 29.7592 53.7933V54.0827L29.7447 54.0971ZM28.1318 53.5039L29.4541 52.7226C29.4541 52.7226 29.3233 52.5924 29.2361 52.5635C29.149 52.5345 29.0472 52.5056 28.9455 52.5056C28.713 52.5056 28.5241 52.578 28.3643 52.7371C28.2044 52.8963 28.1173 53.0843 28.1173 53.3158C28.1173 53.3592 28.1173 53.3882 28.1173 53.4171C28.1173 53.4461 28.1173 53.475 28.1173 53.5039" fill="white"/>
<path d="M31.1543 54.3717V51.5793L31.4014 51.5503V52.8091H32.9707V51.5793L33.2177 51.5503V54.3283L32.9707 54.3717V53.0406H31.4014V54.3283L31.1543 54.3717Z" fill="white"/>
<path d="M33.5518 53.3303C33.5518 53.0409 33.6535 52.795 33.857 52.5924C34.0604 52.3899 34.3074 52.2886 34.6126 52.2886C34.9177 52.2886 35.1647 52.3899 35.3682 52.5924C35.5716 52.795 35.6733 53.0409 35.6733 53.3303C35.6733 53.6197 35.5716 53.8801 35.3682 54.0827C35.1647 54.2852 34.9177 54.3865 34.6126 54.3865C34.3074 54.3865 34.0604 54.2852 33.857 54.0827C33.6535 53.8801 33.5518 53.6341 33.5518 53.3303ZM33.7843 53.3303C33.7843 53.5618 33.8715 53.7499 34.0313 53.909C34.1912 54.0682 34.3946 54.155 34.6126 54.155C34.8305 54.155 35.034 54.0827 35.1938 53.909C35.3536 53.7499 35.4408 53.5618 35.4408 53.3303C35.4408 53.0988 35.3536 52.9107 35.1938 52.7516C35.034 52.5924 34.8305 52.5056 34.6126 52.5056C34.3946 52.5056 34.1912 52.5924 34.0313 52.7516C33.8715 52.9107 33.7843 53.0988 33.7843 53.3303Z" fill="white"/>
<path d="M35.9932 54.3576V52.332L36.2112 52.3031V52.6503C36.2984 52.5201 36.4001 52.4333 36.5018 52.3754C36.6035 52.3175 36.7343 52.2886 36.8651 52.2886C37.0831 52.2886 37.2574 52.3609 37.3882 52.4911C37.5045 52.6214 37.5771 52.8094 37.5771 53.0554V54.3286L37.3591 54.3576V53.1712C37.3591 52.9397 37.3156 52.766 37.2284 52.6503C37.1412 52.5346 37.0104 52.4767 36.8215 52.4767C36.6617 52.4767 36.5164 52.5346 36.4001 52.6503C36.2839 52.766 36.2257 52.9107 36.2257 53.0843V54.3286L36.0078 54.3576H35.9932Z" fill="white"/>
<path d="M39.117 53.6339C39.2623 53.7062 39.3786 53.793 39.4658 53.9088C39.5529 54.0245 39.582 54.1547 39.582 54.3139C39.582 54.5309 39.4948 54.719 39.3205 54.8637C39.1461 55.0083 38.9281 55.0807 38.6666 55.0807C38.4777 55.0807 38.3033 55.0373 38.158 54.9505C37.9981 54.8637 37.8674 54.7479 37.7656 54.5743L37.9691 54.4441C38.0563 54.5743 38.158 54.6756 38.2742 54.7479C38.3905 54.8203 38.5213 54.8492 38.6666 54.8492C38.8555 54.8492 39.0153 54.7913 39.1461 54.69C39.2769 54.5888 39.3495 54.4586 39.3495 54.2994C39.3495 54.1403 39.2769 53.9956 39.1461 53.8943C39.0153 53.793 38.8555 53.7207 38.6666 53.7207C38.5939 53.7207 38.5067 53.7207 38.4195 53.7496C38.3324 53.7641 38.2452 53.8075 38.1435 53.8509L38.2452 53.6049C38.1289 53.5326 38.0272 53.4458 37.9691 53.3445C37.911 53.2432 37.8674 53.1275 37.8674 52.9973C37.8674 52.7947 37.9545 52.6211 38.0999 52.4909C38.2597 52.3607 38.4486 52.2883 38.6811 52.2883C38.7102 52.2883 38.7537 52.2883 38.7973 52.2883C38.8409 52.2883 38.8845 52.2883 38.9281 52.2883C38.9281 52.2883 38.9426 52.2883 38.9572 52.2883H39.0008C39.0008 52.2883 39.1461 52.2883 39.2478 52.2738C39.335 52.2594 39.4658 52.2304 39.6256 52.187L39.582 52.3462C39.582 52.3462 39.5529 52.4185 39.5239 52.433C39.5094 52.4475 39.4803 52.4619 39.4367 52.4619C39.4076 52.4619 39.3495 52.4619 39.2623 52.433C39.2478 52.433 39.2187 52.433 39.2187 52.433C39.3205 52.4909 39.4076 52.5777 39.4658 52.6645C39.5239 52.7513 39.5529 52.867 39.5529 52.9828C39.5529 53.1275 39.5094 53.2432 39.4367 53.359C39.364 53.4747 39.2478 53.5615 39.1025 53.6194M38.0999 52.9828C38.0999 53.1275 38.158 53.2577 38.2742 53.359C38.3905 53.4602 38.5358 53.5036 38.7102 53.5036C38.8845 53.5036 39.0298 53.4602 39.1461 53.359C39.2623 53.2577 39.3205 53.1419 39.3205 52.9828C39.3205 52.8381 39.2623 52.7224 39.1461 52.6355C39.0298 52.5343 38.8845 52.4909 38.7102 52.4909C38.5358 52.4909 38.3905 52.5343 38.2742 52.6355C38.158 52.7368 38.0999 52.8526 38.0999 52.9828Z" fill="white"/>
<path d="M41.0498 54.3717V51.5937L41.2969 51.5503V54.3427L41.0498 54.3717ZM41.2969 52.867L42.4593 51.5503L42.6918 51.6371L41.602 52.867L42.779 54.2559L42.5756 54.3861L41.2969 52.867Z" fill="white"/>
<path d="M42.7642 53.3303C42.7642 53.0409 42.866 52.795 43.0694 52.5924C43.2728 52.3899 43.5198 52.2886 43.825 52.2886C44.1301 52.2886 44.3772 52.3899 44.5806 52.5924C44.784 52.795 44.8857 53.0409 44.8857 53.3303C44.8857 53.6197 44.784 53.8801 44.5806 54.0827C44.3772 54.2852 44.1301 54.3865 43.825 54.3865C43.5198 54.3865 43.2728 54.2852 43.0694 54.0827C42.866 53.8801 42.7642 53.6341 42.7642 53.3303ZM42.9967 53.3303C42.9967 53.5618 43.0839 53.7499 43.2438 53.909C43.4036 54.0682 43.607 54.155 43.825 54.155C44.043 54.155 44.2464 54.0827 44.4062 53.909C44.5661 53.7499 44.6533 53.5618 44.6533 53.3303C44.6533 53.0988 44.5661 52.9107 44.4062 52.7516C44.2464 52.5924 44.043 52.5056 43.825 52.5056C43.607 52.5056 43.4036 52.5924 43.2438 52.7516C43.0839 52.9107 42.9967 53.0988 42.9967 53.3303Z" fill="white"/>
<path d="M45.2056 54.3576V52.332L45.4235 52.3031V52.6503C45.5107 52.5201 45.6124 52.4333 45.7141 52.3754C45.8159 52.3175 45.9466 52.2886 46.0774 52.2886C46.2954 52.2886 46.4698 52.3609 46.6005 52.4911C46.7168 52.6214 46.7894 52.8094 46.7894 53.0554V54.3286L46.5715 54.3576V53.1712C46.5715 52.9397 46.5279 52.766 46.4407 52.6503C46.3535 52.5346 46.2227 52.4767 46.0338 52.4767C45.874 52.4767 45.7287 52.5346 45.6124 52.6503C45.4962 52.766 45.4381 52.9107 45.4381 53.0843V54.3286L45.2201 54.3576H45.2056Z" fill="white"/>
<path d="M48.3299 53.6339C48.4752 53.7062 48.5915 53.793 48.6786 53.9088C48.7658 54.0245 48.7949 54.1547 48.7949 54.3139C48.7949 54.5309 48.7077 54.719 48.5333 54.8637C48.359 55.0083 48.141 55.0807 47.8794 55.0807C47.6905 55.0807 47.5162 55.0373 47.3709 54.9505C47.211 54.8637 47.0802 54.7479 46.9785 54.5743L47.182 54.4441C47.2691 54.5743 47.3709 54.6756 47.4871 54.7479C47.6034 54.8203 47.7341 54.8492 47.8794 54.8492C48.0683 54.8492 48.2282 54.7913 48.359 54.69C48.4897 54.5888 48.5624 54.4586 48.5624 54.2994C48.5624 54.1403 48.4897 53.9956 48.359 53.8943C48.2282 53.7785 48.0683 53.7207 47.8794 53.7207C47.8068 53.7207 47.7196 53.7207 47.6324 53.7496C47.5452 53.7641 47.4581 53.8075 47.3563 53.8509L47.4581 53.6049C47.3418 53.5326 47.2401 53.4458 47.182 53.3445C47.1238 53.2432 47.0802 53.1275 47.0802 52.9973C47.0802 52.7947 47.1529 52.6211 47.3127 52.4909C47.4726 52.3607 47.6615 52.2883 47.894 52.2883C47.923 52.2883 47.9666 52.2883 48.0102 52.2883C48.0538 52.2883 48.0974 52.2883 48.141 52.2883C48.141 52.2883 48.1555 52.2883 48.1701 52.2883H48.2137C48.2137 52.2883 48.359 52.2883 48.4607 52.2738C48.5479 52.2594 48.6786 52.2304 48.8385 52.187L48.7804 52.3462C48.7804 52.3462 48.7513 52.4185 48.7222 52.433C48.7077 52.4475 48.6786 52.4619 48.6351 52.4619C48.606 52.4619 48.5479 52.4619 48.4607 52.433C48.4462 52.433 48.4316 52.433 48.4171 52.433C48.5188 52.4909 48.606 52.5777 48.6641 52.6645C48.7222 52.7513 48.7513 52.867 48.7513 52.9828C48.7513 53.1275 48.7077 53.2432 48.6351 53.359C48.5624 53.4747 48.4462 53.5615 48.3008 53.6194M47.2982 52.9828C47.2982 53.1275 47.3563 53.2577 47.4726 53.359C47.5888 53.4602 47.7341 53.5036 47.9085 53.5036C48.0829 53.5036 48.2282 53.4602 48.3444 53.359C48.4607 53.2577 48.5188 53.1419 48.5188 52.9828C48.5188 52.8381 48.4607 52.7224 48.3444 52.6355C48.2282 52.5343 48.0829 52.4909 47.9085 52.4909C47.7341 52.4909 47.6034 52.5343 47.4726 52.6355C47.3563 52.7368 47.2982 52.8526 47.2982 52.9828Z" fill="white"/>
<path d="M52.1222 54.2851C52.035 54.3285 51.9478 54.343 51.8606 54.3719C51.7734 54.3864 51.6862 54.4008 51.5845 54.4008C51.4101 54.4008 51.2503 54.3719 51.105 54.3285C50.9597 54.2851 50.8144 54.1983 50.6981 54.1115C50.5238 53.9812 50.393 53.8076 50.2913 53.6051C50.1895 53.4025 50.146 53.2 50.146 52.9685C50.146 52.737 50.1895 52.5344 50.2913 52.3319C50.393 52.1293 50.5238 51.9557 50.6981 51.8255C50.8289 51.7242 50.9597 51.6519 51.1195 51.6085C51.2648 51.565 51.4247 51.5361 51.599 51.5361C51.6862 51.5361 51.7734 51.5361 51.8606 51.565C51.9478 51.5795 52.035 51.6085 52.1222 51.6374L52.1803 51.9412C52.0931 51.8833 52.0059 51.8399 51.9042 51.811C51.8025 51.7821 51.7008 51.7676 51.599 51.7676C51.2648 51.7676 50.9742 51.8833 50.7563 52.1148C50.5238 52.3463 50.4075 52.6357 50.4075 52.9685C50.4075 53.3012 50.5238 53.6051 50.7563 53.8366C50.9887 54.0681 51.2648 54.1838 51.599 54.1838C51.7008 54.1838 51.7879 54.1838 51.8897 54.1404C51.9914 54.1115 52.0786 54.0681 52.1948 54.0102L52.1512 54.2996L52.1222 54.2851Z" fill="white"/>
<path d="M52.4131 53.3303C52.4131 53.0409 52.5148 52.795 52.7182 52.5924C52.9217 52.3899 53.1832 52.2886 53.4739 52.2886C53.7645 52.2886 54.026 52.3899 54.2295 52.5924C54.4329 52.795 54.5346 53.0409 54.5346 53.3303C54.5346 53.6197 54.4329 53.8801 54.2295 54.0827C54.026 54.2852 53.779 54.3865 53.4739 54.3865C53.1687 54.3865 52.9217 54.2852 52.7182 54.0827C52.5148 53.8801 52.4131 53.6341 52.4131 53.3303ZM52.6456 53.3303C52.6456 53.5618 52.7328 53.7499 52.8926 53.909C53.0525 54.0682 53.2559 54.155 53.4739 54.155C53.6918 54.155 53.8952 54.0827 54.0551 53.909C54.2149 53.7499 54.3021 53.5618 54.3021 53.3303C54.3021 53.0988 54.2149 52.9107 54.0551 52.7516C53.8952 52.5924 53.6918 52.5056 53.4739 52.5056C53.2559 52.5056 53.0525 52.5924 52.8926 52.7516C52.7328 52.9107 52.6456 53.0988 52.6456 53.3303Z" fill="white"/>
<path d="M56.2053 54.0244C56.1181 54.1402 56.0309 54.2414 55.9147 54.2993C55.8129 54.3572 55.6822 54.3861 55.5514 54.3861C55.3334 54.3861 55.1591 54.3138 55.0283 54.1836C54.8975 54.0389 54.8394 53.8508 54.8394 53.6048V52.3316L55.0573 52.3027V53.5036C55.0573 53.7351 55.1009 53.9087 55.1881 54.0244C55.2753 54.1402 55.4061 54.198 55.5805 54.198C55.7403 54.198 55.8856 54.1402 56.0018 54.0244C56.1181 53.9087 56.1762 53.764 56.1762 53.5904V52.3461L56.3942 52.3172V54.3427L56.1762 54.3717V54.0389L56.2053 54.0244Z" fill="white"/>
<path d="M56.8159 54.3576V52.332L57.0339 52.3031V52.6503C57.121 52.5201 57.2228 52.4333 57.3245 52.3754C57.4262 52.3175 57.557 52.2886 57.6877 52.2886C57.9057 52.2886 58.0801 52.3609 58.2109 52.4911C58.3271 52.6214 58.3998 52.8094 58.3998 53.0554V54.3286L58.1818 54.3576V53.1712C58.1818 52.9397 58.1382 52.766 58.051 52.6503C57.9638 52.5346 57.8331 52.4767 57.6442 52.4767C57.4843 52.4767 57.339 52.5346 57.2228 52.6503C57.1065 52.766 57.0484 52.9107 57.0484 53.0843V54.3286L56.8304 54.3576H56.8159Z" fill="white"/>
<path d="M60.521 54.1257C60.4047 54.198 60.2885 54.2704 60.1577 54.3138C60.0269 54.3572 59.8962 54.3861 59.7654 54.3861C59.4602 54.3861 59.2132 54.2848 59.0098 54.0823C58.8063 53.8797 58.7046 53.6338 58.7046 53.3299C58.7046 53.0261 58.8063 52.7801 59.0098 52.5921C59.2132 52.3895 59.4602 52.3027 59.7654 52.3027C59.9107 52.3027 60.0415 52.3172 60.1577 52.3606C60.274 52.3895 60.3902 52.4618 60.5065 52.5342L60.3612 52.7078C60.2594 52.6355 60.1577 52.5921 60.0705 52.5631C59.9834 52.5342 59.8816 52.5197 59.7799 52.5197C59.5474 52.5197 59.3585 52.6065 59.1842 52.7657C59.0243 52.9248 58.9371 53.1129 58.9371 53.3444C58.9371 53.5759 59.0243 53.764 59.1842 53.9231C59.344 54.0823 59.5474 54.1691 59.7799 54.1691C59.8816 54.1691 59.9834 54.1546 60.0851 54.1112C60.1868 54.0823 60.2885 54.0244 60.3902 53.9666L60.5355 54.1402L60.521 54.1257Z" fill="white"/>
<path d="M60.812 51.7094L60.9863 51.5068L61.1607 51.6949L60.9863 51.8975L60.812 51.7094ZM60.8701 54.3716V52.346L61.1026 52.3171V54.3426L60.8701 54.3716Z" fill="white"/>
<path d="M61.582 54.3719V51.5361L61.8145 51.4927V54.3285L61.582 54.3719Z" fill="white"/>
<path d="M63.2241 53.3303C63.2241 53.0409 63.3258 52.795 63.5292 52.5924C63.7327 52.3899 63.9797 52.2886 64.2848 52.2886C64.59 52.2886 64.837 52.3899 65.0404 52.5924C65.2439 52.795 65.3456 53.0409 65.3456 53.3303C65.3456 53.6197 65.2439 53.8801 65.0404 54.0827C64.837 54.2852 64.59 54.3865 64.2848 54.3865C63.9797 54.3865 63.7327 54.2852 63.5292 54.0827C63.3258 53.8801 63.2241 53.6341 63.2241 53.3303ZM63.4566 53.3303C63.4566 53.5618 63.5438 53.7499 63.7036 53.909C63.8634 54.0682 64.0669 54.155 64.2848 54.155C64.5028 54.155 64.7062 54.0827 64.8661 53.909C65.0259 53.7499 65.1131 53.5618 65.1131 53.3303C65.1131 53.0988 65.0259 52.9107 64.8661 52.7516C64.7062 52.5924 64.5028 52.5056 64.2848 52.5056C64.0669 52.5056 63.8634 52.5924 63.7036 52.7516C63.5438 52.9107 63.4566 53.0988 63.4566 53.3303Z" fill="white"/>
<path d="M65.7813 54.3572V52.5486H65.4907L65.5488 52.3316H65.7813C65.7813 52.3316 65.7813 52.3027 65.7813 52.2882C65.7813 52.2593 65.7813 52.2448 65.7813 52.2448C65.7813 51.9844 65.8394 51.7818 65.9556 51.6661C66.0719 51.5503 66.2463 51.478 66.4933 51.478H66.5659L66.6241 51.6805C66.6241 51.6805 66.595 51.6805 66.5805 51.6805C66.5659 51.6805 66.5514 51.6805 66.5369 51.6805C66.348 51.6805 66.2172 51.7239 66.13 51.8107C66.0428 51.8976 65.9992 52.0422 65.9992 52.2303C65.9992 52.2593 65.9992 52.2737 65.9992 52.2882C65.9992 52.3027 65.9992 52.3171 65.9992 52.3316H66.5224V52.5486H65.9992V54.3282L65.7813 54.3572Z" fill="white"/>
<path d="M67.874 53.7642C67.9612 53.8944 68.0484 53.9957 68.1646 54.0681C68.2808 54.1404 68.3971 54.1693 68.5424 54.1693C68.7168 54.1693 68.8621 54.1115 68.9783 54.0102C69.0946 53.9089 69.1527 53.7787 69.1527 53.6195C69.1527 53.3591 68.9347 53.171 68.4988 53.0263C68.4552 53.0263 68.4116 53.0119 68.3971 52.9974C68.1791 52.9251 68.0048 52.8383 67.903 52.7225C67.8013 52.6068 67.7432 52.4621 67.7432 52.274C67.7432 52.057 67.8159 51.8833 67.9757 51.7531C68.1355 51.6084 68.3244 51.5361 68.5715 51.5361C68.7168 51.5361 68.8475 51.565 68.9638 51.6085C69.08 51.6519 69.1963 51.7387 69.3125 51.8544L69.1527 52.0425C69.051 51.9412 68.9493 51.8689 68.8475 51.8255C68.7604 51.7821 68.6586 51.7676 68.5424 51.7676C68.3826 51.7676 68.2518 51.811 68.1501 51.9123C68.0483 52.0136 67.9902 52.1293 67.9902 52.274C67.9902 52.3608 68.0048 52.4476 68.0483 52.5055C68.0919 52.5778 68.1501 52.6212 68.2373 52.6791C68.2954 52.7225 68.4116 52.7514 68.586 52.8093C68.6732 52.8383 68.7458 52.8527 68.804 52.8672C69.0074 52.9395 69.1672 53.0263 69.2689 53.1566C69.3707 53.2723 69.4288 53.4315 69.4288 53.5906C69.4288 53.8221 69.3416 54.0102 69.1818 54.1693C69.0219 54.314 68.804 54.4008 68.5569 54.4008C68.3826 54.4008 68.2227 54.3574 68.0629 54.2706C67.9176 54.1838 67.7868 54.0681 67.6851 53.9089L67.874 53.7642Z" fill="white"/>
<path d="M69.6465 53.3303C69.6465 53.0409 69.7482 52.795 69.9516 52.5924C70.1551 52.3899 70.4166 52.2886 70.7072 52.2886C70.9979 52.2886 71.2594 52.3899 71.4628 52.5924C71.6663 52.795 71.768 53.0409 71.768 53.3303C71.768 53.6197 71.6663 53.8801 71.4628 54.0827C71.2594 54.2852 71.0124 54.3865 70.7072 54.3865C70.4021 54.3865 70.1551 54.2852 69.9516 54.0827C69.7482 53.8801 69.6465 53.6341 69.6465 53.3303ZM69.879 53.3303C69.879 53.5618 69.9662 53.7499 70.126 53.909C70.2858 54.0682 70.4893 54.155 70.7072 54.155C70.9252 54.155 71.1286 54.0827 71.2885 53.909C71.4483 53.7499 71.5355 53.5618 71.5355 53.3303C71.5355 53.0988 71.4483 52.9107 71.2885 52.7516C71.1286 52.5924 70.9252 52.5056 70.7072 52.5056C70.4893 52.5056 70.2858 52.5924 70.126 52.7516C69.9662 52.9107 69.879 53.0988 69.879 53.3303Z" fill="white"/>
<path d="M73.8022 54.1257C73.6859 54.198 73.5697 54.2704 73.4389 54.3138C73.3081 54.3572 73.1774 54.3861 73.0466 54.3861C72.7414 54.3861 72.4944 54.2848 72.291 54.0823C72.0875 53.8797 71.9858 53.6338 71.9858 53.3299C71.9858 53.0261 72.0875 52.7801 72.291 52.5921C72.4944 52.3895 72.7414 52.3027 73.0466 52.3027C73.1919 52.3027 73.3227 52.3172 73.4389 52.3606C73.5552 52.3895 73.6714 52.4618 73.7877 52.5342L73.6423 52.7078C73.5406 52.6355 73.4534 52.5921 73.3517 52.5631C73.25 52.5342 73.1628 52.5197 73.0611 52.5197C72.8286 52.5197 72.6397 52.6065 72.4653 52.7657C72.3055 52.9248 72.2183 53.1129 72.2183 53.3444C72.2183 53.5759 72.3055 53.764 72.4653 53.9231C72.6252 54.0823 72.8286 54.1691 73.0611 54.1691C73.1628 54.1691 73.25 54.1546 73.3663 54.1112C73.468 54.0823 73.5697 54.0244 73.6714 53.9666L73.8167 54.1402L73.8022 54.1257Z" fill="white"/>
<path d="M74.0928 51.7094L74.2671 51.5068L74.4415 51.6949L74.2671 51.8975L74.0928 51.7094ZM74.1509 54.3716V52.346L74.3834 52.3171V54.3426L74.1509 54.3716Z" fill="white"/>
<path d="M75.9819 54.1257C75.9092 54.2125 75.8366 54.2704 75.7348 54.3138C75.6477 54.3572 75.5459 54.3717 75.4442 54.3717C75.2408 54.3717 75.0664 54.2994 74.9211 54.1547C74.7758 54.01 74.7031 53.8364 74.7031 53.6338C74.7031 53.4313 74.7758 53.2576 74.9211 53.113C75.0664 52.9683 75.2408 52.8959 75.4442 52.8959C75.5459 52.8959 75.6477 52.9104 75.7348 52.9538C75.822 52.9972 75.9092 53.0551 75.9819 53.1274V52.867C75.9819 52.7223 75.9528 52.621 75.8801 52.5632C75.8075 52.5053 75.7058 52.4619 75.5605 52.4619C75.4733 52.4619 75.3861 52.4619 75.2699 52.5053C75.1681 52.5342 75.0519 52.5632 74.9211 52.621L75.0083 52.3606C75.11 52.3317 75.1972 52.3027 75.2989 52.2883C75.3861 52.2738 75.4878 52.2593 75.575 52.2593C75.793 52.2593 75.9528 52.3027 76.0545 52.404C76.1562 52.5053 76.2144 52.6644 76.2144 52.8959V54.3138L75.9819 54.3572V54.1113V54.1257ZM74.9356 53.6483C74.9356 53.793 74.9938 53.9087 75.0809 54.01C75.1681 54.1113 75.3134 54.1547 75.4587 54.1547C75.6041 54.1547 75.7348 54.1113 75.8366 54.01C75.9383 53.9087 75.9819 53.793 75.9819 53.6338C75.9819 53.4747 75.9383 53.3589 75.8366 53.2576C75.7348 53.1564 75.6186 53.113 75.4733 53.113C75.328 53.113 75.1827 53.1564 75.0809 53.2576C74.9792 53.3589 74.9356 53.4747 74.9356 53.6338" fill="white"/>
<path d="M76.6504 54.3719V51.5361L76.8829 51.4927V54.3285L76.6504 54.3719Z" fill="white"/>
<path d="M78.5102 53.7642C78.5974 53.8944 78.6846 53.9957 78.8008 54.0681C78.9171 54.1404 79.0333 54.1693 79.1786 54.1693C79.353 54.1693 79.4983 54.1115 79.6291 54.0102C79.7453 53.9089 79.8035 53.7787 79.8035 53.6195C79.8035 53.3591 79.5855 53.171 79.135 53.0263C79.0914 53.0263 79.0624 53.0119 79.0333 52.9974C78.8154 52.9251 78.641 52.8383 78.5393 52.7225C78.4376 52.6068 78.3794 52.4621 78.3794 52.274C78.3794 52.057 78.4521 51.8833 78.6119 51.7531C78.7718 51.6084 78.9607 51.5361 79.2077 51.5361C79.353 51.5361 79.4838 51.565 79.6 51.6085C79.7163 51.6519 79.8325 51.7387 79.9488 51.8544L79.7889 52.0425C79.6872 51.9412 79.5855 51.8689 79.4838 51.8255C79.3966 51.7821 79.2949 51.7676 79.1786 51.7676C79.0188 51.7676 78.888 51.811 78.7863 51.9123C78.6846 52.0136 78.6265 52.1293 78.6265 52.274C78.6265 52.3608 78.641 52.4476 78.6846 52.5055C78.7282 52.5778 78.7863 52.6212 78.8735 52.6791C78.9316 52.7225 79.0479 52.7514 79.2222 52.8093C79.3094 52.8383 79.3821 52.8527 79.4402 52.8672C79.6436 52.9395 79.7889 53.0263 79.8906 53.1566C79.9924 53.2723 80.0505 53.4315 80.0505 53.5906C80.0505 53.8221 79.9633 54.0102 79.8035 54.1693C79.6436 54.314 79.4257 54.4008 79.1786 54.4008C79.0043 54.4008 78.8444 54.3574 78.6991 54.2706C78.5538 54.1838 78.423 54.0681 78.3213 53.9089L78.5102 53.7642Z" fill="white"/>
<path d="M82.1431 54.0971C82.0124 54.1984 81.8816 54.2707 81.7508 54.3141C81.62 54.3576 81.4892 54.3865 81.3439 54.3865C81.0388 54.3865 80.7918 54.2852 80.5883 54.0827C80.3849 53.8801 80.2832 53.6341 80.2832 53.3303C80.2832 53.0265 80.3849 52.7805 80.5883 52.5924C80.7918 52.3899 81.0388 52.2886 81.3439 52.2886C81.5328 52.2886 81.7072 52.332 81.8525 52.4043C81.9978 52.4911 82.1141 52.6069 82.1867 52.7516L80.6174 53.6775C80.69 53.8222 80.7918 53.938 80.9225 54.0103C81.0533 54.0827 81.1986 54.1261 81.3585 54.1261C81.4892 54.1261 81.6055 54.0971 81.7363 54.0537C81.867 53.9958 81.9978 53.909 82.1577 53.7933V54.0827L82.1431 54.0971ZM80.5302 53.5039L81.8525 52.7226C81.8525 52.7226 81.7217 52.5924 81.6345 52.5635C81.5474 52.5345 81.4457 52.5056 81.3439 52.5056C81.1114 52.5056 80.9225 52.578 80.7627 52.7371C80.6029 52.8963 80.5157 53.0843 80.5157 53.3158C80.5157 53.3592 80.5157 53.3882 80.5157 53.4171C80.5157 53.4461 80.5157 53.475 80.5157 53.5039" fill="white"/>
<path d="M82.4629 54.3574V52.3318L82.6808 52.3029V52.7369C82.768 52.5778 82.8552 52.462 82.986 52.3897C83.1022 52.3029 83.2475 52.2739 83.3928 52.2739H83.451L83.3492 52.491C83.1168 52.5054 82.9569 52.6067 82.8407 52.7948C82.7244 52.9829 82.6808 53.2288 82.6808 53.5761V54.3284L82.4629 54.3574Z" fill="white"/>
<path d="M84.3808 54.372L83.4072 52.3609L83.6397 52.2886L84.3808 53.8656L85.1219 52.2886L85.3398 52.3465L84.3808 54.372Z" fill="white"/>
<path d="M85.4414 51.7094L85.6158 51.5068L85.7902 51.6949L85.6158 51.8975L85.4414 51.7094ZM85.4996 54.3716V52.346L85.732 52.3171V54.3426L85.4996 54.3716Z" fill="white"/>
<path d="M87.8829 54.1257C87.7667 54.198 87.6504 54.2704 87.5196 54.3138C87.3889 54.3572 87.2581 54.3861 87.1418 54.3861C86.8367 54.3861 86.5897 54.2848 86.3862 54.0823C86.1828 53.8797 86.0811 53.6338 86.0811 53.3299C86.0811 53.0261 86.1828 52.7801 86.3862 52.5921C86.5897 52.3895 86.8512 52.3027 87.1418 52.3027C87.2871 52.3027 87.4178 52.3172 87.5341 52.3606C87.6503 52.3895 87.7667 52.4618 87.8829 52.5342L87.7375 52.7078C87.6358 52.6355 87.5487 52.5921 87.447 52.5631C87.3598 52.5342 87.258 52.5197 87.1563 52.5197C86.9238 52.5197 86.735 52.6065 86.5751 52.7657C86.4153 52.9248 86.3281 53.1129 86.3281 53.3444C86.3281 53.5759 86.4153 53.764 86.5751 53.9231C86.735 54.0823 86.9383 54.1691 87.1563 54.1691C87.258 54.1691 87.3598 54.1546 87.4615 54.1112C87.5632 54.0823 87.6649 54.0244 87.7667 53.9666L87.9119 54.1402L87.8829 54.1257Z" fill="white"/>
<path d="M89.9752 54.0971C89.8444 54.1984 89.7136 54.2707 89.5829 54.3141C89.4521 54.3576 89.3213 54.3865 89.176 54.3865C88.8708 54.3865 88.6238 54.2852 88.4204 54.0827C88.2169 53.8801 88.1152 53.6341 88.1152 53.3303C88.1152 53.0265 88.2169 52.7805 88.4204 52.5924C88.6238 52.3899 88.8708 52.2886 89.176 52.2886C89.3649 52.2886 89.5393 52.332 89.6846 52.4043C89.8299 52.4911 89.9461 52.6069 90.0188 52.7516L88.4494 53.6775C88.5221 53.8222 88.6238 53.938 88.7546 54.0103C88.8854 54.0827 89.0307 54.1261 89.1905 54.1261C89.3213 54.1261 89.4521 54.0971 89.5683 54.0537C89.6991 53.9958 89.8299 53.909 89.9897 53.7933V54.0827L89.9752 54.0971ZM88.3623 53.5039L89.6846 52.7226C89.6846 52.7226 89.5538 52.5924 89.4666 52.5635C89.3794 52.5345 89.2777 52.5056 89.176 52.5056C88.9435 52.5056 88.7546 52.578 88.5948 52.7371C88.4349 52.8963 88.3477 53.0843 88.3477 53.3158C88.3477 53.3592 88.3477 53.3882 88.3477 53.4171C88.3477 53.4461 88.3477 53.475 88.3477 53.5039" fill="white"/>
<path d="M45.7431 57.9744V57.0919H43.7378V56.9472H45.7431V56.325L45.9029 56.3684V56.9472H47.9227V57.0919H45.9029V57.9744H45.7431ZM45.4379 57.3668L45.5542 57.4825C45.0456 57.8442 44.4499 58.1191 43.7814 58.2927L43.7378 58.148C44.3336 58.0034 44.9003 57.7429 45.4379 57.3812M47.2252 55.8765L47.2688 56.0212C46.9201 56.108 46.4696 56.1659 45.9029 56.2093C45.3072 56.2382 44.7695 56.2527 44.29 56.2238L44.2464 56.0646C45.3653 56.1225 46.3534 56.0646 47.2252 55.8765ZM44.6387 58.2204H47.0509V59.9421H44.6387V58.2204ZM46.891 58.3651H44.7986V59.0306H46.891V58.3651ZM46.891 59.1753H44.7986V59.7974H46.891V59.1753ZM46.15 57.468L46.2662 57.3378C46.8329 57.7719 47.3996 58.0757 47.9518 58.2493L47.8937 58.394C47.2834 58.1914 46.7021 57.8876 46.15 57.4536" fill="white"/>
<path d="M48.3008 57.5258L48.3589 57.3956C48.5624 57.4824 48.7803 57.5837 48.9838 57.7139L48.9111 57.8441C48.7077 57.7284 48.5042 57.6271 48.3008 57.5258ZM48.4897 59.8841L48.3444 59.8118C48.6205 59.4212 48.8384 58.9148 49.0273 58.2637L49.1727 58.3216C49.0128 58.9003 48.7803 59.4212 48.4897 59.8841ZM49.1145 56.3249L48.9983 56.4407C48.8239 56.2815 48.6641 56.1513 48.5188 56.0356L48.6059 55.9054C48.7513 56.0356 48.9256 56.1658 49.1 56.3249M49.4487 58.5531L49.3616 58.4084C49.7975 58.1769 50.1898 57.8875 50.524 57.5258L50.6403 57.6416C50.2915 57.9888 49.8992 58.3071 49.4633 58.5531M49.5795 56.513V56.3684H50.3932V55.7173L50.5386 55.7752V56.3828H51.5267V55.7317L51.6865 55.7896V56.3973H52.5002V56.542H51.6865V57.3233H52.6601V57.4679H49.4051V57.3233H50.3787V56.542H49.565L49.5795 56.513ZM50.1462 59.4646V58.2492H51.8754V59.0884H50.3061V59.4501C50.3061 59.6237 50.3932 59.7105 50.5676 59.7105H51.9626C52.1805 59.7684 52.3404 59.5803 52.4276 59.1463H52.5729C52.4857 59.6961 52.2823 59.9275 51.9626 59.8552H50.5676C50.2915 59.8552 50.1462 59.7105 50.1462 59.4501M51.7301 58.3939H50.3061V58.9437H51.7301V58.3939ZM50.5386 57.2943H51.5267V56.513H50.5386V57.2943ZM51.4249 57.6271L51.5557 57.5113C51.9045 57.8441 52.2823 58.1335 52.7182 58.4084L52.5874 58.5241C52.1805 58.2637 51.8027 57.9743 51.4249 57.6271Z" fill="white"/>
<path d="M53.6042 57.7861L53.7495 57.8295C53.6478 58.4082 53.5025 58.958 53.2845 59.4934L53.1392 59.4355C53.3426 58.9146 53.5025 58.3648 53.6042 57.7861ZM54.0982 57.1929H53.2119V57.0482H55.1009V57.1929H54.2581V59.8551H54.0982V57.1929ZM53.3572 56.0355H54.941V56.1946H53.3572V56.0355ZM54.5487 57.8151L54.7085 57.7716C54.7521 58.2057 54.8393 58.6397 54.9701 59.0593L54.8248 59.1172C54.7085 58.6976 54.6213 58.2636 54.5487 57.8151ZM55.3624 57.3376V57.1929H56.2343V55.8618L56.3796 55.9052V57.2074H57.1933V57.3521H56.3796V59.4355H57.3677V59.5512H55.0718V59.4355H56.2343V57.3521H55.3624V57.3376Z" fill="white"/>
<path d="M62.0902 56.6142L62.0321 56.7589C61.3201 56.6142 60.6662 56.3393 60.0414 55.9487C59.9251 55.8763 59.8234 55.8763 59.7217 55.9487C59.1841 56.3538 58.5883 56.6576 57.9199 56.8891L57.8472 56.7444C58.5592 56.4985 59.1695 56.1802 59.6926 55.7751C59.8089 55.6882 59.9251 55.6882 60.0559 55.7751C60.6662 56.1802 61.3492 56.4551 62.0757 56.6142M61.7124 58.2781H58.1378V57.2653H61.7124V58.2781ZM58.3122 58.1334H59.8234V57.4244H58.3122V58.1334ZM61.3346 59.9274H58.5011V58.6687H61.3346V59.9274ZM58.6755 59.233H61.1748V58.8134H58.6755V59.233ZM61.1748 59.3921H58.6755V59.7828H61.1748V59.3921ZM59.2712 57.9164L59.1695 58.0321C59.0823 57.9453 58.9661 57.8151 58.8062 57.6415L58.9225 57.5257C59.0823 57.6993 59.1986 57.8295 59.2858 57.9164M58.908 56.7444H60.8406V56.8891H58.908V56.7444ZM59.9978 58.1334H61.5816V57.4244H59.9978V58.1334ZM60.7389 58.0466L60.6081 57.9598C60.6807 57.8585 60.7679 57.7283 60.8842 57.5546L61.0149 57.627C60.8842 57.844 60.7825 57.9887 60.7389 58.0466Z" fill="white"/>
<path d="M62.9333 58.0035V55.9346H64.241V59.5372C64.241 59.7397 64.0812 59.8555 63.7034 59.8555L63.6743 59.7108C63.9649 59.7108 64.1102 59.6529 64.0957 59.5516V56.0937H63.0786V58.0614C63.0786 58.8282 62.9768 59.4359 62.817 59.8989L62.6572 59.841C62.8461 59.378 62.9333 58.7703 62.9333 58.0325M64.0085 57.121L63.9359 57.2656C63.6598 57.0776 63.4128 56.9329 63.1657 56.8027L63.2384 56.6724C63.4709 56.7882 63.7325 56.9329 64.0085 57.1065M64.0085 58.0759L63.9359 58.2061C63.6598 58.018 63.4128 57.8733 63.1657 57.7431L63.2384 57.6129C63.5 57.7431 63.747 57.8878 64.0085 58.0759ZM66.3044 56.8316V56.0937H64.8949V59.9567H64.7205V55.949H66.4788V56.8316C66.4788 57.1499 66.2899 57.2946 65.883 57.2512L65.8394 57.1065C66.1591 57.1354 66.3189 57.0486 66.3044 56.8316ZM66.2463 57.8733H65.1419V57.7286H66.3189C66.4788 57.7286 66.5369 57.8154 66.5078 57.9891C66.3771 58.4954 66.2318 58.8861 66.0719 59.161C66.1882 59.3057 66.4061 59.4793 66.7113 59.6674C66.7403 59.6674 66.7549 59.6963 66.7694 59.7108L66.6822 59.841C66.3916 59.6384 66.1446 59.4504 65.9702 59.2767C65.8394 59.4069 65.6651 59.5516 65.418 59.7108C65.3599 59.7687 65.2873 59.8265 65.2146 59.8989L65.1274 59.7687C65.389 59.5806 65.6505 59.378 65.883 59.1465C65.6941 58.8427 65.5488 58.5099 65.4471 58.1627L65.5924 58.1193C65.7522 58.5678 65.883 58.8572 65.9847 59.0018C66.1736 58.6691 66.2899 58.3363 66.3771 57.9746C66.3771 57.9167 66.3625 57.8878 66.2899 57.8878" fill="white"/>
<path d="M67.9176 57.8441L68.0629 57.8875C67.9466 58.4662 67.7141 58.9726 67.3945 59.4211L67.2637 59.3488C67.5834 58.9003 67.8013 58.3939 67.9031 57.8441M68.1937 57.5258H67.2782V57.3811H69.1382L69.2108 57.5403C69.0655 57.6849 68.9057 57.8441 68.7313 58.0177L68.6151 57.8875C68.7313 57.8007 68.8621 57.6849 69.0074 57.5258H68.339V59.5368C68.368 59.7538 68.1937 59.8552 67.8449 59.8552L67.8013 59.6959C68.092 59.7249 68.2227 59.667 68.1937 59.5513V57.5403V57.5258ZM67.4235 56.1368V55.9921H68.833L68.9057 56.1224C68.7022 56.3683 68.4698 56.6143 68.2227 56.8747C68.2518 56.9181 68.2954 56.9615 68.3535 57.0194C68.3971 57.0483 68.4116 57.0773 68.4262 57.0773L68.3099 57.193C68.3099 57.193 68.1646 57.0628 68.0484 56.976C67.9176 56.8603 67.8304 56.759 67.7723 56.6866L67.8595 56.5998C67.9321 56.6577 68.0048 56.73 68.0919 56.8024C68.4116 56.4551 68.6151 56.2526 68.6732 56.1658H67.3799L67.4235 56.1368ZM69.2108 58.553V58.4084H70.1263V58.2491C70.1263 58.2491 70.1408 58.1045 70.1408 57.9598L70.2861 57.9888C70.2861 58.119 70.2861 58.1912 70.2716 58.2491V58.4084H71.2887C71.2597 59.0884 71.187 59.4934 71.0853 59.6236C71.0127 59.7972 70.8238 59.8841 70.5041 59.8841L70.4605 59.7393C70.7366 59.7393 70.9109 59.6959 70.9545 59.5513C71.0417 59.45 71.0998 59.1318 71.1144 58.5675H70.2571C70.1408 59.2909 69.7339 59.7105 69.0655 59.8552L69.0219 59.725C69.6177 59.5948 69.981 59.2041 70.1117 58.5675H69.2108V58.553ZM69.8793 55.8041L70.01 55.8764C69.8211 56.2237 69.5741 56.5854 69.2399 56.9326L69.1236 56.8169C69.3707 56.5709 69.6177 56.2381 69.8793 55.7896M70.9255 56.6287L71.0708 56.6866C70.94 57.0194 70.7656 57.2798 70.5767 57.4969C70.8383 57.6849 71.1434 57.8007 71.5212 57.8586L71.4922 58.0032C71.0998 57.9164 70.7656 57.7862 70.475 57.5981C70.1844 57.8007 69.8066 57.9454 69.3707 58.0032L69.3416 57.8586C69.7339 57.8152 70.0681 57.6994 70.3588 57.4969C70.1117 57.2798 69.9374 57.0193 69.8066 56.7155L69.9374 56.6432C70.0536 56.9471 70.2425 57.2075 70.4895 57.41C70.693 57.193 70.8383 56.9471 70.9545 56.6432M71.4341 56.4841H69.8502V56.3394H71.4341V56.4841Z" fill="white"/>
<path d="M72.0006 59.4358L71.957 59.2911C72.2767 59.2332 72.6254 59.1319 73.0178 59.0162L73.0614 59.1609C72.4656 59.3055 72.1169 59.3924 72.0006 59.4358ZM72.2622 59.1175V56.1081H72.0006V55.9634H73.6571V56.1081H73.3084V59.9421H73.1631V58.0757H72.422V59.1175H72.2622ZM73.1631 56.1081H72.422V56.9327H73.1631V56.1081ZM72.422 57.9455H73.1631V57.063H72.422V57.9455ZM74.2238 55.7897L74.3546 55.8621C74.2529 55.9923 74.0931 56.2093 73.8751 56.4987C73.8315 56.5421 73.817 56.5855 73.8024 56.6144C73.8606 56.6578 73.9332 56.7157 74.0059 56.7591C74.0495 56.8025 74.1076 56.8315 74.1512 56.8459C74.282 56.7012 74.4709 56.4842 74.7033 56.2093L74.8196 56.2961C74.6888 56.4698 74.4709 56.7302 74.1512 57.0774C74.0059 57.251 73.8606 57.4102 73.7298 57.5693C73.7588 57.5693 73.9768 57.5259 74.3982 57.4536L74.4418 57.5983C74.3255 57.6272 74.1512 57.6562 73.9332 57.6851C73.7443 57.7285 73.599 57.743 73.4682 57.743L73.4246 57.5983C73.4246 57.5983 73.4537 57.5983 73.5118 57.5983C73.5845 57.5983 73.6426 57.5983 73.6571 57.5838L73.5845 57.5115C73.7298 57.3379 73.8896 57.1642 74.064 56.9617C73.9477 56.8604 73.7588 56.7447 73.5118 56.571L73.5845 56.4408C73.5845 56.4408 73.6717 56.4987 73.7007 56.4987C73.7443 56.4408 73.8315 56.3106 73.9623 56.137C74.0785 55.9634 74.1802 55.8476 74.2384 55.7753M73.9768 58.2349V59.1319H74.5144V58.0034L74.6598 58.0468V59.1464C74.6307 59.566 74.3691 59.8409 73.846 59.9856L73.7734 59.8553C74.1512 59.7685 74.3982 59.566 74.4854 59.2621H73.8024V58.206C73.8024 58.206 73.9041 58.2349 73.9623 58.2494M74.7905 57.7574L74.6598 57.8298C74.6598 57.8298 74.5144 57.5983 74.3691 57.3668C74.3401 57.3379 74.3255 57.3089 74.311 57.28L74.4418 57.2076C74.6016 57.4536 74.7179 57.6417 74.7905 57.7574ZM75.5461 55.7608L75.6479 55.8476C75.6479 55.8476 75.6043 55.9055 75.5752 55.9634C75.3572 56.2817 75.2265 56.4987 75.1538 56.6289C75.3282 56.7736 75.4444 56.8749 75.5025 56.9327C75.5607 56.8893 75.6333 56.7881 75.7496 56.6434C75.8513 56.5132 75.953 56.3974 76.0693 56.2961L76.1855 56.3829C75.9094 56.7302 75.5752 57.1353 75.1683 57.5983C75.2555 57.5983 75.4735 57.5549 75.8513 57.4825L75.8803 57.6272C75.6769 57.6706 75.4299 57.6996 75.1102 57.7574C75.023 57.7864 74.9504 57.7864 74.8922 57.7864L74.8487 57.6417C74.8487 57.6417 74.9794 57.6128 75.0812 57.5983L74.994 57.5259C74.994 57.5259 75.0811 57.4391 75.1247 57.3813C75.2265 57.2655 75.3282 57.1642 75.4154 57.0485C75.1829 56.8459 74.9794 56.6723 74.8051 56.5276L74.9213 56.3974C74.9213 56.3974 74.994 56.4842 75.0521 56.4987C75.1974 56.2961 75.3718 56.0357 75.5461 55.7319M75.1974 59.9277V57.9889L75.3427 58.0323V59.1753H75.9239V58.1625L76.0693 58.206V59.32H75.3282V59.9421H75.1829L75.1974 59.9277ZM76.2727 57.7864L76.1274 57.8442C76.0402 57.6272 75.9385 57.3957 75.8222 57.1498L75.9675 57.0774C76.0547 57.3089 76.1564 57.5549 76.2872 57.7864" fill="white"/>
<path d="M80.9368 56.6142L80.8787 56.7589C80.1667 56.6142 79.4982 56.3393 78.8879 55.9487C78.7717 55.8763 78.67 55.8763 78.5683 55.9487C78.0306 56.3538 77.4348 56.6576 76.7664 56.8891L76.6938 56.7444C77.4058 56.4985 78.0161 56.1802 78.5392 55.7751C78.6554 55.6882 78.7717 55.6882 78.9025 55.7751C79.5128 56.1802 80.1957 56.4551 80.9223 56.6142M80.559 58.2781H76.9844V57.2653H80.559V58.2781ZM77.1588 58.1334H78.67V57.4244H77.1588V58.1334ZM80.1812 59.9274H77.3477V58.6687H80.1812V59.9274ZM77.5075 59.233H80.0069V58.8134H77.5075V59.233ZM80.0069 59.3921H77.5075V59.7828H80.0069V59.3921ZM78.1178 57.9164L78.0015 58.0321C77.9144 57.9453 77.7981 57.8151 77.6383 57.6415L77.7545 57.5257C77.9144 57.6993 78.0451 57.8295 78.1178 57.9164ZM77.7255 56.7444H79.6581V56.8891H77.7255V56.7444ZM78.8153 58.1334H80.3991V57.4244H78.8153V58.1334ZM79.5564 58.0466L79.4256 57.9598C79.4982 57.8585 79.5999 57.7283 79.7017 57.5546L79.8325 57.627C79.7018 57.844 79.5999 57.9887 79.5564 58.0466Z" fill="white"/>
<path d="M81.9251 56.4696L82.0704 56.5275C81.8961 56.9905 81.7217 57.3667 81.5183 57.6705L81.373 57.5982C81.5764 57.3088 81.7653 56.9326 81.9251 56.4841M82.1576 58.148H81.4601V58.0033H83.0731C83.1021 58.828 83.0731 59.3344 82.9859 59.508C82.9278 59.7395 82.7389 59.8841 82.4337 59.9131V59.7684C82.6517 59.7395 82.797 59.6527 82.8406 59.479C82.8987 59.2765 82.9278 58.8424 82.9278 58.1624H82.3029C82.2739 59.0305 82.0268 59.5948 81.5619 59.8842L81.4601 59.7684C81.9106 59.508 82.1431 58.9582 82.1576 58.1624M82.579 56.1513H81.8815V56.0211H82.7243C82.6953 56.5998 82.8842 57.1207 83.2765 57.5982L83.1457 57.685C82.7825 57.2509 82.5936 56.7445 82.579 56.1513ZM83.262 59.9854L83.1893 59.8407C83.4799 59.6382 83.727 59.479 83.9304 59.3344L84.0176 59.4501C83.756 59.6382 83.509 59.8263 83.262 59.9999M85.4707 56.1369H83.509V55.9922H85.4707V56.1369ZM83.5817 56.8024H85.398V59.1029H83.5817V56.8024ZM83.7415 57.5113H85.2527V56.9471H83.7415V57.5113ZM85.2527 57.656H83.7415V58.2203H85.2527V57.656ZM85.2527 58.365H83.7415V58.9582H85.2527V58.365ZM84.3809 56.7156L84.2501 56.6433C84.2937 56.5709 84.3663 56.4407 84.4535 56.2526L84.5988 56.3105C84.5988 56.3105 84.5552 56.3828 84.5407 56.3973C84.4826 56.542 84.4244 56.6433 84.3809 56.7156ZM84.8894 59.4501L84.9766 59.3199C85.2963 59.5224 85.5433 59.6671 85.7032 59.7973L85.5869 59.9276C85.398 59.7829 85.1655 59.6237 84.8894 59.4501Z" fill="white"/>
<path d="M87.7231 56.0065H86.7495V55.8618H87.9119C87.9846 55.8618 88.0283 55.8908 88.0428 55.9342C88.0719 55.9776 88.0428 56.021 87.9992 56.0789C87.5633 56.6576 86.9239 57.0627 86.0812 57.2942L86.0229 57.1495C86.7785 56.9325 87.3599 56.5852 87.7522 56.1223C87.7522 56.1078 87.7667 56.0789 87.7667 56.0499C87.7667 56.0499 87.7376 56.021 87.7085 56.021M86.459 58.0031H87.4761V57.4533H86.5607V57.3087H87.6505V58.1478H86.6043C86.5752 58.2925 86.5461 58.4806 86.5171 58.6976H87.7377C87.665 59.0449 87.6069 59.2763 87.5778 59.3921C87.4616 59.7827 87.1564 59.9564 86.6624 59.8985L86.6333 59.7538C87.0838 59.8117 87.3453 59.6815 87.418 59.3776C87.4471 59.3053 87.476 59.1606 87.5341 58.958C87.5341 58.9146 87.5633 58.8712 87.5633 58.8278H86.3427C86.3863 58.5529 86.4444 58.278 86.488 58.0031M87.0257 56.5563L86.9385 56.6865C86.8222 56.5997 86.6624 56.484 86.459 56.3393L86.5751 56.2091C86.6623 56.2814 86.7496 56.3538 86.8368 56.4116C86.9385 56.484 86.9966 56.5274 87.0402 56.5563M89.6848 58.5095H88.1009V58.3793H89.9028C89.772 58.741 89.5685 59.0883 89.3214 59.4066C89.6121 59.5512 89.9464 59.667 90.2951 59.7538L90.2514 59.9129C89.8591 59.7972 89.4959 59.667 89.1908 59.4934C88.842 59.6959 88.4352 59.8261 87.9411 59.8985L87.8975 59.7538C88.348 59.6959 88.7403 59.5802 89.06 59.4066C88.8565 59.1895 88.6386 58.9436 88.4352 58.6976L88.5658 58.6108C88.7693 58.8712 88.9728 59.1172 89.1908 59.3053C89.3361 59.1461 89.5104 58.8857 89.6848 58.524M88.1736 58.1044L88.0719 57.9887C88.3334 57.8006 88.4497 57.4678 88.4352 57.0048H89.307V57.7427C89.307 57.8585 89.3796 57.9163 89.4958 57.9308H89.8592C89.99 57.9597 90.0771 57.8295 90.1207 57.5112L90.266 57.5402C90.2225 57.9308 90.0917 58.1044 89.8592 58.0755H89.4958C89.2633 58.0755 89.1472 57.9597 89.1472 57.7427V57.1495H88.6095C88.5805 57.5691 88.4496 57.8874 88.188 58.1044M88.4497 55.9486L88.5805 55.8618C88.9728 56.4116 89.5686 56.8457 90.3823 57.1784L90.3096 57.3087C89.4814 56.9904 88.8566 56.5418 88.4497 55.9486ZM89.4233 55.8618L89.5395 55.9486C89.4523 56.0499 89.3506 56.1801 89.2489 56.2959L89.118 56.1946C89.2052 56.1223 89.307 56.0065 89.4378 55.8618M89.7865 56.6865L89.6702 56.5708C89.7864 56.4406 89.8737 56.3393 89.9609 56.238L90.0917 56.3393C90.0917 56.3393 90.0626 56.3827 90.0336 56.4116C89.9028 56.5563 89.83 56.6431 89.7719 56.6865" fill="white"/>
<path d="M96.8774 22.8167C96.8774 22.8167 96.8774 22.6865 96.7175 22.5707C96.6013 22.5129 96.5141 22.5129 96.6013 22.6286C96.6739 22.6865 96.7756 22.7878 96.8774 22.8167Z" fill="white"/>
<path d="M96.8774 22.8167C96.8774 22.8167 96.8774 22.6865 96.7175 22.5707C96.6013 22.5129 96.5141 22.5129 96.6013 22.6286C96.6739 22.6865 96.7756 22.7878 96.8774 22.8167Z" fill="white"/>
<path fill-rule="evenodd" clip-rule="evenodd" d="M111.35 31.0343C111.306 31.0922 111.234 31.15 111.147 31.2079L111.059 31.1356C110.916 31.1534 110.878 31.0887 110.839 31.0229C110.814 30.982 110.79 30.9407 110.74 30.9185C110.546 30.9957 110.514 30.9314 110.484 30.8714C110.469 30.8414 110.454 30.8124 110.42 30.8028C110.208 30.7582 110.023 30.6944 109.84 30.6311C109.547 30.5299 109.259 30.43 108.865 30.4122C108.947 30.2702 108.836 30.2775 108.727 30.2846C108.68 30.2876 108.634 30.2906 108.604 30.2819C108.43 30.0861 107.98 30.1012 107.555 30.1155C107.446 30.1192 107.339 30.1228 107.238 30.1228L107.23 30.1001C107.143 29.8527 107.008 29.4717 106.628 29.4717C106.578 29.4577 106.433 29.5627 106.297 29.6615C106.152 29.7664 106.017 29.8641 106.017 29.8045C105.74 29.8263 105.529 29.797 105.319 29.7679C105.111 29.7391 104.904 29.7105 104.637 29.7321C104.593 29.7466 104.506 29.8045 104.433 29.8624C104.297 30.0976 104.49 30.0892 104.657 30.0818C104.686 30.0806 104.713 30.0794 104.739 30.0794C105.022 29.9946 105.121 30.0693 105.22 30.1437C105.273 30.1836 105.326 30.2234 105.407 30.2385C105.536 30.2213 105.625 30.2553 105.712 30.2886C105.771 30.3114 105.83 30.3339 105.901 30.3398C105.901 30.4798 106.099 30.437 106.291 30.3955C106.436 30.364 106.577 30.3333 106.628 30.3832C106.963 30.4193 107.219 30.5231 107.478 30.6276C107.633 30.6906 107.79 30.7538 107.964 30.8028C108.069 30.828 108.189 30.8434 108.309 30.8589C108.674 30.9057 109.051 30.9542 109.083 31.2802C109.267 31.2404 109.288 31.341 109.309 31.4394C109.326 31.5197 109.342 31.5986 109.447 31.5986C109.417 31.6709 109.345 31.7722 109.243 31.859L109.112 31.9024C109.01 31.7923 108.829 31.7516 108.646 31.7107C108.516 31.6817 108.387 31.6526 108.284 31.5986C108.182 31.4249 107.906 31.3815 107.63 31.3815C107.499 31.4683 107.354 31.5841 107.325 31.6564C107.239 31.8272 107.345 31.8519 107.446 31.8753C107.566 31.9034 107.679 31.9297 107.441 32.2062L107.281 32.2786C107.225 32.2656 107.167 32.2532 107.109 32.2408C106.782 32.1705 106.45 32.0992 106.264 31.9024C106.206 31.8985 106.14 31.903 106.075 31.9074C105.898 31.9194 105.731 31.9308 105.741 31.7722C105.654 31.7577 105.48 31.8734 105.378 31.9892C105.342 32.0422 105.314 32.0952 105.284 32.1494C105.217 32.2728 105.147 32.4027 104.986 32.5535C104.608 32.7415 104.448 32.6258 104.346 32.5245C103.838 32.5824 103.431 32.5969 103.067 32.5245C102.914 32.5492 102.759 32.5753 102.605 32.6014C101.946 32.7132 101.299 32.8229 100.757 32.7994C100.677 32.8394 100.642 32.8162 100.608 32.794C100.557 32.76 100.509 32.7283 100.307 32.9296C100.278 33.002 100.176 33.1322 100.06 33.219C99.8127 33.3781 99.6384 33.3492 99.5367 33.3203C99.5 33.3142 99.5147 33.2645 99.529 33.2166C99.5486 33.1507 99.5673 33.088 99.4495 33.1467C99.217 33.3203 98.8973 33.5373 98.8246 33.4505C98.7845 33.3467 98.5939 33.4148 98.392 33.4869C98.2282 33.5455 98.0569 33.6066 97.9528 33.5807C97.8755 33.5899 97.7969 33.6031 97.7207 33.6159C97.4384 33.6631 97.1879 33.7051 97.1536 33.5228C97.0311 33.5616 96.8661 33.6684 96.7041 33.7731C96.4431 33.9418 96.1902 34.1052 96.1364 33.9713C96.0527 33.9769 96.0398 33.9142 96.0267 33.8512C96.0058 33.7502 95.9847 33.6484 95.6714 33.8267C95.4927 33.9305 95.356 33.9659 95.2201 34.0011C95.0909 34.0345 94.9625 34.0678 94.7996 34.1594C94.7545 34.1658 94.7069 34.1742 94.6588 34.1825C94.3817 34.2309 94.0902 34.2817 94.1893 33.9858C94.1333 33.9757 94.0238 34.0117 93.9158 34.0473C93.7155 34.1132 93.5202 34.1774 93.6807 33.9424C94.0295 33.5228 92.3584 34.2173 91.9951 34.4777C91.7481 34.6224 91.5302 34.608 91.3994 34.579C91.4575 34.4488 91.5302 34.2607 91.3122 34.3331C91.1869 34.3523 90.9912 34.4733 90.8016 34.5907C90.7053 34.6502 90.6107 34.7088 90.5275 34.7526C90.4172 34.7417 90.242 34.7953 90.0702 34.8479C89.7894 34.9338 89.5179 35.017 89.5539 34.8105C89.3796 34.8539 89.1326 34.9118 89.2633 34.7092C89.3111 34.6405 89.4112 34.5506 89.5099 34.4619C89.6813 34.308 89.8482 34.158 89.7283 34.1305C89.5791 34.0314 89.3778 34.2197 89.1595 34.4239C88.9953 34.5775 88.8215 34.7401 88.653 34.796L88.3043 34.8973L88.5513 34.608C88.159 34.7671 87.7376 34.8829 87.6504 34.7382L87.6365 34.7465C87.4214 34.875 87.1693 35.0257 87.0982 34.9407C86.8771 35.0544 86.7365 35.0669 86.5974 35.0793C86.4531 35.0922 86.3104 35.1049 86.0811 35.2301C86.0489 35.2045 86.0935 35.1308 86.1369 35.0591C86.1917 34.9686 86.2446 34.8812 86.1392 34.8973C85.7323 34.8828 85.2237 34.8829 84.628 35.0854L78.8883 34.9697L77.8857 35.0275L78.0164 34.8684L76.4035 34.9986L76.5488 34.8105L72.2041 35.1577V35.1288L69.7774 35.3169L69.8646 35.2156L68.8329 35.2735L68.9637 35.1143L66.7695 35.2446C66.4939 35.0433 65.951 35.0503 65.4274 35.057C65.1229 35.0609 64.825 35.0648 64.5899 35.0275C63.8488 35.1143 63.2531 35.0999 62.759 34.9841C62.2757 35.0763 61.9524 35.0307 61.6348 34.986C61.5036 34.9675 61.3734 34.9492 61.2333 34.9407C61.1881 34.9215 61.2031 34.8794 61.2172 34.8398C61.2349 34.7902 61.2511 34.7446 61.1461 34.7526C61.1295 34.6948 61.2172 34.6228 61.309 34.5474C61.3779 34.4908 61.4491 34.4323 61.4803 34.3765L61.2042 34.3041C61.1606 34.4054 61.0153 34.608 60.7537 34.7382C60.5852 34.8501 60.4787 34.8472 60.3657 34.8441C60.2742 34.8416 60.1783 34.839 60.0417 34.8973C60.0026 34.9012 59.9609 34.9062 59.918 34.9112C59.6425 34.9439 59.3211 34.9819 59.3588 34.7816C59.3977 34.7097 59.496 34.6293 59.5888 34.5535C59.7389 34.4308 59.8747 34.3199 59.7221 34.2752C59.6827 34.2795 59.643 34.2832 59.6029 34.287C59.3767 34.3081 59.1385 34.3303 58.8793 34.4777C58.6976 34.579 58.6976 34.655 58.6976 34.7309C58.6976 34.8069 58.6976 34.8829 58.516 34.9841C58.1091 35.2012 57.7168 35.259 57.4552 35.2012C57.3905 35.0916 57.5766 34.939 57.7528 34.7945C57.9723 34.6145 58.1764 34.4471 57.8621 34.3909C57.5791 34.3681 57.3766 34.5337 57.1657 34.7062C56.9758 34.8614 56.7791 35.0222 56.5107 35.0565C56.2928 35.259 56.0022 35.4471 55.6825 35.505C55.3913 35.5279 55.3103 35.3939 55.2305 35.2621C55.159 35.1439 55.0886 35.0275 54.8687 35.0275C54.7102 35.0093 54.4903 35.0752 54.2788 35.1385C53.9862 35.2261 53.7095 35.3089 53.6336 35.1577C53.6664 35.1151 53.7023 35.0715 53.7378 35.0283C53.9072 34.8225 54.0703 34.6243 53.8661 34.5646C53.8057 34.5796 53.7506 34.579 53.6958 34.5784C53.5925 34.5773 53.4905 34.5763 53.3575 34.6803C53.3358 34.7364 53.3284 34.781 53.3217 34.8212C53.3059 34.9158 53.294 34.9867 53.1105 35.1288C52.9361 35.2156 52.6746 35.2446 52.5729 35.2012C52.4166 35.1403 52.4954 34.9971 52.5732 34.856C52.6617 34.6954 52.7487 34.5375 52.4857 34.5067C52.4566 34.3909 52.2096 34.3765 51.9916 34.4488C51.7682 34.5731 51.6131 34.5613 51.4632 34.5499C51.2817 34.5361 51.1077 34.5228 50.8292 34.7526C50.7909 34.7908 50.7539 34.8303 50.7168 34.8699C50.5427 35.0558 50.3653 35.2453 50.03 35.3169C49.7963 35.3815 49.8178 35.2614 49.8354 35.1629C49.8375 35.1511 49.8395 35.1396 49.8411 35.1288C49.8936 35.0765 49.952 35.0251 50.009 34.9748C50.1886 34.8167 50.3542 34.6709 50.277 34.5501C50.1102 34.5086 49.8909 34.6682 49.6892 34.8151C49.6097 34.8729 49.533 34.9288 49.4633 34.9697C48.9393 35.0721 48.6202 35.0007 48.3004 34.929C48.1234 34.8894 47.9463 34.8498 47.7341 34.8394C47.6566 34.8044 47.6816 34.7353 47.7063 34.6668C47.7327 34.594 47.7587 34.522 47.6614 34.4922C47.1238 34.6514 44.6245 34.825 44.1885 34.8105C43.927 34.9407 40.0327 34.7092 39.8583 34.6658C39.7233 34.7205 39.5858 34.7861 39.449 34.8513C39.1149 35.0107 38.7854 35.168 38.507 35.1577C38.4974 35.1243 38.5163 35.075 38.5355 35.0251C38.5744 34.924 38.6144 34.8201 38.4198 34.8394L38.4109 34.8422C38.136 34.9287 37.7797 35.0408 37.7078 34.9263C37.4925 34.9263 37.4797 34.8146 37.4674 34.7076C37.4532 34.5835 37.4397 34.4657 37.112 34.5356C36.7202 34.6706 36.7816 34.5606 36.8525 34.4335C36.9184 34.3154 36.9925 34.1825 36.7197 34.2173C36.7258 34.1744 36.646 34.1523 36.5619 34.129C36.4473 34.0972 36.3246 34.0631 36.4 33.9713C36.4954 33.889 36.4989 33.8317 36.502 33.7822C36.5059 33.7188 36.509 33.6684 36.7051 33.5952L37.8175 33.4331C37.7283 33.4333 37.7189 33.372 37.7087 33.3051C37.699 33.2411 37.6884 33.1719 37.6061 33.1467L37.2573 33.0743C36.9231 33.2335 36.6034 33.3781 36.2547 33.436C36.0906 33.3789 36.2368 33.2341 36.3953 33.0772C36.5175 32.9561 36.647 32.8279 36.647 32.7271C36.6277 32.5665 36.4452 32.4174 36.2596 32.2657C36.027 32.0757 35.7896 31.8817 35.8624 31.6564C35.0869 30.5663 35.3586 30.0912 35.5746 29.7133C35.6339 29.6097 35.6889 29.5135 35.717 29.4138C35.717 29.383 35.7058 29.2981 35.6905 29.1826C35.6341 28.757 35.5227 27.9165 35.717 27.8368C36.1196 27.6118 36.1343 27.1989 36.1481 26.8106C36.1628 26.3998 36.1765 26.0166 36.647 25.9125C36.7568 25.8675 36.6656 25.7024 36.5572 25.5061C36.4218 25.261 36.2596 24.9672 36.4291 24.7985C36.894 24.2631 39.0301 22.5414 40.2797 22.5269C40.4686 22.4546 42.2269 22.1942 43.5347 22.3099C44.8745 22.2192 46.6031 22.2423 47.7665 22.2578C48.458 22.267 48.9498 22.2736 49.0419 22.252C49.4111 22.1908 49.6709 22.2489 49.9239 22.3054C50.2682 22.3825 50.5999 22.4566 51.1779 22.2231C51.4495 22.2617 51.6796 22.2467 51.9214 22.231C52.1325 22.2172 52.3524 22.2029 52.6165 22.2231C54.273 22.281 61.5675 22.2376 63.4129 22.064L64.619 21.9048L64.5172 22.035L65.3891 21.9627L65.2002 22.2086L67.9756 22.0205L67.9175 22.0929L69.327 22.0061L69.2398 22.1218L70.1116 22.0495L70.0099 22.1797L72.3203 22.0061C73.3402 22.204 74.6223 22.1767 75.9005 22.1495C76.7713 22.131 77.6402 22.1125 78.4233 22.1652C78.6312 22.0936 78.7071 22.1227 78.7817 22.1513C78.8427 22.1747 78.9029 22.1978 79.0336 22.1652C79.7485 22.065 80.2819 22.1175 80.8032 22.1689C81.0342 22.1917 81.2629 22.2142 81.5038 22.2231C82.5806 22.1131 83.5758 22.1134 84.5522 22.1138C85.1173 22.1139 85.6762 22.1141 86.2409 22.0929C86.3064 22.1988 86.5148 22.1579 86.7207 22.1174C86.8803 22.086 87.0385 22.055 87.1273 22.0929C87.9556 22.1218 88.8274 22.1508 89.6702 22.1508C90.496 22.134 93.1592 22.1707 95.4069 22.2017C97.0351 22.2242 98.4453 22.2436 98.7811 22.2376C98.97 22.3823 99.3478 22.3533 99.7256 22.2954C99.7764 22.3308 99.8893 22.3114 100.001 22.2922C100.209 22.2565 100.413 22.2215 100.205 22.5414C100.193 22.5567 100.173 22.5773 100.151 22.6C100.071 22.6844 99.9629 22.7988 100.089 22.7874C100.166 22.9091 100.448 22.835 100.72 22.7637C101.062 22.674 101.387 22.5888 101.266 22.9031C101.21 22.9746 101.119 23.0503 101.031 23.1238C100.887 23.2436 100.75 23.3577 100.786 23.4384C100.794 23.4401 100.802 23.4419 100.81 23.4437C100.873 23.458 100.935 23.472 101.077 23.395C101.186 23.3227 101.274 23.2328 101.364 23.1421C101.49 23.015 101.617 22.8863 101.803 22.8018C101.972 22.7494 102.049 22.7806 102.128 22.8127C102.158 22.8249 102.189 22.8373 102.225 22.8452C102.301 22.8198 102.382 22.7835 102.459 22.7486C102.602 22.6842 102.736 22.6239 102.82 22.6427C102.837 22.7325 102.691 22.8545 102.535 22.9853C102.415 23.0864 102.288 23.1928 102.225 23.2938C102.249 23.3152 102.27 23.3412 102.291 23.3674C102.369 23.4652 102.45 23.567 102.748 23.4529C103.003 23.3291 103.078 23.1823 103.151 23.0407C103.231 22.8845 103.307 22.7345 103.62 22.6282C103.679 22.6236 103.748 22.6089 103.814 22.5946C103.958 22.5637 104.094 22.5346 104.114 22.6137C103.927 22.8959 104.143 22.8237 104.359 22.751C104.565 22.6821 104.771 22.6128 104.637 22.8452C104.562 22.9475 104.433 23.0259 104.312 23.0996C104.245 23.1406 104.18 23.1801 104.128 23.2214C103.997 23.4384 104.361 23.3227 104.579 23.2214C104.741 23.1582 104.866 23.0267 104.986 22.8999C105.113 22.7656 105.235 22.6365 105.392 22.5993C105.567 22.5703 105.639 22.6572 105.451 22.8742C105.247 23.0912 105.203 23.2648 105.291 23.2938C105.405 23.2413 105.541 23.1611 105.68 23.08C106 22.8924 106.328 22.6995 106.41 22.8308C106.472 22.884 106.556 22.9101 106.639 22.9356C106.691 22.9517 106.742 22.9676 106.787 22.9899C106.82 23.0158 106.759 23.0938 106.705 23.1643C106.637 23.2515 106.578 23.3273 106.715 23.2793C106.769 23.2354 106.826 23.186 106.883 23.1356C107.074 22.9696 107.278 22.7917 107.456 22.7584C107.645 22.6861 107.717 22.7295 107.761 22.7874C107.754 22.8631 107.622 22.9649 107.497 23.0618C107.359 23.1687 107.228 23.2696 107.281 23.3227C107.358 23.2932 107.445 23.2515 107.534 23.209C107.75 23.1052 107.978 22.9965 108.081 23.0478C108.102 23.0912 108.155 23.1061 108.207 23.1208C108.293 23.1453 108.377 23.1691 108.313 23.3227C108.409 23.3016 108.532 23.2599 108.659 23.2168C109.054 23.0829 109.489 22.9356 109.258 23.3516C109.38 23.3245 109.337 23.4248 109.295 23.5209C109.247 23.6297 109.202 23.7331 109.403 23.641C109.65 23.4384 109.955 23.2793 110.173 23.2069C110.182 23.235 110.224 23.245 110.267 23.2553C110.358 23.277 110.456 23.3006 110.289 23.4963C110.272 23.5268 110.239 23.5676 110.204 23.61C110.124 23.7084 110.038 23.8146 110.129 23.8146C110.26 23.7873 110.416 23.6728 110.577 23.555C110.757 23.4234 110.942 23.2877 111.103 23.2648C111.317 23.1734 111.282 23.2745 111.245 23.3802C111.211 23.4752 111.177 23.574 111.321 23.5397C111.387 23.5397 111.486 23.5063 111.585 23.4732C111.769 23.4113 111.95 23.3506 111.902 23.5108C112.295 23.4818 112.643 23.5108 112.658 23.7857C113.021 23.8291 113.297 23.9593 113.472 24.1474C113.403 24.3336 113.607 24.2874 113.805 24.2428C113.899 24.2215 113.992 24.2006 114.053 24.2053C114.078 24.2512 114.162 24.2539 114.245 24.2566C114.396 24.2616 114.545 24.2664 114.329 24.538C114.401 24.5836 114.273 24.7199 114.15 24.8508C113.999 25.0109 113.857 25.1631 114.096 25.1312C114.395 25.1077 114.511 25.2368 114.626 25.3648C114.723 25.4733 114.82 25.5809 115.026 25.5942C115.026 25.6666 114.997 25.7389 114.881 25.8257L114.721 25.9125C114.556 25.9242 114.468 25.8647 114.379 25.8051C114.249 25.7177 114.119 25.6302 113.748 25.7678C113.675 25.7968 113.588 25.9125 113.602 25.927C113.617 25.944 113.631 25.9613 113.645 25.9785C113.788 26.1521 113.932 26.3269 114.329 26.2742C114.388 26.2742 114.382 26.3347 114.376 26.3954C114.367 26.483 114.358 26.5708 114.547 26.4768C114.67 26.397 114.749 26.2911 114.827 26.1868C114.932 26.0454 115.035 25.9068 115.244 25.8402C115.279 25.8697 115.349 25.8708 115.418 25.8719C115.552 25.874 115.684 25.876 115.549 26.0861C115.49 26.1694 115.366 26.2576 115.248 26.3416C115.08 26.462 114.923 26.5737 114.983 26.6504C114.926 26.8436 115.023 26.9024 115.119 26.9614C115.196 27.0085 115.273 27.0557 115.273 27.1713C115.244 27.2436 115.157 27.3304 115.085 27.4028C114.912 27.4629 114.873 27.4005 114.832 27.3369C114.805 27.2935 114.777 27.2495 114.707 27.2436C114.684 27.2391 114.659 27.2356 114.635 27.2321C114.501 27.2132 114.357 27.1929 114.431 26.9976C114.402 26.9398 114.198 27.0121 114.038 27.0989C113.893 27.1713 113.777 27.3015 113.748 27.3738C113.849 27.4751 113.849 27.7211 113.675 27.9959C113.544 28.1551 113.355 28.1551 113.355 28.1551L113.254 27.8657C113.074 27.8932 112.996 27.8359 112.919 27.779C112.833 27.716 112.748 27.6534 112.527 27.7066C112.503 27.6823 112.483 27.6522 112.464 27.6222C112.392 27.5092 112.319 27.3965 111.975 27.5908C111.859 27.6776 111.786 27.7645 111.757 27.8368C111.745 27.958 111.909 27.9526 112.071 27.9473C112.315 27.9393 112.554 27.9314 112.178 28.3577C112.018 28.4734 111.902 28.5747 111.873 28.676C111.859 28.7483 111.931 28.7483 112.018 28.7049C112.59 28.3012 112.676 28.4444 112.763 28.5885C112.813 28.6716 112.863 28.755 113.007 28.7338C112.96 28.9653 113.144 29.0063 113.323 29.0462C113.536 29.0936 113.741 29.1393 113.544 29.5006C113.472 29.573 113.297 29.6453 113.297 29.6453L112.847 29.356C112.703 29.4061 112.659 29.364 112.615 29.3228C112.571 29.2808 112.528 29.2397 112.382 29.2981C112.178 29.4138 111.917 29.6019 111.757 29.7611C111.664 29.8964 111.708 29.9406 111.753 29.9851C111.799 30.031 111.846 30.0772 111.742 30.2241C111.524 30.47 111.336 30.7015 111.365 30.8173C111.408 30.8317 111.452 30.9041 111.35 31.0343ZM104.826 32.1483L104.215 31.9169C104.099 31.9458 103.91 32.0905 103.881 32.1918C103.917 32.1976 103.926 32.23 103.935 32.2623C103.948 32.3093 103.961 32.3563 104.056 32.322C104.184 32.3028 104.227 32.3601 104.27 32.4162C104.323 32.4868 104.375 32.5553 104.593 32.4667C104.739 32.3654 104.826 32.2352 104.826 32.1483ZM107.423 30.7404C107.38 30.7182 107.338 30.6962 107.325 30.6581C107.151 30.5568 106.845 30.9909 106.845 31.0922C106.915 31.0922 106.953 31.1233 106.99 31.1534C107.053 31.2055 107.113 31.2547 107.325 31.1356C107.633 30.8489 107.527 30.7941 107.423 30.7404ZM103.537 31.1697C103.344 31.1148 103.144 31.058 103.155 30.8462H103.126C102.987 30.8963 102.849 31.0223 102.72 31.1398C102.7 31.158 102.68 31.176 102.661 31.1934C102.437 31.4568 102.569 31.4861 102.699 31.5148C102.754 31.5271 102.809 31.5392 102.835 31.5696C102.892 31.5743 102.93 31.6007 102.969 31.6274C103.05 31.6826 103.133 31.7397 103.387 31.613C103.547 31.4973 103.707 31.3381 103.736 31.2368C103.677 31.2097 103.608 31.1898 103.537 31.1697ZM103.906 25.8665C103.746 25.9326 103.464 26.0491 103.489 26.1874H103.503C103.616 26.1546 103.665 26.1784 103.714 26.202C103.772 26.2304 103.831 26.2585 103.997 26.1874C104.143 25.9704 104.099 25.8691 103.968 25.8402C103.951 25.8477 103.93 25.8566 103.906 25.8665ZM104.464 26.6247C104.576 26.8235 104.687 27.0209 105.305 26.6938H105.291L105.363 26.5925C105.301 26.3803 105.087 26.2974 104.87 26.2136C104.836 26.2002 104.802 26.1869 104.768 26.1729C104.698 26.1961 104.619 26.2355 104.541 26.2743C104.423 26.3327 104.308 26.39 104.23 26.39C104.352 26.4239 104.408 26.5245 104.464 26.6247ZM105.466 26.8377C105.355 27.123 105.239 27.4193 105.654 27.2725C105.694 27.2924 105.698 27.3463 105.702 27.3987C105.709 27.4989 105.716 27.5932 105.974 27.4317C106.139 27.2983 106.157 27.2013 106.175 27.1097C106.182 27.0721 106.189 27.0355 106.206 26.9976C106.031 27.0037 105.971 26.9046 105.912 26.8065C105.829 26.6688 105.748 26.5332 105.349 26.6938C105.289 26.7775 105.378 26.7723 105.451 26.7679C105.467 26.767 105.482 26.7661 105.494 26.7661C105.485 26.7898 105.476 26.8137 105.466 26.8377ZM104.419 27.6632C104.259 27.7645 104.259 27.9236 104.259 27.9236L104.244 27.9381C104.259 28.0394 104.332 28.1117 104.535 28.0104C104.739 27.8802 104.782 27.7355 104.797 27.6632C104.759 27.6632 104.723 27.6571 104.686 27.6508C104.608 27.6378 104.527 27.6241 104.419 27.6632ZM106.78 27.8754C106.838 27.9286 106.896 27.9824 106.729 28.1985V28.184C106.729 28.1919 106.729 28.2003 106.729 28.2089C106.726 28.2789 106.722 28.3595 106.904 28.2564C107.093 28.0972 107.165 27.9381 107.165 27.8368C107.184 27.7608 107.114 27.7624 107.045 27.764C106.957 27.766 106.87 27.768 106.976 27.6053C106.976 27.5619 106.86 27.6053 106.744 27.6921C106.694 27.7968 106.737 27.8359 106.78 27.8754ZM108.269 29.619C108.309 29.747 108.349 29.8731 108.633 29.7755H108.618C108.72 29.7177 108.836 29.6164 108.851 29.5585C109.083 29.2113 108.996 29.0232 108.604 29.1389C108.555 29.1065 108.54 29.0498 108.526 28.9945C108.503 28.9019 108.481 28.8133 108.299 28.8496C108.315 28.6751 108.212 28.6056 108.11 28.5369C108.035 28.486 107.96 28.4356 107.935 28.3432C107.223 28.5747 107.441 28.9653 107.616 28.9653C107.886 28.9557 107.964 29.1056 108.041 29.254C108.08 29.3291 108.119 29.4038 108.182 29.4572C108.23 29.4949 108.249 29.5572 108.269 29.619ZM57.6732 24.1618C58.4143 24.6248 59.1118 25.3048 59.7802 26.2308C60.0417 25.9125 60.4341 25.6521 60.9427 25.4061C60.7247 25.0733 60.3614 24.6827 59.8819 24.2487C59.4024 23.8146 59.0246 23.5542 58.7776 23.4384L57.6732 24.1618ZM58.4579 25.6665H57.0774L57.1065 25.6955C56.9757 25.6955 56.9031 25.7389 56.9031 25.8402C56.9031 25.8691 56.9467 25.9125 57.0339 25.9559C57.121 25.9849 57.1646 26.1151 57.1646 26.1151V31.1934L57.1937 31.5117C57.1937 31.6275 57.2809 31.7577 57.4407 31.8879C57.6006 32.0181 57.8331 32.0905 58.1237 32.1194H60.3614C60.9136 32.1194 61.2914 31.9458 61.4803 31.5841C61.6547 31.2224 61.7855 30.7449 61.8581 30.1517C61.4803 30.007 61.0734 29.7755 60.652 29.4717C60.623 30.007 60.5794 30.3543 60.4922 30.5134C60.4195 30.6581 60.3033 30.7594 60.158 30.7739H58.6613C58.516 30.7739 58.4579 30.7015 58.4579 30.5424V25.6665ZM54.2875 29.9492C54.7234 30.0938 55.1448 30.3253 55.5226 30.6436V30.6581C56.2347 29.544 56.6706 28.1262 56.8159 26.4189L55.5081 26.1295C55.4355 27.5619 55.0286 28.8351 54.2875 29.9492ZM62.0761 29.7321C62.4103 29.5006 62.8462 29.327 63.3984 29.2257C63.0642 28.0683 62.5701 27.1134 61.9017 26.361L60.6811 26.824C61.2333 27.4606 61.6983 28.43 62.0761 29.7321ZM47.3854 24.9287V32.2641H46.1066V23.7133H53.9969V31.3526C53.9969 31.9168 53.1686 32.2352 51.5121 32.2786C51.3668 31.6564 51.1779 31.179 50.96 30.8173C51.1779 30.8607 51.3959 30.8751 51.6284 30.8751C51.8463 30.8751 52.0643 30.8607 52.2823 30.8317C52.5002 30.8028 52.6165 30.7594 52.6601 30.716C52.6891 30.6726 52.7037 30.6002 52.7037 30.5134V24.9287H47.3854ZM47.7196 25.3627H52.3985V26.5346H47.7196V25.3627ZM52.0352 30.3109H49.318V30.8896H48.0974V26.9398H52.0352V30.3109ZM49.318 29.0955H50.8146V28.0828H49.318V29.0955ZM86.1935 24.1485L86.3308 24.1181C86.3605 24.1299 86.409 24.1577 86.4663 24.1923C86.5276 24.2293 86.6095 24.2806 86.7116 24.3459C86.9159 24.4767 87.2035 24.6652 87.5743 24.9113L87.6074 25.0874L87.5322 25.1943H90.266L90.391 25.3193V25.6521L90.266 25.7771H84.0032L83.8782 25.6521V25.3193L84.0032 25.1943H86.9506C86.6759 24.9958 86.3598 24.7886 86.002 24.5727L85.9756 24.38L86.1935 24.1485ZM72.8202 24.4223L72.9452 24.2973H76.2583L76.3833 24.4223V26.9108L76.2583 27.0358H75.715C75.7284 27.0449 75.7403 27.0533 75.7501 27.0602L75.7643 27.0702C75.7756 27.0779 75.7817 27.0814 75.7817 27.0814C75.7845 27.0828 75.7716 27.0752 75.7497 27.0752L75.8545 27.2683C75.6301 27.6135 75.3977 27.9113 75.1473 28.1704L75.8181 28.0536C75.9 27.962 76.042 27.7659 76.2243 27.4678L76.4112 27.4372L76.6873 27.6687L76.7122 27.832C76.3216 28.4396 75.8603 28.9772 75.3118 29.4526L76.1909 29.314C76.1486 29.1977 76.1037 29.0808 76.0448 28.9635L76.1008 28.7956C76.1261 28.783 76.1705 28.7688 76.2158 28.7543L76.2496 28.7435C76.2961 28.7287 76.3534 28.7104 76.4223 28.6875L76.571 28.7456C76.7855 29.1327 76.9524 29.5333 77.0598 29.9367L77.0855 29.8317C77.484 29.4349 77.8154 29.0958 78.0699 28.7913C77.7127 28.852 77.3985 28.9213 77.1201 28.9989L76.9701 28.924L76.8684 28.6636L76.8899 28.5368C77.2762 28.0858 77.6253 27.5855 77.9258 27.0358H77.3045L77.1795 26.9108V24.4223L77.3045 24.2973H80.6756L80.8006 24.4223V32.6403C80.8006 32.7321 80.7797 32.8185 80.7332 32.895C80.6869 32.9713 80.6196 33.0308 80.5375 33.0755C80.3784 33.1624 80.1551 33.1989 79.8817 33.1993L79.8107 33.2055L79.7384 33.2122L79.7374 33.2123C79.6429 33.2211 79.5667 33.2283 79.5132 33.2283L79.4065 33.1685L79.2031 32.8357L79.3097 32.6455H79.9346C80.0352 32.6455 80.09 32.6232 80.1175 32.601C80.1407 32.5822 80.1583 32.5525 80.1583 32.4956V27.0358H78.4913L78.5371 27.1798C78.4091 27.46 78.1976 27.7886 77.8983 28.1895C78.0823 28.1648 78.3005 28.1277 78.5556 28.0839C78.6395 27.9651 78.7688 27.7546 78.9229 27.4605L79.0913 27.4076L79.4255 27.5812L79.4801 27.7473C79.1803 28.3572 78.7452 28.9523 78.1877 29.5426C78.5846 29.495 78.9095 29.4485 79.1581 29.4075C79.1371 29.3721 79.1134 29.3332 79.0876 29.2922C79.0502 29.2326 79.0131 29.1697 78.9854 29.122C78.9716 29.0981 78.96 29.0779 78.9519 29.0636L78.9425 29.0469L78.94 29.0424L78.9393 29.0412L79.0482 28.9798C78.939 29.0407 78.9393 29.0412 78.9393 29.0412L79.0119 28.8602L79.3461 28.7589L79.485 28.8072C79.7513 29.1902 79.974 29.589 80.1523 30.0328L80.0885 30.193L80.0035 30.2323C79.9471 30.2584 79.8977 30.2813 79.8573 30.2989C79.8273 30.312 79.799 30.3236 79.774 30.332C79.7524 30.3394 79.7204 30.3491 79.6875 30.3491L79.5706 30.2681L79.5492 30.2106C79.521 30.1346 79.4932 30.0594 79.4573 29.984L77.7053 30.2293H77.784L77.909 30.3543V31.1987H78.9813V30.4266L79.1063 30.3016H79.4841L79.6091 30.4266V31.6564L79.4841 31.7814H77.909V33.0164L77.784 33.1414H77.4062L77.2812 33.0164V30.3543L77.3265 30.3089L77.287 30.3174L77.1417 30.2329L77.0897 30.069L77.0005 30.2152C76.9337 30.2318 76.8753 30.246 76.8258 30.2579C76.7887 30.2668 76.7567 30.2744 76.73 30.2807L76.6588 30.2971L76.6404 30.3013L76.6357 30.3023L76.6345 30.3026L76.607 30.1807C76.634 30.3027 76.6345 30.3026 76.6345 30.3026L76.4855 30.2101L76.4108 29.9021C75.3361 30.0675 74.6152 30.1915 74.2606 30.3002L74.1065 30.2235L73.9903 29.9052L74.0362 29.7598C74.4947 29.4403 74.888 29.1124 75.224 28.7764C74.8141 28.838 74.4653 28.9096 74.1892 28.9976L74.0474 28.9481C74.0246 28.9139 74.0021 28.8623 73.9808 28.8094C73.9582 28.753 73.9321 28.6825 73.9031 28.6031L73.9388 28.4656C74.5528 27.9358 75.0047 27.4634 75.2897 27.0358H73.448V33.1901L73.323 33.3151H72.9452L72.8202 33.1901V24.4223ZM74.718 28.4011L74.7282 28.3924L74.7325 28.4011H74.718ZM77.8073 24.8656V25.3824H80.1583V24.8656H77.8073ZM73.448 24.8801V25.3969H75.7409V24.8801H73.448ZM73.448 25.9652V26.4675H75.7409V25.9652H73.448ZM77.8073 25.9652V26.4675H80.1583V25.9652H77.8073ZM64.1395 24.4129L64.0145 24.5379V28.6614C64.0145 29.2655 63.9856 29.7674 63.9427 30.1378C63.9003 30.5174 63.801 30.9286 63.657 31.3874C63.5135 31.8445 63.3268 32.3167 63.111 32.775L63.1794 32.945L63.5572 33.0897L63.7164 33.023C64.3014 31.6834 64.6126 30.5095 64.6423 29.4752V26.486H71.0417L71.1667 26.361V24.5379L71.0417 24.4129H64.1395ZM64.6423 25.9321V25.0247H70.5244V25.9321H64.6423ZM66.7696 26.6266L66.6446 26.7516V27.6538H65.2584L65.1334 27.7788V28.1116L65.2584 28.2366H66.6446V29.2743H64.8951L64.7701 29.3993V29.7321L64.8951 29.8571H66.0779V32.0098C65.9594 32.042 65.7728 32.091 65.5175 32.1573L65.5113 32.1593C65.1958 32.2593 64.9449 32.3139 64.7555 32.3274L64.6472 32.4957L64.7925 32.8863L64.944 32.9629L68.5912 31.9212L68.6819 31.801V31.4249L68.5235 31.399L68.5095 31.3477L66.7057 31.8399V29.8715H68.0728C68.5111 30.7371 69.0767 31.4518 69.7572 31.9996C70.4625 32.5702 71.1309 32.9565 71.7911 33.1508L71.9191 33.1147C71.9876 33.0389 72.0429 32.9685 72.0838 32.9053C72.1234 32.8443 72.155 32.7817 72.1669 32.7227L72.083 32.5792C71.3838 32.3516 70.7208 31.971 70.1063 31.4475L71.2171 30.3415L71.197 30.1481L70.8627 29.9311L70.6948 29.9607C70.5774 30.1166 70.2328 30.4626 69.6365 31.005C69.3568 30.7122 69.0743 30.3302 68.7898 29.8571H71.8118L71.9368 29.7321V29.3993L71.8118 29.2743H69.6119V28.2366H71.3178L71.4428 28.1116V27.7788L71.3178 27.6538H69.6119V26.7516L69.4869 26.6266H69.1091L68.9841 26.7516V27.6538H67.2724V26.7516L67.1474 26.6266H66.7696ZM67.2724 29.2888V28.2511H68.9841V29.2888H67.2724ZM76.064 30.2007L75.9298 30.3253V31.1987H74.8575V30.4266L74.7325 30.3016H74.3547L74.2297 30.4266V31.6564L74.3547 31.7814H75.7932C75.5753 32.2105 75.1365 32.4944 74.4628 32.6186L74.3952 32.828L74.6858 33.1318L74.7931 33.1692C75.2407 33.1077 75.6705 32.9081 76.0512 32.5597C76.2659 32.37 76.4095 32.086 76.4928 31.7204C76.5762 31.354 76.6014 30.8965 76.572 30.3476L76.4564 30.2296L76.064 30.2007ZM82.6373 24.2539L82.5123 24.3789V33.3637L82.6373 33.4887H83.0151L83.1401 33.3637V24.3789L83.0151 24.2539H82.6373ZM84.4013 26.3466L84.5263 26.2216H89.5249L89.6499 26.3466V28.0393L89.5249 28.1643H87.175L87.2959 28.2853V29.9058L87.1709 30.0308H87.0611L87.1781 30.1279L87.1769 30.3212L87.0186 30.4493C87.0236 30.4582 87.0292 30.4678 87.0355 30.4782L87.0403 30.486L87.0519 30.5043C87.0918 30.5663 87.1477 30.6428 87.22 30.7344C87.3517 30.9012 87.5337 31.1123 87.7626 31.3672C87.8704 31.3 88.0139 31.1957 88.1966 31.0532C88.4292 30.8719 88.7185 30.6343 89.0673 30.3449L89.2353 30.3525L89.4678 30.584L89.4615 30.767C88.9609 31.2016 88.5383 31.5358 88.2036 31.7794C88.7746 32.2399 89.447 32.602 90.2455 32.8538L90.3175 33.0331L90.1431 33.3514L89.991 33.4089C89.184 33.1167 88.5185 32.7789 87.9975 32.3935L87.9961 32.3925C87.5122 32.024 87.0193 31.497 86.5292 30.8278L85.8864 31.2467V32.3801L87.1259 31.9015L87.2959 32.0181V32.3798L87.2191 32.4952L84.9668 33.4356L84.8304 33.4088C84.7819 33.3605 84.7489 33.2929 84.7234 33.2247C84.697 33.1539 84.6738 33.0682 84.6516 32.9723L84.7271 32.828C84.805 32.7969 84.8965 32.7667 85.0427 32.723C85.1121 32.7023 85.1822 32.6779 85.2354 32.6585L85.2441 32.6553V31.5977C84.5264 31.954 84.0182 32.1998 83.7205 32.3346L83.5651 32.2902L83.3617 31.9864L83.4158 31.8022C84.8484 31.1808 85.9404 30.5622 86.7105 29.9481L86.6681 29.9058V28.2853L86.7891 28.1643H84.5263L84.4013 28.0393V26.3466ZM85.0291 26.8043V27.596H85.898V26.8043H85.0291ZM86.5403 26.8043V27.596H87.4237V26.8043H86.5403ZM88.0515 26.8043V27.596H89.0076V26.8043H88.0515ZM83.5674 26.3082L83.2913 26.4529L83.2319 26.6065C83.464 27.2419 83.622 27.729 83.7076 28.0698L83.876 28.1551L84.1956 28.0249L84.2693 27.877C84.1367 27.3784 83.9602 26.8807 83.7402 26.3695L83.5674 26.3082ZM81.7743 26.6081L81.9425 26.5198L82.2331 26.6355L82.3094 26.7763C82.1769 27.436 81.9564 28.167 81.6341 28.9548L81.4647 29.0203L81.1305 28.8611L81.0685 28.701C81.3872 27.922 81.6313 27.2348 81.7743 26.6081ZM89.5873 28.2245C88.8909 28.4556 88.3026 28.6267 87.8038 28.7119L87.813 28.8202L87.8153 28.8482L87.7297 28.8952C87.814 29.049 87.8524 29.1544 87.8634 29.1983L87.9343 29.2445C87.8731 29.231 87.8112 29.2178 87.7487 29.2047L87.6029 29.2925L87.5158 29.5964L87.6104 29.7532C88.2286 29.8821 88.9349 30.0829 89.7294 30.3705L89.7372 30.349L89.7574 30.378H89.7719L89.7917 30.2655L89.8748 30.2959L89.9911 29.9776L89.918 29.8178C89.3841 29.6153 88.7749 29.4353 88.0814 29.2774C88.5076 29.1964 89.0854 29.0245 89.8001 28.7645L89.8722 28.5976L89.7414 28.2938L89.5873 28.2245ZM84.3217 28.3437L84.4683 28.265C85.3063 28.4664 85.8989 28.6135 86.2 28.7334L86.2775 28.8673C86.2648 28.9556 86.2321 29.0477 86.2 29.1376C86.1899 29.166 86.1799 29.1942 86.1706 29.222L86.151 29.2155L86.1232 29.2354L86.3817 29.1632L86.5403 29.2836V29.6309L86.4492 29.7512C85.7298 29.9538 85.182 30.1091 84.8033 30.221C84.6138 30.2769 84.4677 30.3217 84.3641 30.3559C84.3121 30.373 84.272 30.3871 84.243 30.3983C84.2187 30.4076 84.2074 30.413 84.204 30.4147L84.0136 30.3447L83.9119 29.983L83.9986 29.8288L85.9329 29.2886C85.2885 29.0726 84.7519 28.9233 84.297 28.8272L84.2055 28.662L84.3217 28.3437Z" fill="white"/>
<path d="M111.263 33.2191C111.277 32.5391 111.539 31.9893 112.019 31.5842C112.498 31.1791 113.036 30.9766 113.631 30.9766H113.704C113.704 30.9766 113.748 30.9766 113.762 30.9766C114.329 31.0055 114.838 31.237 115.303 31.6566C115.768 32.0762 116 32.6115 116 33.2481V33.3204C115.971 34.0004 115.768 34.5647 115.361 34.9987C114.954 35.4328 114.402 35.6498 113.675 35.6788H113.573C112.89 35.6788 112.324 35.4473 111.902 34.9698C111.466 34.4924 111.263 33.9136 111.263 33.2191ZM111.655 33.2191C111.655 33.8123 111.83 34.3043 112.193 34.7094C112.556 35.1 113.036 35.3026 113.631 35.3026C114.227 35.3026 114.707 35.129 115.07 34.7817C115.433 34.4345 115.608 33.957 115.608 33.3349C115.608 32.7128 115.419 32.2353 115.026 31.8881C114.634 31.5408 114.169 31.3672 113.631 31.3672C113.094 31.3672 112.629 31.5553 112.237 31.9315C111.844 32.3076 111.655 32.7417 111.655 33.2336V33.2191ZM113.777 31.9459C114.096 31.9459 114.373 31.9893 114.591 32.0762C114.808 32.163 114.91 32.3655 114.91 32.6838C114.91 32.9298 114.838 33.1179 114.692 33.2336C114.547 33.3638 114.373 33.4362 114.198 33.4651C114.169 33.4651 114.155 33.4651 114.14 33.4651C114.126 33.4651 114.096 33.4651 114.082 33.4651L114.867 34.637H114.431L113.69 33.4506H113.152V34.637H112.76V31.9315H113.791L113.777 31.9459ZM113.137 33.1323H113.922C114.14 33.1323 114.3 33.1034 114.387 33.0311C114.474 32.9587 114.518 32.843 114.518 32.6983C114.518 32.5247 114.46 32.4234 114.358 32.38C114.242 32.3366 114.111 32.3076 113.937 32.3076H113.152V33.1323H113.137Z" fill="white"/>
<path d="M40.1054 16.4937H39.0156L38.4053 18.606L37.795 16.4937H36.6616L37.5044 18.7507C37.5625 18.9243 37.7805 19.4307 37.7805 19.6044C37.7805 19.8358 37.6061 19.9661 37.3591 19.9661H36.9958V20.8342H37.4898C38.2164 20.8342 38.5942 20.7473 38.8557 20.0384L40.1345 16.5081L40.1054 16.4937Z" fill="white"/>
<path fill-rule="evenodd" clip-rule="evenodd" d="M41.3258 17.7817C41.384 17.391 41.6455 17.1161 42.0088 17.1161C42.3721 17.1161 42.6191 17.42 42.6481 17.7817H41.3258ZM43.7089 18.3749C43.7525 17.2753 43.1713 16.4072 42.0088 16.4072C41.0497 16.4072 40.2505 17.1161 40.2505 18.1144C40.2505 19.1996 40.9771 19.8362 42.0378 19.8362C42.7644 19.8362 43.4619 19.5179 43.6508 18.7655H42.6627C42.561 18.997 42.3139 19.1272 42.0524 19.1272C41.6019 19.1272 41.3404 18.8379 41.3258 18.3893H43.7089V18.3749Z" fill="white"/>
<path fill-rule="evenodd" clip-rule="evenodd" d="M45.1328 18.8089C45.1328 18.5485 45.3363 18.4472 45.5688 18.3893C45.8013 18.3315 46.0773 18.3025 46.2227 18.2157C46.2517 18.8813 46.0773 19.1706 45.5688 19.1706C45.3363 19.1706 45.1183 19.0693 45.1183 18.8089M45.1764 17.4923C45.22 17.2174 45.4089 17.0872 45.7141 17.0872C45.932 17.0872 46.2227 17.174 46.2227 17.42C46.2227 17.6225 46.1209 17.6804 45.9466 17.7238C45.2055 17.8685 44.0576 17.7961 44.0576 18.8523C44.0576 19.5179 44.5516 19.8362 45.1619 19.8362C45.5542 19.8362 45.9611 19.7204 46.2372 19.4311C46.2372 19.5323 46.2663 19.6336 46.2953 19.7349H47.3706C47.2398 19.4745 47.2398 19.1851 47.2398 18.9102V17.4923C47.2398 16.5808 46.4987 16.4072 45.7286 16.4072C45.3653 16.4072 44.9875 16.4651 44.6969 16.6387C44.4063 16.8123 44.2029 17.0872 44.1883 17.5068H45.191L45.1764 17.4923Z" fill="white"/>
<path d="M47.9956 19.7346H49.0564V18.1286C49.0564 17.7235 49.3325 17.3618 49.8556 17.3618C50.0009 17.3618 50.1317 17.3908 50.2625 17.4197V16.4503C50.1753 16.4358 50.0881 16.4214 50.0154 16.4214C49.5504 16.4214 49.1872 16.6384 49.0419 17.058V16.4937H48.0102V19.7346H47.9956Z" fill="white"/>
<path d="M50.4512 18.6642C50.4802 19.5613 51.2794 19.8217 52.0496 19.8217C52.8197 19.8217 53.6044 19.5323 53.6044 18.6642C53.6044 18.3893 53.43 17.9264 52.7761 17.7961C52.2821 17.6949 51.5701 17.637 51.5701 17.3332C51.5701 17.1017 51.8461 17.0872 52.035 17.0872C52.1658 17.0872 52.2821 17.1161 52.3692 17.174C52.4564 17.2319 52.5 17.3187 52.5 17.4489H53.4881C53.4445 16.6097 52.7035 16.4072 51.9914 16.4072C51.3521 16.4072 50.5093 16.6242 50.5093 17.4055C50.5093 18.2736 51.3521 18.3025 52.0205 18.4617C52.2094 18.5051 52.5436 18.563 52.5436 18.8089C52.5436 19.0549 52.253 19.1562 52.035 19.1562C51.8897 19.1562 51.7444 19.1128 51.6427 19.0404C51.541 18.9536 51.4683 18.8379 51.4683 18.6787H50.4512V18.6642Z" fill="white"/>
<path d="M58.5301 7.27734H61.4508V12.0374H66.246V14.96H61.4508V19.7345H58.5301V14.96H53.7349V12.0374H58.5301V7.27734Z" fill="white"/>
</g>
<defs>
<clipPath id="clip0_504_459">
<rect width="116" height="60" fill="white"/>
</clipPath>
</defs>
</svg>
