<svg width="162" height="51" viewBox="0 0 162 51" fill="none" xmlns="http://www.w3.org/2000/svg">
<g clip-path="url(#clip0_421_5544)">
<path d="M23.2092 10.5758C23.4502 10.2764 23.5306 9.74326 23.5306 9.74326H9.16552C9.16552 9.74326 9.34079 10.3348 9.49416 10.5758H23.2092Z" fill="#A78337"/>
<path d="M22.3767 11.7954C22.6469 11.5544 22.9171 11.0797 22.9171 11.0797H9.75706C9.75706 11.0797 9.90313 11.4376 10.2318 11.7954H22.3694H22.3767Z" fill="#A78337"/>
<path d="M21.3324 12.8982C21.661 12.7229 21.9239 12.3577 21.9239 12.3577H10.6772C10.6772 12.3577 10.9475 12.6572 11.2104 12.8982H21.3324Z" fill="#A78337"/>
<path d="M20.0251 13.9425C20.3538 13.8184 20.7116 13.5262 20.7116 13.5262H11.9407C11.9407 13.5262 11.9407 13.592 12.5614 13.9425H20.0251Z" fill="#A78337"/>
<path d="M13.5619 14.5925C13.5619 14.5925 14.4894 15.1329 16.3006 15.1329C18.1117 15.1329 19.2729 14.5925 19.2729 14.5925H13.5619Z" fill="#A78337"/>
<path d="M13.4159 15.8121C13.4159 15.8121 14.5186 15.8705 15.1686 16.3744C15.7967 16.9148 16.2714 17.8058 16.2714 17.8058C16.2714 17.8058 16.6584 16.9514 17.2865 16.4986C17.9072 16.0166 18.9224 15.8121 18.9224 15.8121H30.2567L32.4914 19.1131H22.311C22.311 19.1131 21.5953 19.1423 20.529 19.7703C19.9594 20.0917 19.5431 20.6613 19.5431 20.6613C19.5431 20.6613 19.4628 20.9315 19.3386 21.0776C19.2218 21.2309 19.1269 21.3478 18.9808 21.4062C18.8274 21.4719 18.8639 21.4354 18.8639 21.4354H13.5692C13.5692 21.4354 13.3575 21.3478 13.2406 21.1652C13.1238 20.9899 13.2114 21.0484 13.0872 20.9023C12.9996 20.7562 12.7878 20.3619 11.9845 19.8287C11.1519 19.2883 10.3486 19.2299 10.3486 19.2299H0.000213623L2.25685 15.8048H13.4159V15.8121Z" fill="#003974"/>
<path d="M5.41176 20.486V37.3852C5.41176 37.3852 5.47018 38.8751 6.7263 40.898C7.97512 42.9209 9.78627 43.8484 9.78627 43.8484L11.2177 41.6137C11.2177 41.6137 9.96885 40.8688 9.01946 39.4374C8.09927 38.0133 8.09927 36.7864 8.09927 36.7864V20.4787H5.41906L5.41176 20.486Z" fill="#003974"/>
<path d="M24.5749 20.4276V36.7353C24.5749 36.7353 24.3704 38.3711 23.5963 39.5323C22.8222 40.7227 21.5368 41.6794 21.5368 41.6794L22.9098 43.8776C22.9098 43.8776 24.9912 42.3659 25.999 40.7519C27.0141 39.1453 27.2551 36.7353 27.2551 36.7353V20.4276H24.5749Z" fill="#003974"/>
<path d="M1.16139 20.486V37.451C1.16139 37.451 1.33666 40.0728 2.97254 42.8114C4.61573 45.5427 7.58806 47.4488 7.58806 47.4488L8.99024 45.2214C8.99024 45.2214 7.08415 44.2063 5.57242 41.8839C4.01688 39.5323 3.93654 37.3925 3.93654 37.3925V20.4933H1.16139V20.486Z" fill="#003974"/>
<path d="M13.4159 22.268V40.1823C13.4159 40.1823 13.3502 40.2407 13.3282 40.5109C13.299 40.7811 13.1165 40.9637 13.1165 40.9637L7.13528 50.8739H25.4659L19.4847 40.7519L19.3094 40.2991L19.251 39.8244V22.2972H17.0163V40.4817C17.0163 40.4817 17.0163 40.7446 17.1039 40.9564C17.1623 41.1682 17.2865 41.4895 17.2865 41.4895L20.9745 47.5584H11.6339L15.2635 41.5188C15.2635 41.5188 15.3804 41.3143 15.4753 41.0148C15.5338 40.7446 15.563 40.4817 15.563 40.4817V22.2607H13.4232L13.4159 22.268Z" fill="#A78337"/>
<path d="M28.7084 20.4276V37.0931C28.7084 37.0931 28.6792 39.2329 27.1018 41.7013C25.5243 44.1771 23.7059 45.2141 23.7059 45.2141L25.0496 47.4707C25.0496 47.4707 27.7809 45.7472 29.5118 43.0086C31.2061 40.2699 31.4179 37.0858 31.4179 37.0858V20.4203H28.7084V20.4276Z" fill="#003974"/>
<path d="M9.07058 9.26857C9.07058 9.26857 8.15039 4.24408 11.8384 1.73915C11.8384 1.73915 13.5035 0.190903 16.2129 0.190903C19.1049 0.190903 20.7627 1.70993 20.7627 1.70993C24.7794 4.65305 23.589 9.26857 23.589 9.26857H9.07058Z" fill="#A78337"/>
<path d="M48.3828 6.79994V11.6784H47.3385V11.1598H41.8101V11.6784H40.7657V6.85836C40.5832 6.93869 40.2618 7.05554 39.809 7.2089L39.2686 6.20839C40.6343 5.87975 41.8174 5.28821 42.8325 4.44106H39.3636V3.50627H43.9791V2.59339C42.2921 2.63721 41.0871 2.65912 40.3495 2.65912L39.977 1.62209C40.4006 1.63669 40.9337 1.644 41.5618 1.644C44.5487 1.644 46.8126 1.46872 48.3463 1.12548L48.8283 2.04566C47.8059 2.25745 46.5424 2.42542 45.0307 2.54957V3.49166H49.7704V4.42645H46.1481C47.0025 5.25169 48.2367 5.82133 49.858 6.14997L49.3614 7.17239C49.208 7.10666 49.0474 7.04094 48.8648 6.98981C48.6822 6.93869 48.5216 6.87297 48.3682 6.78533L48.3828 6.79994ZM41.4157 6.54433H43.9791V4.47757C43.3291 5.40506 42.4746 6.09884 41.4157 6.54433ZM47.3385 7.48642H41.8101V8.34087H47.3385V7.48642ZM41.8028 10.2251H47.3312V9.23184H41.8028V10.2251ZM45.0307 4.46297V6.54433H47.8059C46.6593 6.09154 45.7318 5.39775 45.0307 4.46297Z" fill="#003974"/>
<path d="M56.0364 8.18772C55.7297 9.40002 55.255 10.5174 54.6123 11.5398L53.714 10.6196C54.3713 9.68484 54.8241 8.68433 55.0651 7.61808L56.0437 8.18772H56.0364ZM55.3426 6.36926C54.7364 5.85075 54.2106 5.44908 53.7724 5.15696L54.4443 4.30981C54.9774 4.59463 55.5325 4.95978 56.1094 5.39796L55.3426 6.36196V6.36926ZM56.438 2.3526H57.9352V1.18411H58.9649V2.3526H61.0171V1.18411H62.0322V2.3526H63.8871V3.24357H62.0322V4.40475H64.0551V5.34684H61.908C62.2074 5.95299 62.967 6.55914 64.1793 7.15799L63.6973 8.15851C63.0108 7.74954 62.4411 7.34057 61.9883 6.9316V9.23936H58.366V9.95505C58.366 10.218 58.4975 10.3494 58.7604 10.3494H62.0979C62.4119 10.3494 62.6018 10.2326 62.6602 9.99887C62.7187 9.75787 62.7771 9.3416 62.8282 8.75005L63.909 9.14442C63.7922 10.1887 63.6242 10.8095 63.427 11.0213C63.2299 11.2258 62.8428 11.328 62.2732 11.328H58.629C58.147 11.328 57.811 11.2404 57.6138 11.0578C57.424 10.8679 57.3363 10.5247 57.3363 10.0135V7.49393C57.1464 7.64729 56.8032 7.8883 56.2993 8.20233L55.6566 7.26023C56.8981 6.6979 57.6869 6.06254 58.0155 5.36145H56.219V4.41935H57.9425V3.29469H56.4454V2.68854L55.7589 3.54299C55.1454 2.98066 54.5831 2.54248 54.0865 2.22845L54.8314 1.3959C55.4667 1.79757 56.0072 2.17002 56.4527 2.50596V2.3599L56.438 2.3526ZM58.3514 7.24563V8.34839H60.9367V7.24563H58.3514ZM59.2059 5.34684C59.0379 5.7266 58.8188 6.06984 58.5413 6.36196H61.4041C61.1558 6.08445 60.9294 5.74851 60.7176 5.34684H59.1986H59.2059ZM58.9576 3.29469V4.39745H61.0024V3.29469H58.9576Z" fill="#003974"/>
<path d="M70.2043 2.71045C69.8099 2.78348 69.2257 2.8492 68.4588 2.90033L68.2251 1.95823C69.9048 1.8779 71.3435 1.60769 72.5558 1.1476L72.9356 2.06778C72.3952 2.25766 71.8328 2.41102 71.2413 2.52787V4.11263H72.9502V5.07663H71.2413V5.17887C72.0811 5.96029 72.7165 6.58105 73.1401 7.04114L72.512 8.00514C72.2856 7.69111 72.0592 7.40629 71.8401 7.15069C71.643 6.91699 71.4458 6.66869 71.2413 6.39848V11.6128L70.2043 11.6567V7.03384C69.9194 7.74954 69.4082 8.58939 68.6779 9.55339L68.0499 8.53826C68.992 7.46472 69.7003 6.31084 70.175 5.06202H68.1156V4.09802H70.2043V2.69584V2.71045ZM72.8114 9.15172V8.10739L76.5798 7.54505V1.08187H77.6241V7.4209L78.6393 7.25293V8.27535L77.6241 8.44333V11.6713H76.5798V8.58208L72.8114 9.15902V9.15172ZM75.258 6.87317C74.4838 6.23051 73.8047 5.7339 73.2131 5.37605L73.8777 4.62384C74.44 4.91596 75.1338 5.37605 75.959 6.00411L75.2653 6.86587L75.258 6.87317ZM75.4551 4.14184C74.6226 3.47726 73.9507 2.98796 73.4322 2.66663L74.1041 1.92172C74.5934 2.19193 75.2799 2.65202 76.1635 3.29469L75.4551 4.13454V4.14184Z" fill="#003974"/>
<path d="M86.6507 4.41205H85.3215V6.39848C85.9204 6.2013 86.3586 6.04063 86.6361 5.90187V7.00463C86.4024 7.12878 85.9642 7.30405 85.3215 7.52314V10.2764C85.3215 10.8095 85.2412 11.1601 85.0951 11.3353C84.9345 11.5179 84.5839 11.6055 84.0289 11.6055H83.1379L82.8823 10.4663L83.8609 10.5028C84.1092 10.5028 84.2334 10.3786 84.2334 10.1303V7.83717C83.598 8.00514 83.0941 8.12929 82.7289 8.21693L82.4587 7.00463C83.1087 6.92429 83.7003 6.80745 84.2334 6.66869V4.41205H82.5683V3.38963H84.2334V1.08187H85.3361V3.38963H86.6653V2.67393H89.0826V1.08187H90.2V2.66663H92.8509V3.68905H90.2V5.19348H92.4712V6.12826C92.3763 6.53723 92.128 7.06305 91.7336 7.71302C91.3392 8.36299 90.9303 8.88151 90.5067 9.25396C91.2589 9.86742 92.106 10.3056 93.0481 10.5685L92.4712 11.6274C91.4853 11.3061 90.5578 10.7438 89.6814 9.95505C88.4983 10.8606 87.3664 11.4303 86.2855 11.6494L85.6721 10.6269C86.7529 10.3859 87.8265 9.90393 88.9073 9.17363C88.3304 8.58939 87.768 7.79336 87.213 6.77823L88.1478 6.40578C88.6663 7.31866 89.1775 8.03436 89.696 8.55287C90.4629 7.94672 91.0033 7.1726 91.3246 6.2232H86.8625V5.18617H89.0899V3.68175H86.6726V4.40475L86.6507 4.41205Z" fill="#003974"/>
<path d="M103.572 5.09854C103.747 6.01142 104.149 6.96812 104.784 7.97593C105.419 8.97645 106.296 9.84551 107.413 10.5831L106.551 11.6201C104.528 10.291 103.141 8.12199 102.389 5.09854H102.206C101.702 7.80066 100.19 9.98427 97.671 11.6421L96.8165 10.5758C97.8827 9.96966 98.7956 9.17363 99.5624 8.18042C100.315 7.19451 100.789 6.17209 100.965 5.11315H97.0867V3.92275H101.154C101.249 3.24357 101.301 2.30148 101.301 1.10378H102.484C102.484 2.39642 102.454 3.33121 102.396 3.92275H107.158V5.11315L103.564 5.09854H103.572Z" fill="#003974"/>
<path d="M119.609 7.19451V8.01244C118.952 8.36299 118.134 8.69163 117.17 8.99105H121.837V9.90393H117.17V10.364C117.17 11.1674 116.827 11.569 116.148 11.569H114.497L114.242 10.6561L115.782 10.7C116.009 10.7 116.118 10.5904 116.118 10.364V9.90393H111.24V8.99105H116.118V8.50905C116.637 8.42141 117.294 8.26075 118.09 8.02705H113.358V7.19451H119.617H119.609ZM120.602 6.71251H112.482V8.36299H111.481V5.82154H112.043L111.919 1.50545C112.898 1.47623 113.723 1.36669 114.395 1.17681L114.892 2.00935C114.475 2.15541 113.803 2.25035 112.89 2.31608L112.927 2.89302H114.68V3.65984H112.956V4.30251H114.68V5.07663H112.993L113.015 5.82884H120.055L120.069 5.07663H118.492V4.30251H120.099L120.12 3.65984H118.492V2.89302H120.142L120.157 2.27226H118.368V1.38129H121.143L121.019 5.82154H121.618V8.36299H120.602V6.71251ZM116.703 2.66663C116.33 2.90763 115.892 3.13402 115.388 3.35311L114.811 2.6009C115.439 2.42563 115.855 2.27226 116.045 2.14081C115.855 1.99475 115.6 1.81217 115.279 1.61499L115.885 1.08917C116.177 1.27905 116.476 1.48354 116.776 1.70993C117.097 1.49084 117.323 1.29366 117.462 1.10378L118.025 1.60769C117.864 1.83408 117.637 2.03126 117.36 2.21384C117.506 2.34529 117.71 2.54978 117.959 2.81269L117.272 3.3166C116.973 2.89302 116.783 2.67393 116.695 2.67393L116.703 2.66663ZM116.776 4.97438C116.432 5.21538 115.994 5.42717 115.461 5.60245L114.979 4.85023C115.498 4.74069 115.885 4.60193 116.148 4.44857C115.994 4.33902 115.746 4.15645 115.395 3.90814L115.98 3.41154C116.126 3.50648 116.25 3.59411 116.374 3.65984C116.52 3.75478 116.673 3.87163 116.849 4.01038C117.068 3.87163 117.331 3.63793 117.623 3.3166L118.214 3.82051C117.937 4.09802 117.681 4.32441 117.455 4.49238C117.674 4.68226 117.886 4.87945 118.098 5.09123L117.375 5.63896C117.031 5.20078 116.834 4.97438 116.783 4.97438H116.776Z" fill="#003974"/>
<path d="M42.5842 24.3055H41.5545V16.9879H39.5899V16.0458H44.5414V16.9879H42.5769V24.3055H42.5842Z" fill="#003974"/>
<path d="M50.34 19.376V16.0458H51.3697V24.3055H50.34V20.34H46.4037V24.3055H45.3739V16.0458H46.4037V19.376H50.34Z" fill="#003974"/>
<path d="M52.9691 16.0458H57.4093V16.9879H53.9988V19.3029H57.3071V20.245H53.9988V23.3707H57.4093V24.3128H52.9691V16.0531V16.0458Z" fill="#003974"/>
<path d="M66.9398 19.376V16.0458H67.9695V24.3055H66.9398V20.34H63.0034V24.3055H61.9737V16.0458H63.0034V19.376H66.9398Z" fill="#003974"/>
<path d="M77.646 20.1793C77.646 22.6331 75.7034 24.4881 73.3153 24.4881C70.9272 24.4881 68.9846 22.6331 68.9846 20.1793C68.9846 17.7255 70.9491 15.8705 73.3153 15.8705C75.6815 15.8705 77.646 17.8131 77.646 20.1793ZM76.6163 20.1793C76.6163 18.3608 75.2579 16.8345 73.3153 16.8345C71.3727 16.8345 70.0144 18.3608 70.0144 20.1793C70.0144 21.9978 71.5261 23.5241 73.3153 23.5241C75.1046 23.5241 76.6163 22.0635 76.6163 20.1793Z" fill="#003974"/>
<path d="M78.6538 15.6514L84.8541 22.1511V16.0458H85.8838V24.6488L79.6836 18.1491V24.3055H78.6538V15.6514Z" fill="#003974"/>
<path d="M94.9907 20.1428V20.4714C94.9907 22.7427 93.3914 24.4808 91.0763 24.4808C88.7612 24.4808 86.899 22.4871 86.899 20.1939C86.899 17.9008 88.805 15.8632 91.1858 15.8632C92.4712 15.8632 93.7419 16.4401 94.5525 17.4626L93.8295 18.1491C93.238 17.3384 92.2375 16.798 91.2297 16.798C89.382 16.798 87.936 18.3024 87.936 20.1501C87.936 21.8809 89.3601 23.5241 91.142 23.5241C92.4274 23.5241 93.8003 22.414 93.8514 21.0703H91.7117V20.1282H94.9907V20.1428Z" fill="#003974"/>
<path d="M103.93 16.0458H105.281L101.563 19.763L105.346 24.3128H103.959L100.848 20.4641L100.431 20.8585V24.3128H99.4018V16.0531H100.431V19.6389L103.937 16.0531L103.93 16.0458Z" fill="#003974"/>
<path d="M114.154 20.1793C114.154 22.6331 112.219 24.4881 109.83 24.4881C107.442 24.4881 105.5 22.6331 105.5 20.1793C105.5 17.7255 107.464 15.8705 109.83 15.8705C112.197 15.8705 114.154 17.8131 114.154 20.1793ZM113.131 20.1793C113.131 18.3608 111.773 16.8345 109.83 16.8345C107.888 16.8345 106.53 18.3608 106.53 20.1793C106.53 21.9978 108.041 23.5241 109.83 23.5241C111.62 23.5241 113.131 22.0635 113.131 20.1793Z" fill="#003974"/>
<path d="M115.162 15.6514L121.362 22.1511V16.0458H122.392V24.6488L116.191 18.1491V24.3055H115.162V15.6514Z" fill="#003974"/>
<path d="M131.506 20.1428V20.4714C131.506 22.7427 129.907 24.4808 127.591 24.4808C125.276 24.4808 123.414 22.4871 123.414 20.1939C123.414 17.9008 125.32 15.8632 127.701 15.8632C128.986 15.8632 130.257 16.4401 131.068 17.4626L130.345 18.1491C129.753 17.3384 128.753 16.798 127.745 16.798C125.897 16.798 124.451 18.3024 124.451 20.1501C124.451 21.8809 125.875 23.5241 127.657 23.5241C128.935 23.5241 130.315 22.414 130.367 21.0703H128.227V20.1282H131.506V20.1428Z" fill="#003974"/>
<path d="M41.2477 29.1912V34.0697C41.2477 35.4207 41.6567 36.6622 43.2415 36.6622C44.8262 36.6622 45.2352 35.4134 45.2352 34.0697V29.1912H46.2649V34.4202C46.2649 36.2387 45.1329 37.6262 43.2415 37.6262C41.35 37.6262 40.218 36.2387 40.218 34.4202V29.1912H41.2477Z" fill="#003974"/>
<path d="M47.7036 28.7969L53.9039 35.2966V29.1912H54.9336V37.7942L48.7333 31.2945V37.451H47.7036V28.7969Z" fill="#003974"/>
<path d="M57.5116 37.451H56.4818V29.1912H57.5116V37.451Z" fill="#003974"/>
<path d="M61.8934 35.3039L64.3472 29.1912H65.4792L61.8934 37.8891L58.3003 29.1912H59.4323L61.9007 35.3039H61.8934Z" fill="#003974"/>
<path d="M66.2825 29.1912H70.7228V30.1333H67.3122V32.4484H70.6205V33.3905H67.3122V36.5162H70.7228V37.4583H66.2825V29.1985V29.1912Z" fill="#003974"/>
<path d="M77.2444 37.451H75.9955L73.5636 33.9528H73.1401V37.451H72.1103V29.1912H73.3591C74.0894 29.1912 74.8782 29.2058 75.5427 29.5783C76.2292 29.98 76.6309 30.7614 76.6309 31.5501C76.6309 32.7332 75.8422 33.7191 74.6445 33.8579L77.2517 37.451H77.2444ZM73.1327 33.1057H73.4614C74.513 33.1057 75.6523 32.9085 75.6523 31.5939C75.6523 30.2794 74.4254 30.1114 73.403 30.1114H73.1327V33.1057Z" fill="#003974"/>
<path d="M81.8307 30.7614C81.5239 30.2429 81.1296 29.98 80.5088 29.98C79.8515 29.98 79.1285 30.4328 79.1285 31.1558C79.1285 31.8057 79.7639 32.1417 80.2824 32.3388L80.874 32.5725C82.0425 33.0326 82.9261 33.6753 82.9261 35.0556C82.9261 36.56 81.7649 37.6335 80.2824 37.6335C78.946 37.6335 77.9016 36.6476 77.7264 35.3258L78.7707 35.1067C78.7634 36.0196 79.4864 36.6695 80.3701 36.6695C81.2537 36.6695 81.8964 35.9246 81.8964 35.0556C81.8964 34.1865 81.1807 33.7848 80.4723 33.4927L79.9027 33.2517C78.9606 32.8428 78.1061 32.3096 78.1061 31.1558C78.1061 29.8193 79.2892 29.016 80.538 29.016C81.4582 29.016 82.2104 29.4688 82.6632 30.2648L81.838 30.7614H81.8307Z" fill="#003974"/>
<path d="M85.1535 37.451H84.1238V29.1912H85.1535V37.451Z" fill="#003974"/>
<path d="M89.0315 37.451H88.0017V30.1333H86.0445V29.1912H90.996V30.1333H89.0388V37.451H89.0315Z" fill="#003974"/>
<path d="M91.0617 29.1912H92.2448L94.275 32.7186L96.298 29.1912H97.4811L94.7862 33.8579V37.451H93.7565V33.8579L91.0617 29.1912Z" fill="#003974"/>
<path d="M109.655 33.3248C109.655 35.7786 107.72 37.6335 105.325 37.6335C102.929 37.6335 100.994 35.7786 100.994 33.3248C100.994 30.8709 102.958 29.016 105.325 29.016C107.691 29.016 109.655 30.9586 109.655 33.3248ZM108.625 33.3248C108.625 31.5063 107.267 29.98 105.332 29.98C103.397 29.98 102.038 31.5063 102.038 33.3248C102.038 35.1432 103.55 36.6695 105.332 36.6695C107.114 36.6695 108.625 35.2089 108.625 33.3248Z" fill="#003974"/>
<path d="M111.78 30.1333V32.4557H114.65V33.3978H111.78V37.451H110.751V29.1912H114.753V30.1333H111.78Z" fill="#003974"/>
<path d="M123.005 30.7614C122.698 30.2429 122.304 29.98 121.683 29.98C121.026 29.98 120.303 30.4328 120.303 31.1558C120.303 31.8057 120.938 32.1417 121.457 32.3388L122.048 32.5725C123.224 33.0326 124.101 33.6753 124.101 35.0556C124.101 36.56 122.939 37.6335 121.457 37.6335C120.12 37.6335 119.076 36.6476 118.901 35.3258L119.945 35.1067C119.938 36.0196 120.661 36.6695 121.545 36.6695C122.428 36.6695 123.071 35.9246 123.071 35.0556C123.071 34.1865 122.362 33.7848 121.647 33.4927L121.077 33.2517C120.135 32.8428 119.281 32.3096 119.281 31.1558C119.281 29.8193 120.464 29.016 121.713 29.016C122.633 29.016 123.385 29.4688 123.838 30.2648L123.012 30.7614H123.005Z" fill="#003974"/>
<path d="M131.345 30.7687C130.754 30.2429 129.943 29.9581 129.162 29.9581C127.314 29.9581 125.897 31.5063 125.897 33.3321C125.897 35.1578 127.299 36.6842 129.14 36.6842C129.95 36.6842 130.732 36.3774 131.345 35.8297V37.042C130.71 37.4145 129.899 37.6262 129.176 37.6262C126.817 37.6262 124.875 35.7494 124.875 33.3613C124.875 30.9732 126.832 29.0087 129.264 29.0087C129.987 29.0087 130.724 29.1839 131.345 29.571V30.7614V30.7687Z" fill="#003974"/>
<path d="M133.682 37.451H132.652V29.1912H133.682V37.451Z" fill="#003974"/>
<path d="M135.34 29.1912H139.78V30.1333H136.377V32.4484H139.685V33.3905H136.377V36.5162H139.78V37.4583H135.34V29.1985V29.1912Z" fill="#003974"/>
<path d="M141.058 28.7969L147.259 35.2966V29.1912H148.288V37.7942L142.088 31.2945V37.451H141.058V28.7969Z" fill="#003974"/>
<path d="M155.883 30.7687C155.292 30.2429 154.481 29.9581 153.707 29.9581C151.852 29.9581 150.443 31.5063 150.443 33.3321C150.443 35.1578 151.845 36.6842 153.685 36.6842C154.496 36.6842 155.277 36.3774 155.883 35.8297V37.042C155.248 37.4145 154.437 37.6262 153.714 37.6262C151.363 37.6262 149.413 35.7494 149.413 33.3613C149.413 30.9732 151.37 29.0087 153.809 29.0087C154.532 29.0087 155.263 29.1839 155.891 29.571V30.7614L155.883 30.7687Z" fill="#003974"/>
<path d="M157.22 29.1912H161.66V30.1333H158.25V32.4484H161.565V33.3905H158.25V36.5162H161.66V37.4583H157.22V29.1985V29.1912Z" fill="#003974"/>
<path d="M41.5325 48.5297L40.5905 50.6037H39.4804L43.424 41.9935L47.3677 50.6037H46.2576L45.3155 48.5297H41.5252H41.5325ZM43.4313 44.2428L41.9634 47.5876H44.8992L43.4313 44.2428Z" fill="#003974"/>
<path d="M48.0761 41.9423L54.2763 48.442V42.3367H55.3061V50.9397L49.1058 44.44V50.5964H48.0761V41.9423Z" fill="#003974"/>
<path d="M56.7959 42.3367H58.5048C61.0389 42.3367 63.1422 43.6731 63.1422 46.4264C63.1422 49.1796 61.0827 50.6037 58.4756 50.6037H56.7959V42.344V42.3367ZM57.8256 49.6616H58.1907C60.294 49.6616 62.1125 48.8729 62.1125 46.4702C62.1125 44.0675 60.294 43.2788 58.1907 43.2788H57.8256V49.6543V49.6616Z" fill="#003974"/>
<path d="M69.7807 50.5964H68.7509V43.2788H66.7864V42.3367H71.7379V43.2788H69.7734V50.5964H69.7807Z" fill="#003974"/>
<path d="M72.6654 42.3367H77.1056V43.2788H73.6951V45.5938H77.0034V46.5359H73.6951V49.6616H77.1056V50.6037H72.6654V42.344V42.3367Z" fill="#003974"/>
<path d="M84.4963 43.9142C83.9047 43.3883 83.0941 43.1035 82.3127 43.1035C80.4577 43.1035 79.0482 44.6518 79.0482 46.4775C79.0482 48.3033 80.4504 49.8296 82.2908 49.8296C83.1014 49.8296 83.8828 49.5229 84.4963 48.9752V50.1875C83.8609 50.5599 83.0503 50.7717 82.3273 50.7717C79.9684 50.7717 78.0185 48.8948 78.0185 46.5067C78.0185 44.1186 79.9757 42.1541 82.4149 42.1541C83.1379 42.1541 83.8755 42.3294 84.4963 42.7165V43.9068V43.9142Z" fill="#003974"/>
<path d="M90.7111 45.6669V42.3367H91.7409V50.5964H90.7111V46.6309H86.7748V50.5964H85.7451V42.3367H86.7748V45.6669H90.7111Z" fill="#003974"/>
<path d="M93.238 41.9423L99.4383 48.442V42.3367H100.468V50.9397L94.2677 44.44V50.5964H93.238V41.9423Z" fill="#003974"/>
<path d="M110.123 46.4702C110.123 48.924 108.187 50.779 105.792 50.779C103.397 50.779 101.461 48.924 101.461 46.4702C101.461 44.0164 103.426 42.1614 105.792 42.1614C108.158 42.1614 110.123 44.104 110.123 46.4702ZM109.093 46.4702C109.093 44.6518 107.735 43.1254 105.792 43.1254C103.849 43.1254 102.498 44.6518 102.498 46.4702C102.498 48.2887 104.01 49.815 105.792 49.815C107.574 49.815 109.093 48.3544 109.093 46.4702Z" fill="#003974"/>
<path d="M112.262 49.6616H114.775V50.6037H111.233V42.344H112.262V49.6689V49.6616Z" fill="#003974"/>
<path d="M123.633 46.4702C123.633 48.924 121.698 50.779 119.31 50.779C116.922 50.779 114.979 48.924 114.979 46.4702C114.979 44.0164 116.944 42.1614 119.31 42.1614C121.676 42.1614 123.633 44.104 123.633 46.4702ZM122.603 46.4702C122.603 44.6518 121.245 43.1254 119.31 43.1254C117.375 43.1254 116.009 44.6518 116.009 46.4702C116.009 48.2887 117.521 49.815 119.31 49.815C121.099 49.815 122.603 48.3544 122.603 46.4702Z" fill="#003974"/>
<path d="M132.265 46.4337V46.7623C132.265 49.0336 130.666 50.7717 128.351 50.7717C126.036 50.7717 124.174 48.778 124.174 46.4848C124.174 44.1917 126.08 42.1541 128.461 42.1541C129.739 42.1541 131.017 42.7384 131.827 43.7535L131.104 44.4473C130.513 43.6366 129.512 43.0962 128.504 43.0962C126.649 43.0962 125.203 44.5933 125.203 46.4483C125.203 48.1791 126.627 49.8223 128.409 49.8223C129.695 49.8223 131.075 48.7122 131.119 47.3685H128.979V46.4264H132.258L132.265 46.4337Z" fill="#003974"/>
<path d="M132.543 42.3367H133.726L135.749 45.8641L137.779 42.3367H138.962L136.267 47.0033V50.5964H135.238V47.0033L132.543 42.3367Z" fill="#003974"/>
</g>
<defs>
<clipPath id="clip0_421_5544">
<rect width="161.66" height="50.7488" fill="white" transform="translate(0.000213623 0.190903)"/>
</clipPath>
</defs>
</svg>
