<svg width="180" height="46" viewBox="0 0 180 46" fill="none" xmlns="http://www.w3.org/2000/svg">
<path d="M37.5473 12.4594H36.3124V3.51605H33.9615V2.36387H39.897V3.51605H37.5473V12.4594Z" fill="#003366"/>
<path d="M46.8427 6.43443V2.36376H48.0773V12.4591H46.8427V7.61258H42.1293V12.4591H40.8964V2.36376H42.1293V6.43443H46.8427Z" fill="#003366"/>
<path d="M49.9949 2.36411H55.3121V3.51629H51.2279V6.34033H55.194V7.49251H51.2279V11.3072H55.3121V12.4594H49.9949V2.36411Z" fill="#003366"/>
<path d="M66.7355 6.43443V2.36376H67.9685V12.4591H66.7355V7.61258H62.0222V12.4591H60.7874V2.36376H62.0222V6.43443H66.7355Z" fill="#003366"/>
<mask id="mask0_514_3968" style="mask-type:luminance" maskUnits="userSpaceOnUse" x="0" y="0" width="180" height="46">
<path d="M0 45.2388H180L179.875 0.761166L0 0.891026V45.2388Z" fill="white"/>
</mask>
<g mask="url(#mask0_514_3968)">
<path d="M78.095 7.65014C78.095 5.42816 76.4675 3.56672 74.143 3.56672C71.8185 3.56672 70.1912 5.42816 70.1912 7.65014C70.1912 9.95309 72.0028 11.7335 74.143 11.7335C76.2827 11.7335 78.095 9.95309 78.095 7.65014ZM79.3299 7.65014C79.3299 10.6501 77.0054 12.9124 74.1428 12.9124C71.2802 12.9124 68.9557 10.6501 68.9557 7.65014C68.9557 4.75881 71.3054 2.3888 74.1428 2.3888C76.9785 2.3888 79.3299 4.75857 79.3299 7.65014Z" fill="#003366"/>
<path d="M80.5371 2.12078L87.9688 10.0602V2.60385H89.2027V13.1142L81.7724 5.17478V12.6992H80.5376V2.12102L80.5371 2.12078Z" fill="#003366"/>
<path d="M100.115 7.61073V8.01258C100.115 10.7833 98.1971 12.9122 95.4285 12.9122C92.6569 12.9122 90.4243 10.4758 90.4243 7.67802C90.4243 4.77158 92.7101 2.38859 95.5568 2.38859C97.0949 2.38859 98.6185 3.09832 99.5887 4.344L98.7225 5.18713C98.0135 4.19643 96.8178 3.53983 95.6103 3.53983C93.3925 3.53983 91.6601 5.37459 91.6601 7.63694C91.6601 9.75361 93.3675 11.7612 95.5051 11.7612C97.0433 11.7612 98.6944 10.4083 98.7477 8.76292H96.1875V7.61049L100.115 7.61073Z" fill="#003366"/>
<path d="M110.827 2.60326H112.442L107.991 7.14188L112.522 12.6986H110.855L107.125 7.99917L106.627 8.48106V12.6986H105.391V2.60326H106.627V6.98109L110.827 2.60326Z" fill="#003366"/>
<path d="M121.847 7.65014C121.847 5.42816 120.216 3.56672 117.892 3.56672C115.57 3.56672 113.939 5.42816 113.939 7.65014C113.939 9.95309 115.752 11.7335 117.892 11.7335C120.031 11.7335 121.847 9.95309 121.847 7.65014ZM123.077 7.65014C123.077 10.6501 120.754 12.9124 117.892 12.9124C115.032 12.9124 112.706 10.6501 112.706 7.65014C112.706 4.75881 115.057 2.3888 117.892 2.3888C120.728 2.3888 123.077 4.75857 123.077 7.65014Z" fill="#003366"/>
<path d="M124.287 2.12078L131.717 10.0602V2.60385H132.953V13.1142L125.52 5.17478V12.6992H124.287V2.12078Z" fill="#003366"/>
<path d="M143.865 7.61073V8.01258C143.865 10.7833 141.948 12.9122 139.179 12.9122C136.405 12.9122 134.174 10.4758 134.174 7.67802C134.174 4.77158 136.458 2.38859 139.306 2.38859C140.844 2.38859 142.368 3.09832 143.34 4.344L142.473 5.18713C141.763 4.19643 140.567 3.53983 139.361 3.53983C137.142 3.53983 135.409 5.37459 135.409 7.63694C135.409 9.75361 137.117 11.7612 139.254 11.7612C140.791 11.7612 142.445 10.4083 142.499 8.76292H139.938V7.61049L143.865 7.61073Z" fill="#003366"/>
<path d="M35.7103 18.6659V24.6225C35.7103 26.2698 36.1961 27.7965 38.0996 27.7965C40.0039 27.7965 40.4894 26.2696 40.4894 24.6225V18.6659H41.7243V25.0513C41.7243 27.2733 40.3713 28.9756 38.0996 28.9756C35.8286 28.9756 34.4757 27.2733 34.4757 25.0513V18.6659H35.7103Z" fill="#003366"/>
<path d="M43.4442 18.1831L50.8759 26.1228V18.6664H52.1098V29.1764L44.6795 21.2369V28.7608H43.4447V18.1829L43.4442 18.1831Z" fill="#003366"/>
<path d="M55.196 28.7609H53.9612V18.6656H55.196V28.7609Z" fill="#003366"/>
<path d="M60.4481 26.1361L63.3885 18.665H64.7414L60.4481 29.2968L56.1406 18.665H57.4935L60.4481 26.1361Z" fill="#003366"/>
<path d="M65.7129 18.6659H71.0301V19.8176H66.9477V22.6421H70.912V23.7938H66.9477V27.6078H71.0301V28.761H65.7129V18.6659Z" fill="#003366"/>
<path d="M73.9197 23.4457H74.3135C75.5741 23.4457 76.9399 23.204 76.9399 21.5978C76.9399 20.018 75.4687 19.7899 74.248 19.7899H73.9201V23.4457H73.9197ZM78.8435 28.7609H77.347L74.4311 24.4917H73.9197V28.7609H72.6851V18.6654H74.1822C75.0619 18.6654 76.0073 18.679 76.7957 19.1347C77.6219 19.6291 78.0951 20.5804 78.0951 21.5442C78.0951 22.9898 77.149 24.1937 75.7183 24.3684L78.8435 28.7609Z" fill="#003366"/>
<path d="M84.3445 20.5804C83.9777 19.9505 83.5054 19.6292 82.7561 19.6292C81.9677 19.6292 81.101 20.1786 81.101 21.0616C81.101 21.8521 81.8642 22.2669 82.4806 22.5087L83.1893 22.7899C84.5948 23.3513 85.6439 24.1409 85.6439 25.8307C85.6439 27.6628 84.2537 28.9753 82.4806 28.9753C80.878 28.9753 79.6309 27.77 79.4211 26.1492L80.668 25.8819C80.6551 26.994 81.5213 27.7962 82.5857 27.7962C83.6496 27.7962 84.411 26.8861 84.411 25.8304C84.411 24.7427 83.5577 24.2771 82.7035 23.913L82.02 23.6193C80.8919 23.1237 79.868 22.4671 79.868 21.0609C79.868 19.4278 81.2858 18.4505 82.7832 18.4505C83.8858 18.4505 84.7916 18.9993 85.3297 19.9774L84.3445 20.5804Z" fill="#003366"/>
<path d="M88.3233 28.7609H87.0885V18.6656H88.3233V28.7609Z" fill="#003366"/>
<path d="M92.9721 28.7609H91.7363V19.8173H89.3866V18.6656H95.3209V19.8173H92.9721V28.7609Z" fill="#003366"/>
<path d="M95.3994 18.6659H96.8176L99.2475 22.9764L101.677 18.6659H103.094L99.8645 24.3687V28.7612H98.6304V24.3687L95.3994 18.6659Z" fill="#003366"/>
<path d="M116.447 23.7123C116.447 21.4903 114.822 19.6291 112.496 19.6291C110.17 19.6291 108.545 21.4903 108.545 23.7123C108.545 26.0157 110.355 27.7957 112.496 27.7957C114.638 27.7957 116.447 26.0157 116.447 23.7123ZM117.683 23.7123C117.683 26.7129 115.36 28.9745 112.496 28.9745C109.633 28.9745 107.31 26.7129 107.31 23.7123C107.31 20.8212 109.66 18.4509 112.496 18.4509C115.335 18.4512 117.683 20.8212 117.683 23.7123Z" fill="#003366"/>
<path d="M120.231 19.8172V22.6549H123.67V23.8071H120.231V28.7604H118.996V18.665H123.789V19.8172H120.231Z" fill="#003366"/>
<path d="M133.686 20.5804C133.322 19.9505 132.848 19.6292 132.1 19.6292C131.312 19.6292 130.446 20.1786 130.446 21.0616C130.446 21.8521 131.207 22.2669 131.825 22.5087L132.533 22.7899C133.938 23.3513 134.988 24.1409 134.988 25.8307C134.988 27.6628 133.597 28.9753 131.825 28.9753C130.22 28.9753 128.975 27.77 128.764 26.1492L130.013 25.8819C129.999 26.994 130.866 27.7962 131.927 27.7962C132.994 27.7962 133.752 26.8861 133.752 25.8304C133.752 24.7427 132.902 24.2771 132.045 23.913L131.364 23.6193C130.235 23.1237 129.21 22.4671 129.21 21.0609C129.21 19.4278 130.63 18.4505 132.128 18.4505C133.23 18.4505 134.135 18.9993 134.673 19.9774L133.686 20.5804Z" fill="#003366"/>
<path d="M143.681 20.5938C142.972 19.9504 141.998 19.6031 141.068 19.6031C138.849 19.6031 137.152 21.4901 137.152 23.7269C137.152 25.9342 138.834 27.8228 141.039 27.8228C142.013 27.8228 142.944 27.4484 143.681 26.779V28.2662C142.918 28.7214 141.947 28.9753 141.08 28.9753C138.257 28.9753 135.922 26.685 135.922 23.7666C135.922 20.7799 138.27 18.4507 141.186 18.4507C142.052 18.4507 142.931 18.6646 143.681 19.1344V20.5938Z" fill="#003366"/>
<path d="M146.478 28.7609H145.244V18.6656H146.478V28.7609Z" fill="#003366"/>
<path d="M148.46 18.6659H153.777V19.8176H149.695V22.6421H153.658V23.7938H149.695V27.6078H153.777V28.761H148.46V18.6659Z" fill="#003366"/>
<path d="M155.315 18.1831L162.745 26.1228V18.6665H163.981V29.1764L156.548 21.2369V28.7608H155.315V18.1831Z" fill="#003366"/>
<path d="M173.078 20.5938C172.37 19.9504 171.398 19.6031 170.468 19.6031C168.247 19.6031 166.553 21.4901 166.553 23.7269C166.553 25.9342 168.232 27.8228 170.44 27.8228C171.411 27.8228 172.344 27.4484 173.078 26.779V28.2662C172.319 28.7214 171.344 28.9753 170.478 28.9753C167.658 28.9753 165.321 26.685 165.321 23.7666C165.321 20.7799 167.667 18.4507 170.585 18.4507C171.453 18.4507 172.329 18.6646 173.079 19.1344V20.5938H173.078Z" fill="#003366"/>
<path d="M174.681 18.6659H180V19.8176H175.913V22.6421H179.881V23.7938H175.913V27.6078H180V28.761H174.681V18.6659Z" fill="#003366"/>
<path d="M38.3229 37.0557L36.564 41.1398H40.0833L38.3229 37.0557ZM36.0509 42.2923L34.9233 44.8233H33.5963L38.3229 34.3001L43.0503 44.8233H41.7238L40.595 42.2923H36.0509Z" fill="#003366"/>
<path d="M43.8904 34.2458L51.3221 42.1852V34.7295H52.556V45.2387L45.1254 37.2993V44.8232H43.8908V34.2458H43.8904Z" fill="#003366"/>
<path d="M55.5766 43.6709H56.0099C58.5312 43.6709 60.7112 42.7085 60.7112 39.7761C60.7112 36.8312 58.5316 35.8799 56.0099 35.8799H55.5766V43.6709ZM54.342 34.7287H56.3905C59.4238 34.7287 61.9451 36.3611 61.9451 39.7223C61.9451 43.1635 59.4763 44.8231 56.3512 44.8231H54.3418V34.7287H54.342Z" fill="#003366"/>
<path d="M69.9009 44.8233H68.6679V35.8797H66.317V34.7287H72.2525V35.8797H69.9009V44.8233Z" fill="#003366"/>
<path d="M73.3546 34.7288H78.6718V35.8798H74.5894V38.7029H78.5537V39.856H74.5894V43.6708H78.6718V44.8232H73.3546V34.7288Z" fill="#003366"/>
<path d="M87.5353 36.6564C86.8263 36.0125 85.855 35.6655 84.923 35.6655C82.7032 35.6655 81.0099 37.5534 81.0099 39.7907C81.0099 41.9973 82.6904 43.8852 84.8959 43.8852C85.8672 43.8852 86.8006 43.5107 87.5353 42.8428V44.33C86.774 44.7836 85.8024 45.0376 84.9353 45.0376C82.1127 45.0376 79.7753 42.7474 79.7753 39.8275C79.7753 36.8415 82.125 34.5152 85.0402 34.5152C85.9075 34.5152 86.7869 34.7296 87.5353 35.197V36.6564Z" fill="#003366"/>
<path d="M94.9821 38.7968V34.7287H96.2125V44.8233H94.9821V39.9756H90.2669V44.8233H89.0327V34.7287H90.2669V38.7968H94.9821Z" fill="#003366"/>
<path d="M98.0124 34.2458L105.445 42.1852V34.7295H106.678V45.2387L99.248 37.2993V44.8232H98.0122V34.2458H98.0124Z" fill="#003366"/>
<path d="M117.014 39.7746C117.014 37.5534 115.385 35.6919 113.059 35.6919C110.737 35.6919 109.109 37.5534 109.109 39.7746C109.109 42.0781 110.919 43.8588 113.059 43.8588C115.201 43.8588 117.014 42.0781 117.014 39.7746ZM118.247 39.7746C118.247 42.7762 115.924 45.0376 113.059 45.0376C110.199 45.0376 107.873 42.7753 107.873 39.7746C107.873 36.884 110.224 34.5145 113.059 34.5145C115.898 34.5145 118.247 36.884 118.247 39.7746Z" fill="#003366"/>
<path d="M120.808 43.6709H123.816V44.8233H119.575V34.7287H120.808V43.6709Z" fill="#003366"/>
<path d="M133.202 39.7746C133.202 37.5534 131.574 35.6919 129.25 35.6919C126.925 35.6919 125.297 37.5534 125.297 39.7746C125.297 42.0781 127.11 43.8588 129.25 43.8588C131.389 43.8588 133.202 42.0781 133.202 39.7746ZM134.435 39.7746C134.435 42.7762 132.112 45.0376 129.25 45.0376C126.39 45.0376 124.064 42.7753 124.064 39.7746C124.064 36.884 126.415 34.5145 129.25 34.5145C132.087 34.5145 134.435 36.884 134.435 39.7746Z" fill="#003366"/>
<path d="M144.783 39.7357V40.1357C144.783 42.9073 142.865 45.0377 140.097 45.0377C137.327 45.0377 135.092 42.6006 135.092 39.8011C135.092 36.8973 137.378 34.5145 140.227 34.5145C141.763 34.5145 143.285 35.2235 144.259 36.4706L143.393 37.3126C142.684 36.3216 141.485 35.6646 140.28 35.6646C138.06 35.6646 136.328 37.5005 136.328 39.7612C136.328 41.8767 138.035 43.8843 140.173 43.8843C141.711 43.8843 143.365 42.5328 143.418 40.8886H140.858V39.7355H144.783V39.7357Z" fill="#003366"/>
<path d="M145.111 34.7288H146.531L148.957 39.0377L151.387 34.7288H152.808L149.577 40.4324V44.8234H148.341V40.4324L145.111 34.7288Z" fill="#003366"/>
<path d="M19.8362 9.94125C20.0409 9.67988 20.1129 9.21499 20.1129 9.21499H7.83191C7.83191 9.21499 7.98357 9.73253 8.11231 9.94125H19.8362Z" fill="#996600"/>
<path d="M19.1233 11.0057C19.3518 10.7994 19.582 10.381 19.582 10.381H8.33997C8.33997 10.381 8.46523 10.694 8.74795 11.0057H19.1233Z" fill="#996600"/>
<path d="M18.2363 11.965C18.5156 11.813 18.7413 11.4978 18.7413 11.4978H9.12683C9.12683 11.4978 9.35722 11.7565 9.58298 11.965H18.2363Z" fill="#996600"/>
<path d="M17.1161 12.8749C17.3904 12.7677 17.7005 12.5089 17.7005 12.5089H10.1989C10.1989 12.5089 10.1989 12.5658 10.7319 12.8749H17.1161Z" fill="#996600"/>
<path d="M11.5934 13.4424C11.5934 13.4424 12.383 13.9125 13.9341 13.9125C15.4875 13.9125 16.4774 13.4424 16.4774 13.4424H11.5934Z" fill="#996600"/>
<path d="M11.4678 14.5067C11.4678 14.5067 12.4085 14.5588 12.9682 14.998C13.5012 15.4685 13.9113 16.2422 13.9113 16.2422C13.9113 16.2422 14.2394 15.4943 14.7749 15.1052C15.3117 14.6868 16.1753 14.5067 16.1753 14.5067H25.8667L27.7746 17.3881H19.072C19.072 17.3881 18.4619 17.4138 17.547 17.9599C17.0631 18.2404 16.706 18.7362 16.706 18.7362C16.706 18.7362 16.634 18.9692 16.5266 19.0977C16.4268 19.228 16.3497 19.3326 16.2247 19.3824C16.0959 19.4367 16.1216 19.4056 16.1216 19.4056H11.5937C11.5937 19.4056 11.4117 19.3326 11.3163 19.1725C11.214 19.0191 11.2886 19.0708 11.1888 18.9461C11.1117 18.8146 10.9322 18.4748 10.2454 18.01C9.53459 17.5387 8.84482 17.4924 8.84482 17.4924H-0.000244141L1.92807 14.5067H11.4678Z" fill="#003366"/>
<path d="M4.62219 18.5791V33.3067C4.62219 33.3067 4.67383 34.6081 5.74241 36.3714C6.81146 38.1332 8.36236 38.9383 8.36236 38.9383L9.58284 36.993C9.58284 36.993 8.51587 36.3449 7.70106 35.0999C6.91334 33.8564 6.91334 32.7892 6.91334 32.7892V18.5788L4.62219 18.5791Z" fill="#003366"/>
<path d="M21.0055 18.5269V32.7364C21.0055 32.7364 20.8286 34.1648 20.167 35.1793C19.5055 36.2144 18.4082 37.0453 18.4082 37.0453L19.5826 38.9641C19.5826 38.9641 21.3616 37.6414 22.2278 36.2402C23.0901 34.8389 23.2998 32.7366 23.2998 32.7366V18.5274H21.0055V18.5269Z" fill="#003366"/>
<path d="M0.989014 18.5791V33.3648C0.989014 33.3648 1.13813 35.6491 2.53806 38.0333C3.9403 40.4175 6.48059 42.0808 6.48059 42.0808L7.67884 40.1356C7.67884 40.1356 6.05015 39.2525 4.75326 37.2287C3.42488 35.1786 3.35287 33.3067 3.35287 33.3067V18.5786H0.989014V18.5791Z" fill="#003366"/>
<path d="M11.4678 20.1352V35.749C11.4678 35.749 11.4117 35.8019 11.3939 36.0309C11.3654 36.2673 11.2145 36.4229 11.2145 36.4229L6.10193 45.061H21.7716L16.6572 36.2399L16.5062 35.8487L16.4544 35.4348V20.1631H14.5478V36.0104C14.5478 36.0104 14.5478 36.2401 14.6238 36.4229C14.6698 36.6063 14.7747 36.8889 14.7747 36.8889L17.9261 42.1807H9.93981L13.0448 36.9147C13.0448 36.9147 13.1472 36.7371 13.2241 36.4757C13.2748 36.2401 13.2961 36.0104 13.2961 36.0104V20.1352H11.4678Z" fill="#996600"/>
<path d="M24.5407 18.5269V33.0506C24.5407 33.0506 24.5208 34.918 23.1698 37.0717C21.8235 39.2262 20.2694 40.1356 20.2694 40.1356L21.4158 42.1014C21.4158 42.1014 23.7521 40.596 25.231 38.2109C26.6788 35.8267 26.8583 33.0506 26.8583 33.0506V18.5269H24.5407Z" fill="#003366"/>
<path d="M7.7526 8.79916C7.7526 8.79916 6.96858 4.42014 10.119 2.235C10.119 2.235 11.5446 0.890863 13.8578 0.890863C16.3265 0.890863 17.7494 2.21068 17.7494 2.21068C21.1825 4.77548 20.1674 8.79916 20.1674 8.79916H7.7526Z" fill="#996600"/>
</g>
</svg>
