<?xml version="1.0" encoding="utf-8"?>
<!-- Generator: Adobe Illustrator 26.0.1, SVG Export Plug-In . SVG Version: 6.00 Build 0)  -->
<!DOCTYPE svg PUBLIC "-//W3C//DTD SVG 1.1//EN" "http://www.w3.org/Graphics/SVG/1.1/DTD/svg11.dtd" [
	<!ENTITY ns_extend "http://ns.adobe.com/Extensibility/1.0/">
	<!ENTITY ns_ai "http://ns.adobe.com/AdobeIllustrator/10.0/">
	<!ENTITY ns_graphs "http://ns.adobe.com/Graphs/1.0/">
	<!ENTITY ns_vars "http://ns.adobe.com/Variables/1.0/">
	<!ENTITY ns_imrep "http://ns.adobe.com/ImageReplacement/1.0/">
	<!ENTITY ns_sfw "http://ns.adobe.com/SaveForWeb/1.0/">
	<!ENTITY ns_custom "http://ns.adobe.com/GenericCustomNamespace/1.0/">
	<!ENTITY ns_adobe_xpath "http://ns.adobe.com/XPath/1.0/">
]>
<svg version="1.1" id="圖層_1" xmlns:x="&ns_extend;" xmlns:i="&ns_ai;" xmlns:graph="&ns_graphs;"
	 xmlns="http://www.w3.org/2000/svg" xmlns:xlink="http://www.w3.org/1999/xlink" x="0px" y="0px" width="328.6px" height="108px"
	 viewBox="0 0 328.6 108" style="enable-background:new 0 0 328.6 108;" xml:space="preserve">
<style type="text/css">
	.st0{fill:#FFFFFF;}
</style>
<metadata>
	<sfw  xmlns="&ns_sfw;">
		<slices></slices>
		<sliceSourceBounds  bottomLeftOrigin="true" height="103.5" width="324.8" x="1.4" y="2.4"></sliceSourceBounds>
	</sfw>
</metadata>
<g>
	<g>
		<g>
			<g>
				<path class="st0" d="M53.3,105.6L41.2,85.5c0,0-0.4-0.5-0.4-1.2v-0.4v-1V46.8h-4.6v37.5v1.1c0.4,0.4,8,13.4,8,13.4H25.4
					c0,0,7.6-13,8-13.4v-1.1V46.8h-4.6v35.9v1v0.4c0,0.8-0.4,1.2-0.4,1.2l-12.1,20.2L53.3,105.6L53.3,105.6z"/>
			</g>
			<g>
				<path class="st0" d="M49.6,20.6c0,0,2.3-9.4-5.9-15.6c0,0-3.3-2.9-9.4-2.9c-5.5,0-8.8,2.9-8.8,2.9C18,10.2,20,20.6,20,20.6H49.6
					z"/>
				<path class="st0" d="M20.9,23.2h27.8c0.2-0.5,0.4-1.1,0.6-1.6h-29C20.5,22.2,20.7,22.7,20.9,23.2z"/>
				<path class="st0" d="M48.3,24.2h-27c0.3,0.6,0.6,1.1,0.9,1.6h25.1C47.7,25.3,48,24.8,48.3,24.2z"/>
				<path class="st0" d="M24.1,28.1h21.4c0.4-0.4,0.8-0.8,1.1-1.3H23C23.3,27.3,23.7,27.7,24.1,28.1z"/>
				<path class="st0" d="M26.4,30.1h16.8c0.4-0.3,0.9-0.6,1.3-1H25.1C25.5,29.4,26,29.8,26.4,30.1z"/>
				<path class="st0" d="M28.7,31.4c1.9,0.8,3.9,1.3,6.1,1.3c2.2,0,4.2-0.5,6.1-1.3C40.9,31.4,28.7,31.4,28.7,31.4z"/>
			</g>
			<path class="st0" d="M63.7,33.4H40.9c0,0-2.1,0-3.8,1.2c-1.3,0.9-2.2,3-2.3,3.1l0,0c0-0.1-1-2.2-2.3-3.1
				c-1.7-1.2-3.8-1.2-3.8-1.2H6l-4.6,7.3h20.9c0,0,0.6,0,1,0.1c0.6,0.1,1.7,0.4,2.8,1.2c1.5,1.1,2,1.7,2.4,2.1
				c0.2,0.2,0.7,0.8,0.7,0.8h5.1h0.6l0,0h1.8h3.9c0,0,0.5-0.7,0.7-0.8c0.4-0.4,0.8-0.9,2.4-2.1c1.1-0.8,2.2-1.1,2.8-1.2
				c0.4-0.1,1-0.1,1-0.1h20.9L63.7,33.4z"/>
			<g>
				<g>
					<path class="st0" d="M3.7,42.9v34.2c0,0,0,0.4,0,0.5c0,0.4,0,0.7,0.1,1c0.4,3.7,1.5,6.4,3.6,9.9c3.3,5.6,9.4,9.5,9.4,9.5
						l2.9-4.6c0,0-3.9-2.1-7-6.8c-0.6-0.9-1.2-1.8-1.7-2.7c-0.4-0.8-0.7-1.5-0.9-2.2c-0.2-0.5-0.3-1-0.4-1.4
						c-0.2-0.6-0.2-1.1-0.3-1.7c0-0.2,0-1.1,0-1.1v-0.2V42.9H3.7z"/>
					<path class="st0" d="M12.4,42.9v34.5c0,0,0,0.1,0,0.3c0,0.2,0,0.4,0.1,0.6c0,0.1,0,0.3,0.1,0.4c0.1,0.5,0.2,1,0.5,1.7
						c0.4,1.2,1.1,2.6,2.1,4.2c2.6,4.1,6.3,6,6.3,6l2.9-4.4c0,0-0.9-0.5-2.1-1.6c-0.8-0.7-1.7-1.7-2.4-2.9c-0.8-1.2-1.2-2.4-1.5-3.3
						c-0.2-0.7-0.3-1.3-0.3-1.7c0-0.3,0-0.5,0-0.5V42.9H12.4z"/>
				</g>
				<g>
					<path class="st0" d="M65.9,42.9v34.2c0,0,0,0.4,0,0.5c0,0.4,0,0.7-0.1,1c-0.4,3.7-1.5,6.4-3.6,9.9c-3.3,5.6-9.4,9.5-9.4,9.5
						L50,93.4c0,0,3.9-2.1,7-6.8c0.6-0.9,1.2-1.8,1.7-2.7c0.4-0.8,0.7-1.5,0.9-2.2c0.2-0.5,0.3-1,0.4-1.4c0.2-0.6,0.2-1.1,0.3-1.7
						c0-0.2,0-1.1,0-1.1v-0.2V42.9H65.9z"/>
					<path class="st0" d="M57.3,42.9v34.5c0,0,0,0.1,0,0.3c0,0.2,0,0.4-0.1,0.6c0,0.1,0,0.3-0.1,0.4c-0.1,0.5-0.2,1-0.5,1.7
						c-0.4,1.2-1.1,2.6-2.1,4.2c-2.6,4.1-6.3,6-6.3,6l-2.9-4.4c0,0,0.9-0.5,2.1-1.6c0.8-0.7,1.7-1.7,2.4-2.9
						c0.8-1.2,1.2-2.4,1.5-3.3c0.2-0.7,0.3-1.3,0.3-1.7c0-0.3,0-0.5,0-0.5V42.9H57.3z"/>
				</g>
			</g>
		</g>
	</g>
	<g>
		<path class="st0" d="M116.6,60V42.4h5.4v43.7h-5.4v-21H95.8v21h-5.4V42.4h5.4V60H116.6z"/>
		<path class="st0" d="M171.3,42.4h7.1L158.8,62l20,24h-7.4L155,65.7l-2.2,2.1v18.3h-5.4V42.4h5.4v18.9L171.3,42.4z"/>
		<path class="st0" d="M204.2,42.4v25.8c0,7.1,2.1,13.7,10.5,13.7s10.5-6.6,10.5-13.7V42.4h5.4V70c0,9.6-6,17-16,17s-16-7.4-16-17
			V42.4H204.2z"/>
		<path class="st0" d="M275,50.7c-1.6-2.7-3.7-4.1-7-4.1c-3.5,0-7.3,2.4-7.3,6.2c0,3.4,3.4,5.2,6.1,6.3l3.1,1.2
			c6.2,2.4,10.8,5.9,10.8,13.2c0,7.9-6.1,13.6-14,13.6c-7.1,0-12.6-5.2-13.5-12.2l5.5-1.2c-0.1,4.8,3.8,8.3,8.5,8.3s8.1-3.9,8.1-8.5
			c0-4.7-3.8-6.7-7.5-8.3l-3-1.3c-5-2.1-9.5-5-9.5-11.1c0-7.1,6.3-11.3,12.9-11.3c4.9,0,8.9,2.4,11.2,6.6L275,50.7z"/>
		<path class="st0" d="M315.9,86.1h-5.4V47.4H300v-5h26.2v5h-10.4L315.9,86.1L315.9,86.1z"/>
	</g>
</g>
</svg>
