<svg width="236" height="28" viewBox="0 0 236 28" fill="none" xmlns="http://www.w3.org/2000/svg">
<g clip-path="url(#clip0_514_4083)">
<path d="M4.44467 10.2476C5.9743 10.2476 7.16085 9.83827 8.00433 9.01951C8.84781 8.20076 9.26956 7.04705 9.26956 5.5584C9.26956 4.07851 8.84781 2.93138 8.00433 2.117C7.16085 1.30262 5.9743 0.89543 4.44467 0.89543H1.00956V10.2476H4.44467ZM4.33978 8.86846H2.70089V2.27462H4.33978C6.49 2.27462 7.56511 3.36921 7.56511 5.5584C7.56511 7.76511 6.49 8.86846 4.33978 8.86846ZM12.7735 10.2476V0.89543H11.0822V10.2476H12.7735ZM19.2799 10.2476L23.4361 0.89543H21.7186L18.6112 8.11975L15.5039 0.89543H13.747L17.9032 10.2476H19.2799ZM26.1009 10.2476V0.89543H24.4096V10.2476H26.1009ZM31.3618 10.3659C32.1222 10.3659 32.7821 10.252 33.3416 10.0243C33.901 9.79667 34.3293 9.47486 34.6264 9.05892C34.9236 8.64297 35.0722 8.15478 35.0722 7.59435C35.0722 7.08646 34.9411 6.66394 34.6789 6.32681C34.4167 5.98967 34.0408 5.71384 33.5513 5.4993C33.0619 5.28476 32.4281 5.08554 31.6502 4.90165C30.8985 4.73527 30.3675 4.55575 30.0572 4.36311C29.7469 4.17046 29.5918 3.89024 29.5918 3.52246C29.5918 3.09338 29.7666 2.75405 30.1162 2.50448C30.4659 2.25492 30.9422 2.13013 31.5453 2.13013C32.5505 2.13013 33.4683 2.46289 34.2987 3.1284L34.8624 1.8937C34.4866 1.54343 34.0037 1.26978 33.4137 1.07275C32.8237 0.875728 32.2009 0.777214 31.5453 0.777214C30.8286 0.777214 30.1971 0.899809 29.6508 1.145C29.1045 1.39019 28.6827 1.72732 28.3856 2.1564C28.0884 2.58548 27.9398 3.07586 27.9398 3.62754C27.9398 4.39813 28.2064 4.98484 28.7396 5.38765C29.2727 5.79046 30.125 6.11884 31.2962 6.37278C32.0479 6.53916 32.5877 6.71648 32.9154 6.90475C33.2432 7.09302 33.4071 7.3623 33.4071 7.71257C33.4071 8.12413 33.2301 8.44375 32.8761 8.67143C32.5221 8.89911 32.0217 9.01294 31.3749 9.01294C30.7893 9.01294 30.2495 8.93194 29.7557 8.76994C29.2618 8.60794 28.7876 8.35619 28.3331 8.01467L27.7562 9.24938C28.1933 9.6084 28.7243 9.88424 29.3492 10.0769C29.9742 10.2695 30.645 10.3659 31.3618 10.3659ZM38.4188 10.2476V0.89543H36.7275V10.2476H38.4188ZM44.663 10.3659C45.572 10.3659 46.3587 10.171 47.023 9.78135C47.6873 9.39167 48.1986 8.83562 48.557 8.11319C48.9154 7.39075 49.0946 6.53916 49.0946 5.5584C49.0946 4.5864 48.9176 3.73919 48.5636 3.01675C48.2096 2.29432 47.6982 1.74046 47.0296 1.35516C46.3609 0.969863 45.572 0.777214 44.663 0.777214C43.754 0.777214 42.9651 0.969863 42.2964 1.35516C41.6278 1.74046 41.1143 2.29432 40.7559 3.01675C40.3975 3.73919 40.2183 4.5864 40.2183 5.5584C40.2183 6.53916 40.3997 7.39075 40.7624 8.11319C41.1252 8.83562 41.6409 9.39167 42.3096 9.78135C42.9782 10.171 43.7627 10.3659 44.663 10.3659ZM44.663 9.01294C43.7977 9.01294 43.1246 8.71521 42.6439 8.11975C42.1631 7.52429 41.9228 6.67051 41.9228 5.5584C41.9228 4.4463 42.1631 3.59689 42.6439 3.01019C43.1246 2.42348 43.7977 2.13013 44.663 2.13013C45.5283 2.13013 46.2014 2.42567 46.6821 3.01675C47.1628 3.60784 47.4032 4.45505 47.4032 5.5584C47.4032 6.67051 47.1628 7.52429 46.6821 8.11975C46.2014 8.71521 45.5283 9.01294 44.663 9.01294ZM52.4805 10.2476V3.69321L57.5152 10.2476H58.7738V0.89543H57.1874V7.43673L52.1658 0.89543H50.9072V10.2476H52.4805ZM68.7055 10.3659C69.6145 10.3659 70.4012 10.171 71.0655 9.78135C71.7298 9.39167 72.2411 8.83562 72.5995 8.11319C72.9579 7.39075 73.1371 6.53916 73.1371 5.5584C73.1371 4.5864 72.9601 3.73919 72.606 3.01675C72.2521 2.29432 71.7407 1.74046 71.0721 1.35516C70.4034 0.969863 69.6145 0.777214 68.7055 0.777214C67.7965 0.777214 67.0076 0.969863 66.3389 1.35516C65.6703 1.74046 65.1568 2.29432 64.7984 3.01675C64.44 3.73919 64.2608 4.5864 64.2608 5.5584C64.2608 6.53916 64.4422 7.39075 64.8049 8.11319C65.1677 8.83562 65.6834 9.39167 66.3521 9.78135C67.0207 10.171 67.8052 10.3659 68.7055 10.3659ZM68.7055 9.01294C67.8402 9.01294 67.1671 8.71521 66.6864 8.11975C66.2056 7.52429 65.9653 6.67051 65.9653 5.5584C65.9653 4.4463 66.2056 3.59689 66.6864 3.01019C67.1671 2.42348 67.8402 2.13013 68.7055 2.13013C69.5708 2.13013 70.2439 2.42567 70.7246 3.01675C71.2053 3.60784 71.4457 4.45505 71.4457 5.5584C71.4457 6.67051 71.2053 7.52429 70.7246 8.11975C70.2439 8.71521 69.5708 9.01294 68.7055 9.01294ZM76.6279 10.2476V6.17576H80.7841V4.8097H76.6279V2.24835H81.0463V0.89543H74.9497V10.2476H76.6279ZM87.8969 10.2476V0.89543H86.2056V10.2476H87.8969ZM91.5713 10.2476V3.69321L96.6059 10.2476H97.8646V0.89543H96.2782V7.43673L91.2566 0.89543H89.9979V10.2476H91.5713ZM103.873 10.2476V2.28775H106.928V0.89543H99.1266V2.28775H102.168V10.2476H103.873ZM114.417 10.2476V8.90786H109.828V6.16262H114.142V4.82284H109.828V2.23521H114.417V0.89543H108.176V10.2476H114.417ZM120.426 10.3659C121.055 10.3659 121.671 10.3046 122.274 10.182C122.877 10.0594 123.393 9.893 123.821 9.68284V5.19062H120.281V6.41219H122.3V8.77651C121.706 8.94289 121.103 9.02608 120.491 9.02608C119.486 9.02608 118.73 8.73492 118.223 8.15259C117.716 7.57027 117.462 6.70554 117.462 5.5584C117.462 4.4463 117.709 3.60127 118.203 3.02332C118.697 2.44538 119.425 2.1564 120.386 2.1564C120.884 2.1564 121.343 2.23084 121.763 2.3797C122.182 2.52857 122.611 2.77375 123.048 3.11527L123.625 1.88057C123.24 1.5303 122.762 1.25884 122.189 1.06619C121.616 0.873538 121.002 0.777214 120.347 0.777214C119.412 0.777214 118.597 0.969863 117.902 1.35516C117.207 1.74046 116.671 2.29213 116.296 3.01019C115.92 3.72824 115.732 4.57765 115.732 5.5584C115.732 6.55667 115.92 7.41484 116.296 8.13289C116.671 8.85094 117.213 9.40262 117.921 9.78792C118.629 10.1732 119.464 10.3659 120.426 10.3659ZM127.483 10.2476V6.35965H129.174C129.524 6.35965 129.808 6.41657 130.026 6.5304C130.245 6.64424 130.406 6.84565 130.511 7.13462L131.704 10.2476H133.487L132.347 7.25284C132.102 6.59608 131.704 6.21078 131.154 6.09694C131.757 5.91305 132.222 5.60438 132.55 5.17092C132.878 4.73746 133.042 4.20986 133.042 3.58813C133.042 2.72121 132.766 2.0557 132.216 1.59159C131.665 1.12748 130.861 0.89543 129.803 0.89543H125.804V10.2476H127.483ZM129.567 5.04613H127.456V2.20894H129.567C130.214 2.20894 130.688 2.32497 130.99 2.55702C131.291 2.78908 131.442 3.14154 131.442 3.6144C131.442 4.09602 131.289 4.45505 130.983 4.69148C130.677 4.92792 130.205 5.04613 129.567 5.04613ZM135.667 10.2476L136.611 8.05408H141.174L142.105 10.2476H143.796L139.561 0.89543H138.185L133.963 10.2476H135.667ZM140.61 6.74057H137.175L138.893 2.73435L140.61 6.74057ZM147.628 10.2476V2.28775H150.683V0.89543H142.882V2.28775H145.923V10.2476H147.628ZM153.623 10.2476V0.89543H151.932V10.2476H153.623ZM160.129 10.2476L164.285 0.89543H162.568L159.461 8.11975L156.353 0.89543H154.596L158.753 10.2476H160.129ZM171.5 10.2476V8.90786H166.911V6.16262H171.225V4.82284H166.911V2.23521H171.5V0.89543H165.259V10.2476H171.5ZM179.976 10.3659C180.737 10.3659 181.397 10.252 181.956 10.0243C182.515 9.79667 182.944 9.47486 183.241 9.05892C183.538 8.64297 183.687 8.15478 183.687 7.59435C183.687 7.08646 183.556 6.66394 183.293 6.32681C183.031 5.98967 182.655 5.71384 182.166 5.4993C181.676 5.28476 181.043 5.08554 180.265 4.90165C179.513 4.73527 178.982 4.55575 178.672 4.36311C178.361 4.17046 178.206 3.89024 178.206 3.52246C178.206 3.09338 178.381 2.75405 178.731 2.50448C179.08 2.25492 179.557 2.13013 180.16 2.13013C181.165 2.13013 182.083 2.46289 182.913 3.1284L183.477 1.8937C183.101 1.54343 182.618 1.26978 182.028 1.07275C181.438 0.875728 180.815 0.777214 180.16 0.777214C179.443 0.777214 178.812 0.899809 178.265 1.145C177.719 1.39019 177.297 1.72732 177 2.1564C176.703 2.58548 176.554 3.07586 176.554 3.62754C176.554 4.39813 176.821 4.98484 177.354 5.38765C177.887 5.79046 178.739 6.11884 179.911 6.37278C180.662 6.53916 181.202 6.71648 181.53 6.90475C181.858 7.09302 182.022 7.3623 182.022 7.71257C182.022 8.12413 181.845 8.44375 181.491 8.67143C181.137 8.89911 180.636 9.01294 179.989 9.01294C179.404 9.01294 178.864 8.93194 178.37 8.76994C177.876 8.60794 177.402 8.35619 176.948 8.01467L176.371 9.24938C176.808 9.6084 177.339 9.88424 177.964 10.0769C178.589 10.2695 179.259 10.3659 179.976 10.3659ZM189.052 10.2476V6.54354L192.841 0.89543H190.914L188.2 5.12494L185.499 0.89543H183.572L187.361 6.54354V10.2476H189.052ZM196.293 10.3659C197.053 10.3659 197.713 10.252 198.273 10.0243C198.832 9.79667 199.26 9.47486 199.558 9.05892C199.855 8.64297 200.003 8.15478 200.003 7.59435C200.003 7.08646 199.872 6.66394 199.61 6.32681C199.348 5.98967 198.972 5.71384 198.483 5.4993C197.993 5.28476 197.359 5.08554 196.581 4.90165C195.83 4.73527 195.299 4.55575 194.988 4.36311C194.678 4.17046 194.523 3.89024 194.523 3.52246C194.523 3.09338 194.698 2.75405 195.047 2.50448C195.397 2.25492 195.873 2.13013 196.477 2.13013C197.482 2.13013 198.4 2.46289 199.23 3.1284L199.794 1.8937C199.418 1.54343 198.935 1.26978 198.345 1.07275C197.755 0.875728 197.132 0.777214 196.477 0.777214C195.76 0.777214 195.128 0.899809 194.582 1.145C194.036 1.39019 193.614 1.72732 193.317 2.1564C193.02 2.58548 192.871 3.07586 192.871 3.62754C192.871 4.39813 193.138 4.98484 193.671 5.38765C194.204 5.79046 195.056 6.11884 196.227 6.37278C196.979 6.53916 197.519 6.71648 197.847 6.90475C198.174 7.09302 198.338 7.3623 198.338 7.71257C198.338 8.12413 198.161 8.44375 197.807 8.67143C197.453 8.89911 196.953 9.01294 196.306 9.01294C195.72 9.01294 195.181 8.93194 194.687 8.76994C194.193 8.60794 193.719 8.35619 193.264 8.01467L192.687 9.24938C193.124 9.6084 193.655 9.88424 194.28 10.0769C194.905 10.2695 195.576 10.3659 196.293 10.3659ZM205.356 10.2476V2.28775H208.411V0.89543H200.61V2.28775H203.652V10.2476H205.356ZM215.901 10.2476V8.90786H211.312V6.16262H215.625V4.82284H211.312V2.23521H215.901V0.89543H209.66V10.2476H215.901ZM219.064 10.2476V4.50759L221.555 10.2476H222.669L225.147 4.44192V10.2476H226.642V0.89543H225.305L222.119 8.2117L218.906 0.89543H217.569V10.2476H219.064ZM231.929 10.3659C232.689 10.3659 233.349 10.252 233.909 10.0243C234.468 9.79667 234.896 9.47486 235.194 9.05892C235.491 8.64297 235.639 8.15478 235.639 7.59435C235.639 7.08646 235.508 6.66394 235.246 6.32681C234.984 5.98967 234.608 5.71384 234.119 5.4993C233.629 5.28476 232.995 5.08554 232.217 4.90165C231.466 4.73527 230.935 4.55575 230.624 4.36311C230.314 4.17046 230.159 3.89024 230.159 3.52246C230.159 3.09338 230.334 2.75405 230.683 2.50448C231.033 2.25492 231.509 2.13013 232.113 2.13013C233.118 2.13013 234.036 2.46289 234.866 3.1284L235.43 1.8937C235.054 1.54343 234.571 1.26978 233.981 1.07275C233.391 0.875728 232.768 0.777214 232.113 0.777214C231.396 0.777214 230.764 0.899809 230.218 1.145C229.672 1.39019 229.25 1.72732 228.953 2.1564C228.656 2.58548 228.507 3.07586 228.507 3.62754C228.507 4.39813 228.774 4.98484 229.307 5.38765C229.84 5.79046 230.692 6.11884 231.863 6.37278C232.615 6.53916 233.155 6.71648 233.483 6.90475C233.81 7.09302 233.974 7.3623 233.974 7.71257C233.974 8.12413 233.797 8.44375 233.443 8.67143C233.089 8.89911 232.589 9.01294 231.942 9.01294C231.356 9.01294 230.817 8.93194 230.323 8.76994C229.829 8.60794 229.355 8.35619 228.9 8.01467L228.323 9.24938C228.76 9.6084 229.291 9.88424 229.916 10.0769C230.541 10.2695 231.212 10.3659 231.929 10.3659ZM1.70444 27.0314L2.64844 24.8379H7.21111L8.142 27.0314H9.83333L5.59844 17.6792H4.22178L0 27.0314H1.70444ZM6.64733 23.5244H3.21222L4.92978 19.5181L6.64733 23.5244ZM12.4982 27.0314V20.477L17.5328 27.0314H18.7915V17.6792H17.2051V24.2205L12.1835 17.6792H10.9248V27.0314H12.4982ZM24.3408 27.0314C25.8704 27.0314 27.057 26.6221 27.9004 25.8033C28.7439 24.9845 29.1657 23.8308 29.1657 22.3422C29.1657 20.8623 28.7439 19.7152 27.9004 18.9008C27.057 18.0864 25.8704 17.6792 24.3408 17.6792H20.9057V27.0314H24.3408ZM24.2359 25.6522H22.597V19.0584H24.2359C26.3861 19.0584 27.4612 20.153 27.4612 22.3422C27.4612 24.5489 26.3861 25.6522 24.2359 25.6522ZM38.0878 27.0314C39.6174 27.0314 40.804 26.6221 41.6474 25.8033C42.4909 24.9845 42.9127 23.8308 42.9127 22.3422C42.9127 20.8623 42.4909 19.7152 41.6474 18.9008C40.804 18.0864 39.6174 17.6792 38.0878 17.6792H34.6527V27.0314H38.0878ZM37.9829 25.6522H36.344V19.0584H37.9829C40.1331 19.0584 41.2082 20.153 41.2082 22.3422C41.2082 24.5489 40.1331 25.6522 37.9829 25.6522ZM50.9662 27.0314V25.6917H46.3773V22.9464H50.6908V21.6066H46.3773V19.019H50.9662V17.6792H44.7253V27.0314H50.9662ZM55.637 27.1496C56.3974 27.1496 57.0574 27.0358 57.6168 26.8081C58.1762 26.5805 58.6045 26.2586 58.9017 25.8427C59.1988 25.4268 59.3474 24.9386 59.3474 24.3781C59.3474 23.8702 59.2163 23.4477 58.9541 23.1106C58.6919 22.7735 58.316 22.4976 57.8266 22.2831C57.3371 22.0685 56.7034 21.8693 55.9254 21.6854C55.1737 21.5191 54.6427 21.3395 54.3324 21.1469C54.0221 20.9542 53.867 20.674 53.867 20.3062C53.867 19.8772 54.0418 19.5378 54.3914 19.2883C54.7411 19.0387 55.2174 18.9139 55.8206 18.9139C56.8257 18.9139 57.7435 19.2467 58.5739 19.9122L59.1377 18.6775C58.7618 18.3272 58.2789 18.0536 57.6889 17.8565C57.0989 17.6595 56.4761 17.561 55.8206 17.561C55.1038 17.561 54.4723 17.6836 53.926 17.9288C53.3797 18.174 52.958 18.5111 52.6608 18.9402C52.3636 19.3693 52.215 19.8596 52.215 20.4113C52.215 21.1819 52.4816 21.7686 53.0148 22.1714C53.548 22.5742 54.4002 22.9026 55.5714 23.1566C56.3231 23.3229 56.8629 23.5003 57.1907 23.6885C57.5184 23.8768 57.6823 24.1461 57.6823 24.4964C57.6823 24.9079 57.5053 25.2275 57.1513 25.4552C56.7973 25.6829 56.2969 25.7967 55.6501 25.7967C55.0645 25.7967 54.5247 25.7157 54.0309 25.5537C53.537 25.3917 53.0629 25.14 52.6083 24.7985L52.0314 26.0332C52.4685 26.3922 52.9995 26.668 53.6244 26.8607C54.2494 27.0533 54.9203 27.1496 55.637 27.1496ZM62.6941 27.0314V17.6792H61.0027V27.0314H62.6941ZM69.1873 27.1496C69.8167 27.1496 70.4329 27.0884 71.036 26.9658C71.6391 26.8432 72.1548 26.6768 72.5831 26.4666V21.9744H69.0431V23.196H71.0622V25.5603C70.4678 25.7267 69.8647 25.8099 69.2529 25.8099C68.2477 25.8099 67.4916 25.5187 66.9847 24.9364C66.4777 24.3541 66.2242 23.4893 66.2242 22.3422C66.2242 21.2301 66.4711 20.3851 66.965 19.8071C67.4588 19.2292 68.1865 18.9402 69.148 18.9402C69.6462 18.9402 70.1051 19.0146 70.5247 19.1635C70.9442 19.3124 71.3725 19.5575 71.8096 19.8991L72.3864 18.6644C72.0018 18.3141 71.5233 18.0426 70.9508 17.85C70.3783 17.6573 69.7642 17.561 69.1087 17.561C68.1734 17.561 67.3583 17.7536 66.6634 18.1389C65.9686 18.5242 65.4332 19.0759 65.0573 19.794C64.6815 20.512 64.4936 21.3614 64.4936 22.3422C64.4936 23.3405 64.6815 24.1986 65.0573 24.9167C65.4332 25.6347 65.9751 26.1864 66.6831 26.5717C67.3911 26.957 68.2259 27.1496 69.1873 27.1496ZM76.1395 27.0314V20.477L81.1742 27.0314H82.4328V17.6792H80.8464V24.2205L75.8248 17.6792H74.5662V27.0314H76.1395Z" fill="#003874"/>
</g>
<defs>
<clipPath id="clip0_514_4083">
<rect width="236" height="27" fill="white" transform="translate(0 0.761162)"/>
</clipPath>
</defs>
</svg>
